<?xml version="1.0" encoding="UTF-8"?>
<svg width="1440px" height="1368px" viewBox="0 0 1440 1368" version="1.1" xmlns="http://www.w3.org/2000/svg" xmlns:xlink="http://www.w3.org/1999/xlink">
    <!-- Generator: Sketch 42 (36781) - http://www.bohemiancoding.com/sketch -->
    <title>portfolio_page1</title>
    <desc>Created with Sketch.</desc>
    <defs></defs>
    <g id="Neighbours" stroke="none" stroke-width="1" fill="none" fill-rule="evenodd">
        <rect id="Rectangle-25" fill="#130074" x="0" y="2" width="1440" height="1037"></rect>
        <g id="portfolio_page1" transform="translate(-116.000000, 2.000000)">
            <g id="Group-3" transform="translate(116.000000, 0.000000)">
                <g id="Group-2"></g>
            </g>
            <path d="M660.182407,322.543657 C680.17012,349.487436 700.362077,378.073893 728.322791,396.612349 C747.789108,409.518866 796.971267,398.284688 892.761066,430.682541 C929.136018,442.985211 975.438156,486.416635 984.563121,529.606136 C986.595544,539.225826 971.443677,578.260311 966.829758,584.748231 C946.4614,613.389452 932.836592,634.069298 904.60987,652.888616 C890.878574,662.043545 857.255061,663.798089 849.794508,676.594034 C832.757228,705.815472 848.300197,735.678941 851.278538,765.471777 C853.737593,790.070114 853.337646,811.049302 843.874012,833.619972 C826.973269,873.928071 775.593393,921.833736 728.322791,912.132941 C682.483757,902.725931 671.58731,888.53706 632.032711,852.873302 C625.243021,846.751488 601.187878,814.992093 586.113715,806.954306 C558.721674,792.348427 530.405123,791.707085 500.19622,798.065751 C492.389564,799.708972 485.17807,803.525398 477.974832,806.954306 C419.827435,834.63381 458.420045,894.680527 473.530554,934.35433 C474.772665,937.615588 478.232506,972.755642 475.006773,986.201633 C470.605154,1004.54913 440.370503,1147.14226 368.351918,958.051937 C363.277866,944.729623 339.111239,957.658891 335.757945,961.012186 C299.80948,996.96065 323.301209,1071.84523 325.393171,1115.07788 C325.607475,1119.50671 328.607551,1187.04495 325.393171,1202.4794 C314.216127,1256.14807 274.605122,1306.37801 224.658813,1329.87942 C216.742176,1333.60447 208.101727,1335.81214 199.477176,1337.28395 C187.754237,1339.28451 175.811821,1340.53469 163.922955,1340.2442 C155.401894,1340.03599 147.010508,1337.86688 138.741318,1335.79992 C131.166832,1333.90661 123.628164,1331.62502 116.519929,1328.3954 C81.7851007,1312.61365 92.4690507,1219.22681 92.8145112,1199.51915 C94.4135581,1108.29753 101.412636,1018.26404 101.703067,926.941993 C102.041899,820.400587 65.0580805,534.668277 156.510618,404.016875 C183.768713,365.075272 234.049929,332.259802 270.577809,307.726795 C286.673859,296.916298 322.897106,286.561344 338.726004,284.029187 C389.190146,275.956415 440.356158,294.376119 489.823635,297.36202 C526.29822,299.563659 562.905577,297.36202 599.446548,297.36202 C599.446548,297.36202 655.817936,316.660276 660.182407,322.543657 Z" id="Path-2" fill="#00F0FF" opacity="0.315400815"></path>
            <path d="M102.482101,1330.95169 C140.543361,1332.68145 184.430044,1337.63953 207.534806,1300.09575 C216.822012,1285.00462 224.858587,1269.15757 232.639359,1253.23733 C236.478273,1245.38253 240.405837,1237.39595 242.344827,1228.87096 C250.058682,1194.95614 246.72209,1166.4603 248.609733,1131.40547 C249.233829,1119.81555 253.952978,1109.86362 264.907473,1104.94651 C325.329313,1077.82515 375.271189,1154.22138 425.676754,1123.95305 C434.904581,1118.41178 439.433142,1099.81875 440.966717,1091.93528 C445.737696,1067.40966 441.68862,998.54426 482.291984,990.753209 C515.431411,984.394352 548.274441,1004.3337 578.351725,1012.51348 C612.940139,1021.92011 644.227461,1008.53769 674.334439,991.863689 C706.879734,973.839285 688.066582,940.721006 703.797467,916.890232 C718.236817,895.01601 755.724732,900.369848 768.365789,875.282531 C784.098001,844.060537 791.310931,807.487445 790.581811,772.823086 C790.069815,748.481406 784.10115,738.397651 791.685872,717.806177 C805.263952,680.943562 885.837008,678.241371 905.42343,635.476592 C919.500862,604.740082 898.610265,567.889541 904.665993,547.350686 C919.457472,497.183301 945.217247,432.121114 922.459351,380.483393 C921.249547,377.738345 918.926525,375.584063 916.7208,373.550916 C910.531293,367.845681 903.573995,363.015895 897.354797,357.343041 C860.558096,323.778855 894.98254,348.367007 837.119273,304.155535 C821.12038,291.931292 799.27077,276.250841 779.207413,268.382669 C742.341686,253.925175 681.658379,257.6559 647.580212,256.738675 C561.263471,254.415434 610.314202,260.529211 500.772171,250.640663 C415.197326,242.915674 332.325004,229.460376 247.02425,245.556846 C192.532572,255.839565 134.686527,258.729676 89.9266142,295.348722 C52.9709833,325.582917 32.1473504,376.048276 19.3694022,420.370812 C10.9479954,449.581927 7.84673127,504.165713 6.74330725,526.001223 C3.7646926,584.944631 1.56034196,643.940882 0.66455181,702.952703 C-0.333563331,768.705371 -0.212481365,834.485149 1.06252735,900.23303 C2.45389554,971.981175 6.81125343,1043.64599 8.66257639,1115.38374 C10.6809537,1193.59476 -11.7465809,1266.0511 56.7277514,1315.15463 L102.482101,1330.95169 Z" id="Path-3" fill="#D0F0D3" opacity="0.41"></path>
        </g>
        <ellipse id="Oval-9" fill="#130074" cx="1359.14139" cy="1118.20959" rx="9.80532787" ry="9.80136986"></ellipse>
        <ellipse id="Oval-9" fill="#130074" cx="1386.59631" cy="1131.27808" rx="9.80532787" ry="9.80136986"></ellipse>
        <ellipse id="Oval-9" fill="#130074" cx="1332.99385" cy="1103.83425" rx="9.80532787" ry="9.80136986"></ellipse>
        <ellipse id="Oval-9" fill="#130074" cx="1435.80533" cy="1157.80137" rx="9.80532787" ry="9.80136986"></ellipse>
        <ellipse id="Oval-9" fill="#130074" cx="1412.80533" cy="1144.80137" rx="9.80532787" ry="9.80136986"></ellipse>
        <g id="Group-7" transform="translate(971.000000, 1099.000000)" stroke="#130074" stroke-width="4" fill="#F5F5F5">
            <ellipse id="Oval-9" cx="163.805328" cy="9.80136986" rx="9.80532787" ry="9.80136986"></ellipse>
            <ellipse id="Oval-9" cx="132.805328" cy="24.8013699" rx="9.80532787" ry="9.80136986"></ellipse>
            <ellipse id="Oval-9" cx="94.8053279" cy="42.8013699" rx="9.80532787" ry="9.80136986"></ellipse>
            <ellipse id="Oval-9" cx="52.8053279" cy="60.8013699" rx="9.80532787" ry="9.80136986"></ellipse>
            <ellipse id="Oval-9" cx="9.80532787" cy="80.8013699" rx="9.80532787" ry="9.80136986"></ellipse>
        </g>
        <g id="Group-7" transform="translate(530.000000, 1277.000000)" stroke="#130074" stroke-width="4" fill="#F5F5F5">
            <ellipse id="Oval-9" cx="189.805328" cy="9.80136986" rx="9.80532787" ry="9.80136986"></ellipse>
            <ellipse id="Oval-9" cx="154.805328" cy="22.8013699" rx="9.80532787" ry="9.80136986"></ellipse>
            <ellipse id="Oval-9" cx="110.805328" cy="40.8013699" rx="9.80532787" ry="9.80136986"></ellipse>
            <ellipse id="Oval-9" cx="59.8053279" cy="59.8013699" rx="9.80532787" ry="9.80136986"></ellipse>
            <ellipse id="Oval-9" cx="9.80532787" cy="80.8013699" rx="9.80532787" ry="9.80136986"></ellipse>
        </g>
        <rect id="Rectangle-18" fill="#FD8180" x="743" y="648" width="27" height="378"></rect>
        <rect id="Rectangle-18" fill="#FD8180" x="693" y="671" width="27" height="378"></rect>
        <rect id="Rectangle-18" fill="#FD8180" x="643" y="700" width="27" height="378"></rect>
        <rect id="Rectangle-18" fill="#FD8180" x="593" y="726" width="27" height="378"></rect>
        <rect id="Rectangle-18" fill="#FD8180" x="541" y="872" width="27" height="378"></rect>
        <rect id="Rectangle-18" fill="#FD8180" x="491" y="932" width="27" height="378"></rect>
        <g id="HELIX" transform="translate(1067.000000, 150.000000)">
            <g id="Group-6" transform="translate(2.000000, 61.000000)">
                <ellipse id="Oval-9" fill="#F5F5F5" cx="288.891393" cy="10.2232877" rx="9.80532787" ry="9.80136986"></ellipse>
                <ellipse id="Oval-9" fill="#F5F5F5" cx="304.579918" cy="33.7465753" rx="9.80532787" ry="9.80136986"></ellipse>
                <ellipse id="Oval-9" fill="#F5F5F5" cx="269.280738" cy="53.3493151" rx="9.80532787" ry="9.80136986"></ellipse>
                <ellipse id="Oval-9" fill="#F5F5F5" cx="232.67418" cy="70.3383562" rx="9.80532787" ry="9.80136986"></ellipse>
                <ellipse id="Oval-9" fill="#F5F5F5" cx="192.145492" cy="88.6342466" rx="9.80532787" ry="9.80136986"></ellipse>
                <ellipse id="Oval-9" fill="#F5F5F5" cx="150.309426" cy="106.930137" rx="9.80532787" ry="9.80136986"></ellipse>
                <ellipse id="Oval-9" fill="#F5F5F5" cx="111.088115" cy="126.532877" rx="9.80532787" ry="9.80136986"></ellipse>
                <ellipse id="Oval-9" fill="#F5F5F5" cx="74.4815574" cy="150.056164" rx="9.80532787" ry="9.80136986"></ellipse>
                <ellipse id="Oval-9" fill="#F5F5F5" cx="43.1045082" cy="174.886301" rx="9.80532787" ry="9.80136986"></ellipse>
                <ellipse id="Oval-9" fill="#F5F5F5" cx="20.8790984" cy="204.943836" rx="9.80532787" ry="9.80136986"></ellipse>
                <ellipse id="Oval-9" fill="#F5F5F5" cx="10.420082" cy="242.842466" rx="9.80532787" ry="9.80136986"></ellipse>
                <ellipse id="Oval-9" fill="#F5F5F5" cx="16.9569672" cy="284.661644" rx="9.80532787" ry="9.80136986"></ellipse>
                <ellipse id="Oval-9" fill="#F5F5F5" cx="39.182377" cy="316.026027" rx="9.80532787" ry="9.80136986"></ellipse>
                <ellipse id="Oval-9" fill="#F5F5F5" cx="69.2520492" cy="339.549315" rx="9.80532787" ry="9.80136986"></ellipse>
                <ellipse id="Oval-9" fill="#F5F5F5" cx="100.629098" cy="361.765753" rx="9.80532787" ry="9.80136986"></ellipse>
                <ellipse id="Oval-9" fill="#F5F5F5" cx="137.235656" cy="380.061644" rx="9.80532787" ry="9.80136986"></ellipse>
                <ellipse id="Oval-9" fill="#F5F5F5" cx="169.920082" cy="399.664384" rx="9.80532787" ry="9.80136986"></ellipse>
                <ellipse id="Oval-9" fill="#F5F5F5" cx="201.297131" cy="417.960274" rx="9.80532787" ry="9.80136986"></ellipse>
                <ellipse id="Oval-9" fill="#F5F5F5" cx="232.67418" cy="434.949315" rx="9.80532787" ry="9.80136986"></ellipse>
                <ellipse id="Oval-9" fill="#F5F5F5" cx="262.743852" cy="451.938356" rx="9.80532787" ry="9.80136986"></ellipse>
                <ellipse id="Oval-9" fill="#F5F5F5" cx="294.120902" cy="471.541096" rx="9.80532787" ry="9.80136986"></ellipse>
                <ellipse id="Oval-9" fill="#F5F5F5" cx="305.887295" cy="498.984932" rx="9.80532787" ry="9.80136986"></ellipse>
                <ellipse id="Oval-9" fill="#F5F5F5" cx="307.194672" cy="530.349315" rx="9.80532787" ry="9.80136986"></ellipse>
                <ellipse id="Oval-9" fill="#F5F5F5" cx="288.891393" cy="556.486301" rx="9.80532787" ry="9.80136986"></ellipse>
                <ellipse id="Oval-9" fill="#F5F5F5" cx="262.743852" cy="574.782192" rx="9.80532787" ry="9.80136986"></ellipse>
                <ellipse id="Oval-9" fill="#F5F5F5" cx="232.67418" cy="590.464384" rx="9.80532787" ry="9.80136986"></ellipse>
                <ellipse id="Oval-9" fill="#F5F5F5" cx="201.297131" cy="604.839726" rx="9.80532787" ry="9.80136986"></ellipse>
                <ellipse id="Oval-9" fill="#F5F5F5" cx="169.920082" cy="619.215068" rx="9.80532787" ry="9.80136986"></ellipse>
                <ellipse id="Oval-9" fill="#F5F5F5" cx="141.157787" cy="633.590411" rx="9.80532787" ry="9.80136986"></ellipse>
                <ellipse id="Oval-9" fill="#F5F5F5" cx="112.395492" cy="647.965753" rx="9.80532787" ry="9.80136986"></ellipse>
                <ellipse id="Oval-9" fill="#F5F5F5" cx="83.6331967" cy="662.341096" rx="9.80532787" ry="9.80136986"></ellipse>
                <ellipse id="Oval-9" fill="#F5F5F5" cx="54.8709016" cy="678.023288" rx="9.80532787" ry="9.80136986"></ellipse>
                <ellipse id="Oval-9" fill="#F5F5F5" cx="30.0307377" cy="698.932877" rx="9.80532787" ry="9.80136986"></ellipse>
                <ellipse id="Oval-9" fill="#F5F5F5" cx="10.420082" cy="725.069863" rx="9.80532787" ry="9.80136986"></ellipse>
                <ellipse id="Oval-9" fill="#F5F5F5" cx="22.1864754" cy="757.741096" rx="9.80532787" ry="9.80136986"></ellipse>
                <ellipse id="Oval-9" fill="#F5F5F5" cx="44.4118852" cy="776.036986" rx="9.80532787" ry="9.80136986"></ellipse>
                <ellipse id="Oval-9" fill="#F5F5F5" cx="70.5594262" cy="791.719178" rx="9.80532787" ry="9.80136986"></ellipse>
                <ellipse id="Oval-9" fill="#F5F5F5" cx="99.3217213" cy="806.094521" rx="9.80532787" ry="9.80136986"></ellipse>
                <ellipse id="Oval-9" fill="#F5F5F5" cx="128.084016" cy="821.776712" rx="9.80532787" ry="9.80136986"></ellipse>
                <path d="M120.571886,828.076296 C122.370564,830.217205 125.068301,831.578082 128.084016,831.578082 L128.084016,831.578082 C131.144381,831.578082 133.877281,830.17661 135.675444,827.980694" id="Oval-9" fill="#130074"></path>
                <ellipse id="Oval-9" fill="#130074" cx="155.538934" cy="838.152055" rx="9.80532787" ry="9.80136986"></ellipse>
                <ellipse id="Oval-9" fill="#130074" cx="182.993852" cy="851.834247" rx="9.80532787" ry="9.80136986"></ellipse>
                <ellipse id="Oval-9" fill="#130074" cx="209.141393" cy="866.209589" rx="9.80532787" ry="9.80136986"></ellipse>
                <ellipse id="Oval-9" stroke="#130074" stroke-width="4" fill="#F5F5F5" cx="180.379098" cy="840.072603" rx="9.80532787" ry="9.80136986"></ellipse>
                <ellipse id="Oval-9" fill="#130074" cx="236.596311" cy="879.278082" rx="9.80532787" ry="9.80136986"></ellipse>
                <ellipse id="Oval-9" stroke="#130074" stroke-width="4" fill="#F5F5F5" cx="150.309426" cy="853.141096" rx="9.80532787" ry="9.80136986"></ellipse>
                <ellipse id="Oval-9" stroke="#130074" stroke-width="4" fill="#F5F5F5" cx="121.547131" cy="866.209589" rx="9.80532787" ry="9.80136986"></ellipse>
                <ellipse id="Oval-9" stroke="#130074" stroke-width="4" fill="#F5F5F5" cx="94.0922131" cy="883.19863" rx="9.80532787" ry="9.80136986"></ellipse>
            </g>
            <g id="Group-5" stroke-width="4">
                <ellipse id="Oval-9" stroke="#F5F5F5" cx="166.690574" cy="234.579452" rx="9.80532787" ry="9.80136986"></ellipse>
                <ellipse id="Oval-9" stroke="#F5F5F5" cx="196.760246" cy="250.261644" rx="9.80532787" ry="9.80136986"></ellipse>
                <ellipse id="Oval-9" stroke="#F5F5F5" cx="228.137295" cy="265.943836" rx="9.80532787" ry="9.80136986"></ellipse>
                <ellipse id="Oval-9" stroke="#F5F5F5" cx="256.89959" cy="281.626027" rx="9.80532787" ry="9.80136986"></ellipse>
                <ellipse id="Oval-9" stroke="#F5F5F5" cx="285.661885" cy="297.308219" rx="9.80532787" ry="9.80136986"></ellipse>
                <ellipse id="Oval-9" stroke="#F5F5F5" cx="305.272541" cy="319.524658" rx="9.80532787" ry="9.80136986"></ellipse>
                <ellipse id="Oval-9" stroke="#F5F5F5" cx="306.579918" cy="353.50274" rx="9.80532787" ry="9.80136986"></ellipse>
                <ellipse id="Oval-9" stroke="#F5F5F5" cx="296.120902" cy="383.560274" rx="9.80532787" ry="9.80136986"></ellipse>
                <ellipse id="Oval-9" stroke="#F5F5F5" cx="268.665984" cy="404.469863" rx="9.80532787" ry="9.80136986"></ellipse>
                <ellipse id="Oval-9" stroke="#F5F5F5" cx="239.903689" cy="421.458904" rx="9.80532787" ry="9.80136986"></ellipse>
                <ellipse id="Oval-9" stroke="#F5F5F5" cx="207.219262" cy="437.141096" rx="9.80532787" ry="9.80136986"></ellipse>
                <ellipse id="Oval-9" stroke="#F5F5F5" cx="37.2602459" cy="9.80136986" rx="9.80532787" ry="9.80136986"></ellipse>
                <ellipse id="Oval-9" stroke="#F5F5F5" cx="22.8790984" cy="45.0863014" rx="9.80532787" ry="9.80136986"></ellipse>
                <ellipse id="Oval-9" stroke="#F5F5F5" cx="17.6495902" cy="86.9054795" rx="9.80532787" ry="9.80136986"></ellipse>
                <ellipse id="Oval-9" stroke="#F5F5F5" cx="26.8012295" cy="123.49726" rx="9.80532787" ry="9.80136986"></ellipse>
                <ellipse id="Oval-9" stroke="#F5F5F5" cx="47.7192623" cy="150.941096" rx="9.80532787" ry="9.80136986"></ellipse>
                <ellipse id="Oval-9" stroke="#F5F5F5" cx="73.8668033" cy="175.771233" rx="9.80532787" ry="9.80136986"></ellipse>
                <ellipse id="Oval-9" stroke="#F5F5F5" cx="101.321721" cy="195.373973" rx="9.80532787" ry="9.80136986"></ellipse>
                <ellipse id="Oval-9" stroke="#F5F5F5" cx="136.620902" cy="214.976712" rx="9.80532787" ry="9.80136986"></ellipse>
                <ellipse id="Oval-9" stroke="#F5F5F5" cx="145.772541" cy="465.891781" rx="9.80532787" ry="9.80136986"></ellipse>
                <ellipse id="Oval-9" stroke="#F5F5F5" cx="115.702869" cy="480.267123" rx="9.80532787" ry="9.80136986"></ellipse>
                <ellipse id="Oval-9" stroke="#F5F5F5" cx="86.9405738" cy="493.335616" rx="9.80532787" ry="9.80136986"></ellipse>
                <ellipse id="Oval-9" stroke="#F5F5F5" cx="58.1782787" cy="510.324658" rx="9.80532787" ry="9.80136986"></ellipse>
                <ellipse id="Oval-9" stroke="#F5F5F5" cx="30.7233607" cy="533.847945" rx="9.80532787" ry="9.80136986"></ellipse>
                <ellipse id="Oval-9" stroke="#F5F5F5" cx="9.80532787" cy="559.984932" rx="9.80532787" ry="9.80136986"></ellipse>
                <ellipse id="Oval-9" stroke="#F5F5F5" cx="20.2643443" cy="590.042466" rx="9.80532787" ry="9.80136986"></ellipse>
                <ellipse id="Oval-9" stroke="#F5F5F5" cx="43.7971311" cy="609.645205" rx="9.80532787" ry="9.80136986"></ellipse>
                <ellipse id="Oval-9" stroke="#F5F5F5" cx="71.2520492" cy="626.634247" rx="9.80532787" ry="9.80136986"></ellipse>
                <ellipse id="Oval-9" stroke="#F5F5F5" cx="97.3995902" cy="642.316438" rx="9.80532787" ry="9.80136986"></ellipse>
                <ellipse id="Oval-9" stroke="#F5F5F5" cx="126.161885" cy="659.305479" rx="9.80532787" ry="9.80136986"></ellipse>
                <ellipse id="Oval-9" stroke="#F5F5F5" cx="153.616803" cy="673.680822" rx="9.80532787" ry="9.80136986"></ellipse>
                <ellipse id="Oval-9" stroke="#F5F5F5" cx="181.071721" cy="690.669863" rx="9.80532787" ry="9.80136986"></ellipse>
                <ellipse id="Oval-9" stroke="#F5F5F5" cx="207.219262" cy="706.352055" rx="9.80532787" ry="9.80136986"></ellipse>
                <ellipse id="Oval-9" stroke="#F5F5F5" cx="233.366803" cy="720.727397" rx="9.80532787" ry="9.80136986"></ellipse>
                <ellipse id="Oval-9" stroke="#F5F5F5" cx="260.821721" cy="739.023288" rx="9.80532787" ry="9.80136986"></ellipse>
                <ellipse id="Oval-9" stroke="#F5F5F5" cx="288.276639" cy="756.012329" rx="9.80532787" ry="9.80136986"></ellipse>
                <ellipse id="Oval-9" stroke="#F5F5F5" cx="305.272541" cy="778.228767" rx="9.80532787" ry="9.80136986"></ellipse>
                <ellipse id="Oval-9" stroke="#F5F5F5" cx="305.272541" cy="810.9" rx="9.80532787" ry="9.80136986"></ellipse>
                <ellipse id="Oval-9" stroke="#F5F5F5" cx="293.506148" cy="838.343836" rx="9.80532787" ry="9.80136986"></ellipse>
                <ellipse id="Oval-9" stroke="#F5F5F5" cx="267.358607" cy="857.946575" rx="9.80532787" ry="9.80136986"></ellipse>
                <ellipse id="Oval-9" stroke="#F5F5F5" cx="239.903689" cy="873.628767" rx="9.80532787" ry="9.80136986"></ellipse>
                <ellipse id="Oval-9" stroke="#F5F5F5" cx="209.834016" cy="888.00411" rx="9.80532787" ry="9.80136986"></ellipse>
                <path d="M200.028689,888.00411 C200.028689,893.417257 204.418683,897.805479 209.834016,897.805479 L209.834016,897.805479 C215.249349,897.805479 219.639344,893.417257 219.639344,888.00411" id="Oval-9" stroke="#130074" fill="#F5F5F5"></path>
                <ellipse id="Oval-9" stroke="#F5F5F5" fill="#130074" cx="177.14959" cy="450.209589" rx="9.80532787" ry="9.80136986"></ellipse>
            </g>
        </g>
        <g id="Group-7" transform="translate(750.000000, 1190.000000)" stroke="#130074" stroke-width="4" fill="#F5F5F5">
            <ellipse id="Oval-9" cx="183.805328" cy="9.80136986" rx="9.80532787" ry="9.80136986"></ellipse>
            <ellipse id="Oval-9" cx="140.805328" cy="28.8013699" rx="9.80532787" ry="9.80136986"></ellipse>
            <ellipse id="Oval-9" cx="96.8053279" cy="46.8013699" rx="9.80532787" ry="9.80136986"></ellipse>
            <ellipse id="Oval-9" cx="50.8053279" cy="65.8013699" rx="9.80532787" ry="9.80136986"></ellipse>
            <ellipse id="Oval-9" cx="9.80532787" cy="81.8013699" rx="9.80532787" ry="9.80136986"></ellipse>
        </g>
    </g>
</svg>