<svg width="344" height="59" viewBox="0 0 344 59" xmlns="http://www.w3.org/2000/svg">
  <g fill="none" fill-rule="evenodd">
    <path fill="#FD8180" d="M.2002 27.5908L7.726 17.405v30.5572L.2 58.148"/>
    <path fill="#00F0FF" d="M7.726 17.405L26.5403 27.591v30.8967L7.726 47.9622"/>
    <path fill="#00AEFF" d="M26.5404 27.5908L34.066 17.405v30.5572l-7.5256 10.5253"/>
    <path fill="#FD8180" d="M41.6352 17.405h33.07v27.162h-33.07z"/>
    <path fill="#00F0FF" d="M37.9607 27.5908l3.6745-10.1857V46.146l-3.6745 11.7655"/>
    <path fill="#00AEFF" d="M37.9607 27.5908h33.07V58.148h-33.07z"/>
    <path fill="#00F0FF" d="M71.0308 27.7733l3.6744-10.3682v30.5572l-3.6744 10.1316"/>
    <g>
      <path fill="#FD8180" d="M81.4784 27.5908L85.561 17.405v30.5572L81.4785 58.148"/>
      <path fill="#00AEFF" d="M85.561 17.405h32.662l-4.0828 10.1858H81.4784M85.561 47.9622h32.662l-4.0828 10.1857H81.4784"/>
      <path fill="#FD8180" d="M114.1402 43.3786l4.064-9.817V47.962L114.14 58.148"/>
      <path fill="#00F0FF" d="M101.892 33.5325h16.331l-4.0828 9.846h-16.331"/>
    </g>
    <g>
      <path fill="#693D3D" d="M142.7005 27.5908l4.0827-10.1857 12.2293 30.5282-4.0638 10.1857"/>
      <path fill="#FD8180" d="M129.206 27.5908l5.329-10.3555-4.0827 30.727-8.1654 10.1856"/>
      <path fill="#00F0FF" d="M132.258 34.551h20.538l-1.714 10.1857H125.34M134.535 17.405h12.2482l-4.0827 10.1858h-13.4942"/>
      <path fill="#00AEFF" d="M142.7005 27.5908l4.0827-10.1857 12.2293 30.5282-4.0638 10.1857"/>
    </g>
    <g>
      <path fill="#FD8180" d="M226.2572 27.66l4.2333-10.1858v30.557l-4.2333 10.1858"/>
      <path fill="#00AEFF" d="M230.4905 17.4742h25.4414L251.7633 27.66h-25.5062M230.4905 48.0313h33.866L260.123 58.217h-33.8658"/>
      <path fill="#FD8180" d="M260.123 43.4477l4.2138-9.817v14.4006L260.123 58.217"/>
      <path fill="#00F0FF" d="M230.4044 33.6016h33.952l-4.2333 9.846h-33.8184"/>
      <path fill="#FD8180" d="M251.6567 27.7137l4.2136-10.2395v16.1083l-4.2136 9.8216"/>
      <g>
        <path fill="#00AEFF" d="M175.6276 27.3204l8.4665-10.3555v30.7268l-8.4664 10.5252"/>
        <path fill="#FD8180" d="M175.6276 10.3442L184.094.1584v12.902l-8.4664 10.8106"/>
      </g>
      <g>
        <path fill="#FD8180" d="M307.5915 27.49l4.034-10.1856v30.5572l-4.034 10.1857"/>
        <path fill="#00AEFF" d="M311.6255 17.3044h23.468L330.5852 27.66h-23.0823M330.585 43.2836l4.5226-9.7688 8.4734 14.177-3.979 10.5252"/>
        <path fill="#00F0FF" d="M311.5435 33.4318h23.55l-4.5084 9.8462h-22.9483"/>
        <path fill="#FD8180" d="M330.585 27.66l4.5086-10.3556v16.25l-4.5085 9.8686"/>
      </g>
      <g>
        <path fill="#693D3D" d="M286.9713 27.49l4.0827-10.1856 12.2293 30.528-4.0638 10.1858"/>
        <path fill="#FD8180" d="M273.4767 27.49l5.329-10.3554-4.0826 30.727-8.1653 10.1857"/>
        <path fill="#00F0FF" d="M276.5287 34.4504h20.538l-1.714 10.1857H269.611M278.8058 17.3044h12.2482L286.9713 27.49H273.477"/>
        <path fill="#00AEFF" d="M286.9713 27.49l4.0827-10.1856 12.2293 30.528-4.0638 10.1858"/>
      </g>
      <g>
        <path fill="#FD8180" d="M188.666 27.3204l7.5258-10.1858v30.5572l-7.5258 10.1857"/>
        <path fill="#00F0FF" d="M196.1918 17.1346l18.8144 10.1858V58.217l-18.8144-10.5252"/>
        <path fill="#00AEFF" d="M215.0062 27.3204l7.5258-10.1858v30.5572l-7.5258 10.5252"/>
      </g>
    </g>
  </g>
</svg>
