<svg xmlns="http://www.w3.org/2000/svg" width="3008" height="3008" style="background:#2a3053" viewBox="0 0 3008 3008">
  <g fill="none" fill-rule="evenodd" transform="translate(392 846)">
    <g transform="translate(0 898)">
      <path fill="#FFF" d="M428.060884,334 L428.060884,124.507812 L548.095064,124.507812 L548.095064,136.163086 L441.078462,136.163086 L441.078462,216.236328 L533.412446,216.236328 L533.412446,228.042969 L441.078462,228.042969 L441.078462,322.193359 L548.095064,322.193359 L548.095064,334 L428.060884,334 Z M655.064093,334 L584.981085,334 L584.981085,322.193359 L613.589483,322.193359 L613.589483,136.163086 L584.981085,136.163086 L584.981085,124.507812 L655.064093,124.507812 L655.064093,136.163086 L626.607061,136.163086 L626.607061,322.193359 L655.064093,322.193359 L655.064093,334 Z M834.083903,167.798828 C831.157456,161.643198 827.903094,156.3454 824.320719,151.905273 C820.738345,147.465147 816.626244,143.807143 811.984294,140.931152 C807.342343,138.055161 802.145455,135.936042 796.393473,134.57373 C790.641491,133.211419 784.132767,132.530273 776.867106,132.530273 C764.555847,132.530273 754.06116,134.548482 745.382731,138.584961 C736.704302,142.621439 729.615343,148.676066 724.115641,156.749023 C718.615939,164.82198 714.604749,174.86257 712.08195,186.871094 C709.559151,198.879617 708.29777,212.805259 708.29777,228.648438 C708.29777,244.087968 709.584378,257.862244 712.157633,269.97168 C714.730888,282.081115 718.918672,292.273071 724.72111,300.547852 C730.523548,308.822633 738.117059,315.129536 747.501872,319.46875 C756.886684,323.807964 768.390475,325.977539 782.01359,325.977539 C786.453717,325.977539 790.742411,325.725263 794.879801,325.220703 C799.017192,324.716143 803.129293,323.959315 807.216227,322.950195 C811.303162,321.941076 815.465718,320.654467 819.70402,319.090332 C823.942323,317.526197 828.331927,315.684581 832.872965,313.56543 L832.872965,245.601562 L772.174723,245.601562 L772.174723,233.794922 L845.890544,233.794922 L845.890544,321.587891 C840.03765,324.413426 834.689396,326.860504 829.845622,328.929199 C825.001847,330.997894 820.132918,332.7386 815.238688,334.151367 C810.344458,335.564135 805.172797,336.623694 799.723551,337.330078 C794.274305,338.036462 787.967402,338.389648 780.802653,338.389648 C764.253091,338.389648 750.428359,335.690294 739.328044,330.291504 C728.227728,324.892714 719.32238,317.299203 712.611735,307.510742 C705.901089,297.722282 701.133071,286.092353 698.307536,272.620605 C695.482001,259.148858 694.069254,244.289795 694.069254,228.042969 C694.069254,211.392495 695.532456,196.382066 698.458903,183.01123 C701.38535,169.640395 706.153369,158.313197 712.763102,149.029297 C719.372836,139.745396 728.025907,132.605982 738.722575,127.61084 C749.419243,122.615698 762.537601,120.118164 778.078044,120.118164 C787.059208,120.118164 795.056361,121.026358 802.069743,122.842773 C809.083124,124.659189 815.314344,127.308088 820.76359,130.789551 C826.212836,134.271014 831.006083,138.584935 835.143473,143.731445 C839.280864,148.877955 842.964095,154.730761 846.193278,161.290039 L834.083903,167.798828 Z M1029.3,334 L1029.3,231.373047 L920.769729,231.373047 L920.769729,334 L907.752151,334 L907.752151,124.507812 L920.769729,124.507812 L920.769729,219.566406 L1029.3,219.566406 L1029.3,124.507812 L1042.31758,124.507812 L1042.31758,334 L1029.3,334 Z M1240.86376,271.939453 C1240.86376,282.837945 1239.19874,292.197389 1235.86864,300.018066 C1232.53855,307.838744 1227.61916,314.271785 1221.11034,319.317383 C1214.60152,324.362981 1206.57914,328.07144 1197.04296,330.442871 C1187.50678,332.814302 1176.48231,334 1163.96923,334 L1106.29833,334 L1106.29833,124.507812 L1164.27196,124.507812 C1175.97775,124.507812 1185.79129,125.491689 1193.71288,127.459473 C1201.63447,129.427256 1208.01705,132.378887 1212.86083,136.314453 C1217.7046,140.25002 1221.16079,145.118949 1223.22948,150.921387 C1225.29818,156.723825 1226.33251,163.409142 1226.33251,170.977539 C1226.33251,183.692446 1223.78452,193.960085 1218.68846,201.780762 C1213.59241,209.601439 1205.39344,215.429017 1194.0913,219.263672 C1200.44875,220.17188 1206.45292,221.887357 1212.10399,224.410156 C1217.75506,226.932955 1222.7249,230.338683 1227.01366,234.627441 C1231.30242,238.9162 1234.68292,244.138316 1237.15526,250.293945 C1239.6276,256.449575 1240.86376,263.664672 1240.86376,271.939453 Z M1211.95263,174.004883 C1211.95263,167.243781 1211.1958,161.466658 1209.68212,156.67334 C1208.16844,151.880022 1205.36817,147.969742 1201.28124,144.942383 C1197.1943,141.915024 1191.56855,139.694994 1184.4038,138.282227 C1177.23905,136.869459 1167.95529,136.163086 1156.55223,136.163086 L1119.31591,136.163086 L1119.31591,216.841797 L1155.3413,216.841797 C1174.21183,216.841797 1188.36452,213.511752 1197.79979,206.851562 C1207.23506,200.191373 1211.95263,189.242589 1211.95263,174.004883 Z M1226.63524,273.301758 C1226.63524,263.311473 1224.99545,255.364776 1221.71581,249.461426 C1218.43617,243.558076 1213.92043,239.067561 1208.16845,235.989746 C1202.41646,232.911931 1195.57978,230.91895 1187.65819,230.010742 C1179.7366,229.102535 1171.13399,228.648438 1161.85009,228.648438 L1119.31591,228.648438 L1119.31591,322.193359 L1157.46044,322.193359 C1168.9644,322.193359 1179.03022,321.461759 1187.65819,319.998535 C1196.28616,318.535312 1203.47603,315.936868 1209.22802,312.203125 C1214.98,308.469382 1219.31915,303.449088 1222.24559,297.14209 C1225.17204,290.835092 1226.63524,282.888394 1226.63524,273.301758 Z M1444.55642,229.253906 C1444.55642,246.005292 1443.14367,261.116632 1440.31814,274.588379 C1437.4926,288.060126 1432.92641,299.513462 1426.61941,308.94873 C1420.31241,318.383999 1412.06298,325.649551 1401.87087,330.745605 C1391.67876,335.84166 1379.16587,338.389648 1364.33181,338.389648 C1349.59866,338.389648 1337.13622,335.816432 1326.94412,330.669922 C1316.75201,325.523412 1308.47735,318.232632 1302.1199,308.797363 C1295.76244,299.362095 1291.17102,287.908759 1288.34548,274.437012 C1285.51995,260.965265 1284.1072,245.90438 1284.1072,229.253906 C1284.1072,212.704344 1285.51995,197.693915 1288.34548,184.222168 C1291.17102,170.750421 1295.76244,159.271857 1302.1199,149.786133 C1308.47735,140.300408 1316.75201,132.984401 1326.94412,127.837891 C1337.13622,122.691381 1349.59866,120.118164 1364.33181,120.118164 C1379.16587,120.118164 1391.67876,122.666153 1401.87087,127.762207 C1412.06298,132.858261 1420.31241,140.123814 1426.61941,149.559082 C1432.92641,158.994351 1437.4926,170.447687 1440.31814,183.919434 C1443.14367,197.391181 1444.55642,212.50252 1444.55642,229.253906 Z M1430.3279,229.253906 C1430.3279,213.814376 1429.19266,200.090555 1426.92214,188.082031 C1424.65162,176.073508 1420.91794,165.957235 1415.72097,157.73291 C1410.524,149.508585 1403.71255,143.252137 1395.2864,138.963379 C1386.86025,134.67462 1376.54216,132.530273 1364.33181,132.530273 C1352.02055,132.530273 1341.67723,134.624165 1333.30154,138.812012 C1324.92584,142.999858 1318.13962,149.180623 1312.94265,157.354492 C1307.74568,165.528361 1304.012,175.644634 1301.74148,187.703613 C1299.47096,199.762593 1298.33572,213.612552 1298.33572,229.253906 C1298.33572,244.491613 1299.47096,258.114523 1301.74148,270.123047 C1304.012,282.13157 1307.72046,292.273071 1312.86697,300.547852 C1318.01348,308.822633 1324.7997,315.129536 1333.22585,319.46875 C1341.652,323.807964 1352.02055,325.977539 1364.33181,325.977539 C1376.54216,325.977539 1386.86025,323.833192 1395.2864,319.544434 C1403.71255,315.255675 1410.524,308.974 1415.72097,300.699219 C1420.91794,292.424438 1424.65162,282.308165 1426.92214,270.350098 C1429.19266,258.39203 1430.3279,244.693437 1430.3279,229.253906 Z M1640.07525,246.509766 C1640.07525,263.866623 1638.81387,278.422956 1636.29107,290.179199 C1633.76827,301.935443 1629.70663,311.421025 1624.10602,318.63623 C1618.5054,325.851436 1611.21462,330.997869 1602.23346,334.075684 C1593.25229,337.153498 1582.30351,338.692383 1569.38678,338.692383 C1555.36001,338.692383 1543.73008,337.052588 1534.49664,333.772949 C1525.2632,330.49331 1517.89673,325.195512 1512.39703,317.879395 C1506.89733,310.563277 1503.0375,301.052467 1500.81744,289.34668 C1498.59738,277.640892 1497.48736,263.362063 1497.48736,246.509766 L1497.48736,124.507812 L1510.50494,124.507812 L1510.50494,243.482422 C1510.50494,259.83016 1511.41314,273.377388 1513.22955,284.124512 C1515.04597,294.871636 1518.19942,303.398569 1522.69,309.705566 C1527.18058,316.012564 1533.18475,320.452624 1540.70269,323.025879 C1548.22064,325.599134 1557.68099,326.885742 1569.08404,326.885742 C1580.28527,326.885742 1589.61949,325.649589 1597.08697,323.177246 C1604.55446,320.704903 1610.50817,316.315298 1614.9483,310.008301 C1619.38843,303.701303 1622.51665,295.224825 1624.33307,284.578613 C1626.14948,273.932401 1627.05768,260.435629 1627.05768,244.087891 L1627.05768,124.507812 L1640.07525,124.507812 L1640.07525,246.509766 Z M1820.91147,334 L1767.02475,242.271484 L1715.55991,242.271484 L1715.55991,334 L1702.54233,334 L1702.54233,124.507812 L1756.42905,124.507812 C1767.73119,124.507812 1777.62041,125.542145 1786.09702,127.61084 C1794.57362,129.679535 1801.66258,132.984352 1807.36411,137.525391 C1813.06563,142.066429 1817.3291,147.96969 1820.15463,155.235352 C1822.98017,162.501013 1824.39292,171.330677 1824.39292,181.724609 C1824.39292,190.705774 1823.48472,198.475879 1821.66831,205.035156 C1819.85189,211.594434 1817.10208,217.220191 1813.41879,221.912598 C1809.73551,226.605004 1805.11885,230.414373 1799.5687,233.34082 C1794.01854,236.267267 1787.50981,238.487297 1780.04233,240.000977 L1837.10776,334 L1820.91147,334 Z M1810.1644,181.421875 C1810.1644,173.752566 1809.30666,167.067249 1807.59116,161.365723 C1805.87565,155.664197 1802.94925,150.946633 1798.81186,147.212891 C1794.67447,143.479148 1789.14962,140.704111 1782.23715,138.887695 C1775.32468,137.07128 1766.62116,136.163086 1756.12631,136.163086 L1715.55991,136.163086 L1715.55991,230.464844 L1756.12631,230.464844 C1766.52025,230.464844 1775.17332,229.55665 1782.08579,227.740234 C1788.99826,225.923819 1794.54833,223.047871 1798.73618,219.112305 C1802.92402,215.176738 1805.87565,210.105988 1807.59116,203.899902 C1809.30666,197.693817 1810.1644,190.201216 1810.1644,181.421875 Z M2012.34339,281.324219 C2012.34339,291.516327 2010.55223,300.219853 2006.96985,307.435059 C2003.38748,314.650264 1998.44287,320.553525 1992.13587,325.14502 C1985.82887,329.736514 1978.43718,333.091786 1969.96058,335.210938 C1961.48397,337.330089 1952.35158,338.389648 1942.56312,338.389648 C1932.2701,338.389648 1923.23861,337.330089 1915.46839,335.210938 C1907.69817,333.091786 1900.88671,330.140156 1895.03382,326.355957 C1889.18093,322.571758 1884.11018,318.056016 1879.82142,312.808594 C1875.53266,307.561172 1871.67283,301.809276 1868.24183,295.552734 L1880.65394,289.34668 C1882.47035,293.48407 1885.01834,297.722309 1888.29798,302.061523 C1891.57762,306.400738 1895.66449,310.336245 1900.55872,313.868164 C1905.45295,317.400083 1911.20485,320.301258 1917.81458,322.571777 C1924.42431,324.842297 1931.96737,325.977539 1940.44398,325.977539 C1949.52605,325.977539 1957.64934,325.044117 1964.81409,323.177246 C1971.97884,321.310375 1978.0587,318.51011 1983.05384,314.776367 C1988.04898,311.042625 1991.85835,306.400744 1994.48206,300.850586 C1997.10577,295.300428 1998.41761,288.791704 1998.41761,281.324219 C1998.41761,274.764941 1997.61033,269.088728 1995.99573,264.29541 C1994.38114,259.502092 1991.40428,255.213398 1987.06507,251.429199 C1982.72586,247.645001 1976.77214,244.239273 1969.20374,241.211914 C1961.63534,238.184555 1951.94794,235.106786 1940.14124,231.978516 C1926.3163,228.446597 1915.06479,225.015642 1906.38636,221.685547 C1897.70793,218.355452 1890.87125,214.621765 1885.8761,210.484375 C1880.88096,206.346985 1877.47523,201.528511 1875.65882,196.028809 C1873.8424,190.529107 1872.93421,183.843789 1872.93421,175.972656 C1872.93421,167.798787 1874.27127,160.280959 1876.94544,153.418945 C1879.61961,146.556932 1883.65603,140.678898 1889.05482,135.784668 C1894.45361,130.890438 1901.23983,127.055841 1909.4137,124.280762 C1917.58757,121.505683 1927.22452,120.118164 1938.32484,120.118164 C1954.16801,120.118164 1967.56388,123.372526 1978.51282,129.881348 C1989.46177,136.390169 1998.56894,145.749613 2005.8346,157.959961 L1993.72523,165.074219 C1991.20243,160.53318 1988.27602,156.269714 1984.94593,152.283691 C1981.61583,148.297669 1977.73078,144.841486 1973.29066,141.915039 C1968.85053,138.988592 1963.80501,136.692879 1958.15394,135.027832 C1952.50287,133.362785 1946.09505,132.530273 1938.9303,132.530273 C1929.84823,132.530273 1922.0529,133.564606 1915.54407,135.633301 C1909.03525,137.701996 1903.66177,140.628399 1899.42347,144.412598 C1895.18517,148.196796 1892.08217,152.762994 1890.11439,158.111328 C1888.1466,163.459662 1887.16273,169.413379 1887.16273,175.972656 C1887.16273,181.926462 1887.79342,186.921529 1889.05482,190.958008 C1890.31622,194.994486 1892.96511,198.55158 1897.00159,201.629395 C1901.03807,204.707209 1906.78997,207.583157 1914.25745,210.257324 C1921.72494,212.931491 1931.61416,215.832667 1943.92542,218.960938 C1955.83303,222.089208 1966.10067,225.34357 1974.72864,228.724121 C1983.35662,232.104672 1990.44558,236.14109 1995.99573,240.833496 C2001.54589,245.525902 2005.65799,251.126432 2008.33216,257.635254 C2011.00633,264.144076 2012.34339,272.040318 2012.34339,281.324219 Z"/>
      <g stroke="#FFF" transform="translate(215 119)">
        <polyline stroke-width="13" points="0 217.966 0 .5 72.44 30.341 72.44 245.501 142.456 215.605 142.456 3.786"/>
        <g stroke-width="3" transform="matrix(-1 0 0 1 54.464 28.941)">
          <path d="M8.18,2.39589597 L8.19152148,2.38190429 L8.18,2.42582624 L8.18,2.39589597 Z M8.01589119,3.05143868 L1.5,27.8911931 L1.5,28.5126999 L8.18,25.3872509 L8.18,2.97225075 L8.01589119,3.05143868 Z" transform="translate(0 11.576)"/>
          <path d="M8.18,2.39589597 L8.19152148,2.38190429 L8.18,2.42582624 L8.18,2.39589597 Z M8.01589119,3.05143868 L1.5,27.8911931 L1.5,28.5126999 L8.18,25.3872509 L8.18,2.97225075 L8.01589119,3.05143868 Z" transform="translate(23.232)"/>
        </g>
        <g stroke-width="3" transform="matrix(-1 0 0 1 54.464 83.93)">
          <path d="M8.18,2.39589597 L8.19152148,2.38190429 L8.18,2.42582624 L8.18,2.39589597 Z M8.01589119,3.05143868 L1.5,27.8911931 L1.5,28.5126999 L8.18,25.3872509 L8.18,2.97225075 L8.01589119,3.05143868 Z" transform="translate(0 11.576)"/>
          <path d="M8.18,2.39589597 L8.19152148,2.38190429 L8.18,2.42582624 L8.18,2.39589597 Z M8.01589119,3.05143868 L1.5,27.8911931 L1.5,28.5126999 L8.18,25.3872509 L8.18,2.97225075 L8.01589119,3.05143868 Z" transform="translate(23.232)"/>
        </g>
        <g stroke-width="3" transform="matrix(-1 0 0 1 54.464 142.776)">
          <path d="M8.18,2.39589597 L8.19152148,2.38190429 L8.18,2.42582624 L8.18,2.39589597 Z M8.01589119,3.05143868 L1.5,27.8911931 L1.5,28.5126999 L8.18,25.3872509 L8.18,2.97225075 L8.01589119,3.05143868 Z" transform="translate(0 11.576)"/>
          <path d="M8.18,2.39589597 L8.19152148,2.38190429 L8.18,2.42582624 L8.18,2.39589597 Z M8.01589119,3.05143868 L1.5,27.8911931 L1.5,28.5126999 L8.18,25.3872509 L8.18,2.97225075 L8.01589119,3.05143868 Z" transform="translate(23.232)"/>
        </g>
        <g stroke-width="3" transform="translate(92.568 28.941)">
          <path d="M8.18,2.39589597 L8.19152148,2.38190429 L8.18,2.42582624 L8.18,2.39589597 Z M8.01589119,3.05143868 L1.5,27.8911931 L1.5,28.5126999 L8.18,25.3872509 L8.18,2.97225075 L8.01589119,3.05143868 Z" transform="translate(0 11.576)"/>
          <path d="M8.18,2.39589597 L8.19152148,2.38190429 L8.18,2.42582624 L8.18,2.39589597 Z M8.01589119,3.05143868 L1.5,27.8911931 L1.5,28.5126999 L8.18,25.3872509 L8.18,2.97225075 L8.01589119,3.05143868 Z" transform="translate(23.232)"/>
        </g>
        <g stroke-width="3" transform="translate(92.568 83.93)">
          <path d="M8.18,2.39589597 L8.19152148,2.38190429 L8.18,2.42582624 L8.18,2.39589597 Z M8.01589119,3.05143868 L1.5,27.8911931 L1.5,28.5126999 L8.18,25.3872509 L8.18,2.97225075 L8.01589119,3.05143868 Z" transform="translate(0 11.576)"/>
          <path d="M8.18,2.39589597 L8.19152148,2.38190429 L8.18,2.42582624 L8.18,2.39589597 Z M8.01589119,3.05143868 L1.5,27.8911931 L1.5,28.5126999 L8.18,25.3872509 L8.18,2.97225075 L8.01589119,3.05143868 Z" transform="translate(23.232)"/>
        </g>
        <g stroke-width="3" transform="translate(92.568 142.776)">
          <path d="M8.18,2.39589597 L8.19152148,2.38190429 L8.18,2.42582624 L8.18,2.39589597 Z M8.01589119,3.05143868 L1.5,27.8911931 L1.5,28.5126999 L8.18,25.3872509 L8.18,2.97225075 L8.01589119,3.05143868 Z" transform="translate(0 11.576)"/>
          <path d="M8.18,2.39589597 L8.19152148,2.38190429 L8.18,2.42582624 L8.18,2.39589597 Z M8.01589119,3.05143868 L1.5,27.8911931 L1.5,28.5126999 L8.18,25.3872509 L8.18,2.97225075 L8.01589119,3.05143868 Z" transform="translate(23.232)"/>
        </g>
      </g>
    </g>
    <g stroke="#FFF" transform="translate(849)">
      <polyline stroke-width="20" points="0 796.649 0 .553 265.078 109.795 265.078 897.451 521.287 788.009 521.287 12.581"/>
      <g stroke-width="10" transform="matrix(-1 0 0 1 199.299 105.948)">
        <path d="M28.9170835,9.54881395 L5,100.762856 L5,103.872403 L30.4217792,91.9730895 L30.4217792,8.82244747 L28.9170835,9.54881395 Z" transform="translate(0 42.379)"/>
        <path d="M28.9170835,9.54881395 L5,100.762856 L5,103.872403 L30.4217792,91.9730895 L30.4217792,8.82244747 L28.9170835,9.54881395 Z" transform="translate(85.012)"/>
      </g>
      <g stroke-width="10" transform="matrix(-1 0 0 1 199.299 307.248)">
        <path d="M28.9170835,9.54881395 L5,100.762856 L5,103.872403 L30.4217792,91.9730895 L30.4217792,8.82244747 L28.9170835,9.54881395 Z" transform="translate(0 42.379)"/>
        <path d="M28.9170835,9.54881395 L5,100.762856 L5,103.872403 L30.4217792,91.9730895 L30.4217792,8.82244747 L28.9170835,9.54881395 Z" transform="translate(85.012)"/>
      </g>
      <g stroke-width="10" transform="matrix(-1 0 0 1 199.299 522.675)">
        <path d="M28.9170835,9.54881395 L5,100.762856 L5,103.872403 L30.4217792,91.9730895 L30.4217792,8.82244747 L28.9170835,9.54881395 Z" transform="translate(0 42.379)"/>
        <path d="M28.9170835,9.54881395 L5,100.762856 L5,103.872403 L30.4217792,91.9730895 L30.4217792,8.82244747 L28.9170835,9.54881395 Z" transform="translate(85.012)"/>
      </g>
      <g stroke-width="10" transform="translate(338.732 105.948)">
        <path d="M28.9170835,9.54881395 L5,100.762856 L5,103.872403 L30.4217792,91.9730895 L30.4217792,8.82244747 L28.9170835,9.54881395 Z" transform="translate(0 42.379)"/>
        <path d="M28.9170835,9.54881395 L5,100.762856 L5,103.872403 L30.4217792,91.9730895 L30.4217792,8.82244747 L28.9170835,9.54881395 Z" transform="translate(85.012)"/>
      </g>
      <g stroke-width="10" transform="translate(338.732 307.248)">
        <path d="M28.9170835,9.54881395 L5,100.762856 L5,103.872403 L30.4217792,91.9730895 L30.4217792,8.82244747 L28.9170835,9.54881395 Z" transform="translate(0 42.379)"/>
        <path d="M28.9170835,9.54881395 L5,100.762856 L5,103.872403 L30.4217792,91.9730895 L30.4217792,8.82244747 L28.9170835,9.54881395 Z" transform="translate(85.012)"/>
      </g>
      <g stroke-width="10" transform="translate(338.732 522.675)">
        <path d="M28.9170835,9.54881395 L5,100.762856 L5,103.872403 L30.4217792,91.9730895 L30.4217792,8.82244747 L28.9170835,9.54881395 Z" transform="translate(0 42.379)"/>
        <path d="M28.9170835,9.54881395 L5,100.762856 L5,103.872403 L30.4217792,91.9730895 L30.4217792,8.82244747 L28.9170835,9.54881395 Z" transform="translate(85.012)"/>
      </g>
    </g>
  </g>
</svg>
