<svg xmlns="http://www.w3.org/2000/svg" width="706" height="996" style="background:#fff" viewBox="0 0 706 996">
  <g fill="none" fill-rule="evenodd">
    <polygon fill="#FFF" points="0 0 1412 0 1412 996 0 996 0 86.223" opacity=".831"/>
    <g transform="translate(79 243)">
      <path fill="#272727" d="M177.38,5.8 L177.38,19 L173.94,19 L173.94,13.68 L168.9,13.68 L168.9,19 L165.46,19 L165.46,5.8 L168.9,5.8 L168.9,11.02 L173.94,11.02 L173.94,5.8 L177.38,5.8 Z M180.178571,7.45 C179.865237,7.1899987 179.708571,6.7800028 179.708571,6.22 C179.708571,5.6466638 179.865237,5.2300013 180.178571,4.97 C180.491906,4.7099987 180.995235,4.58 181.688571,4.58 C182.381908,4.58 182.885237,4.7099987 183.198571,4.97 C183.511906,5.2300013 183.668571,5.6466638 183.668571,6.22 C183.668571,6.7800028 183.511906,7.1899987 183.198571,7.45 C182.885237,7.7100013 182.381908,7.84 181.688571,7.84 C180.995235,7.84 180.491906,7.7100013 180.178571,7.45 Z M183.388571,19 L179.988571,19 L179.988571,9 L183.388571,9 L183.388571,19 Z M194.767143,17.54 C195.400479,18.0466692 195.717143,18.7933284 195.717143,19.78 C195.717143,20.913339 195.213815,21.7833303 194.207143,22.39 C193.200471,22.9966697 191.830485,23.3 190.097143,23.3 C188.350467,23.3 187.06048,23.0933354 186.227143,22.68 C185.393805,22.2666646 184.977143,21.6866704 184.977143,20.94 C184.977143,20.4999978 185.130475,20.113335 185.437143,19.78 C185.743811,19.446665 186.210473,19.2066674 186.837143,19.06 C185.810471,18.6199978 185.297143,17.9266714 185.297143,16.98 C185.297143,16.513331 185.443808,16.1000018 185.737143,15.74 C186.030478,15.3799982 186.430474,15.1133342 186.937143,14.94 C185.843804,14.3533304 185.297143,13.4400062 185.297143,12.2 C185.297143,11.1199946 185.723805,10.2833363 186.577143,9.69 C187.43048,9.0966637 188.630468,8.8 190.177143,8.8 C190.897146,8.8 191.563806,8.8733326 192.177143,9.02 C192.310477,8.219996 192.610474,7.5666692 193.077143,7.06 C193.543812,6.5533308 194.190472,6.3 195.017143,6.3 L195.337143,6.32 L195.717143,8.58 C195.450475,8.5533332 195.26381,8.54 195.157143,8.54 C194.703807,8.54 194.327144,8.6199992 194.027143,8.78 C193.727141,8.9400008 193.510477,9.1599986 193.377143,9.44 C194.497148,10.0266696 195.057143,10.9466604 195.057143,12.2 C195.057143,13.2800054 194.63048,14.1133304 193.777143,14.7 C192.923805,15.2866696 191.723817,15.58 190.177143,15.58 C189.457139,15.58 188.817146,15.5200006 188.257143,15.4 C187.843807,15.5066672 187.637143,15.7399982 187.637143,16.1 C187.637143,16.5533356 187.983806,16.78 188.677143,16.78 L192.077143,16.78 C193.237149,16.78 194.133806,17.0333308 194.767143,17.54 Z M189.107143,11.14 C188.833808,11.406668 188.697143,11.7599978 188.697143,12.2 C188.697143,12.6400022 188.833808,12.9899987 189.107143,13.25 C189.380478,13.5100013 189.737141,13.64 190.177143,13.64 C190.617145,13.64 190.973808,13.5100013 191.247143,13.25 C191.520478,12.9899987 191.657143,12.6400022 191.657143,12.2 C191.657143,11.7599978 191.520478,11.406668 191.247143,11.14 C190.973808,10.873332 190.617145,10.74 190.177143,10.74 C189.737141,10.74 189.380478,10.873332 189.107143,11.14 Z M192.347143,20.83 C192.807145,20.6499991 193.037143,20.4133348 193.037143,20.12 C193.037143,19.9066656 192.94381,19.7466672 192.757143,19.64 C192.570475,19.5333328 192.257145,19.48 191.817143,19.48 L189.077143,19.48 C188.530473,19.48 188.140477,19.5366661 187.907143,19.65 C187.673808,19.7633339 187.557143,19.9399988 187.557143,20.18 C187.557143,20.7933364 188.4838,21.1 190.337143,21.1 C191.217147,21.1 191.887141,21.0100009 192.347143,20.83 Z M206.115714,17.54 C206.749051,18.0466692 207.065714,18.7933284 207.065714,19.78 C207.065714,20.913339 206.562386,21.7833303 205.555714,22.39 C204.549043,22.9966697 203.179056,23.3 201.445714,23.3 C199.699039,23.3 198.409052,23.0933354 197.575714,22.68 C196.742377,22.2666646 196.325714,21.6866704 196.325714,20.94 C196.325714,20.4999978 196.479046,20.113335 196.785714,19.78 C197.092382,19.446665 197.559044,19.2066674 198.185714,19.06 C197.159042,18.6199978 196.645714,17.9266714 196.645714,16.98 C196.645714,16.513331 196.792379,16.1000018 197.085714,15.74 C197.379049,15.3799982 197.779045,15.1133342 198.285714,14.94 C197.192375,14.3533304 196.645714,13.4400062 196.645714,12.2 C196.645714,11.1199946 197.072377,10.2833363 197.925714,9.69 C198.779052,9.0966637 199.97904,8.8 201.525714,8.8 C202.245718,8.8 202.912378,8.8733326 203.525714,9.02 C203.659048,8.219996 203.959045,7.5666692 204.425714,7.06 C204.892383,6.5533308 205.539043,6.3 206.365714,6.3 L206.685714,6.32 L207.065714,8.58 C206.799046,8.5533332 206.612381,8.54 206.505714,8.54 C206.052379,8.54 205.675716,8.6199992 205.375714,8.78 C205.075713,8.9400008 204.859048,9.1599986 204.725714,9.44 C205.84572,10.0266696 206.405714,10.9466604 206.405714,12.2 C206.405714,13.2800054 205.979052,14.1133304 205.125714,14.7 C204.272377,15.2866696 203.072389,15.58 201.525714,15.58 C200.805711,15.58 200.165717,15.5200006 199.605714,15.4 C199.192379,15.5066672 198.985714,15.7399982 198.985714,16.1 C198.985714,16.5533356 199.332377,16.78 200.025714,16.78 L203.425714,16.78 C204.58572,16.78 205.482378,17.0333308 206.115714,17.54 Z M200.455714,11.14 C200.18238,11.406668 200.045714,11.7599978 200.045714,12.2 C200.045714,12.6400022 200.18238,12.9899987 200.455714,13.25 C200.729049,13.5100013 201.085712,13.64 201.525714,13.64 C201.965716,13.64 202.32238,13.5100013 202.595714,13.25 C202.869049,12.9899987 203.005714,12.6400022 203.005714,12.2 C203.005714,11.7599978 202.869049,11.406668 202.595714,11.14 C202.32238,10.873332 201.965716,10.74 201.525714,10.74 C201.085712,10.74 200.729049,10.873332 200.455714,11.14 Z M203.695714,20.83 C204.155717,20.6499991 204.385714,20.4133348 204.385714,20.12 C204.385714,19.9066656 204.292382,19.7466672 204.105714,19.64 C203.919047,19.5333328 203.605716,19.48 203.165714,19.48 L200.425714,19.48 C199.879045,19.48 199.489049,19.5366661 199.255714,19.65 C199.02238,19.7633339 198.905714,19.9399988 198.905714,20.18 C198.905714,20.7933364 199.832372,21.1 201.685714,21.1 C202.565719,21.1 203.235712,21.0100009 203.695714,20.83 Z M211.694286,15.54 C211.694286,15.9933356 211.760952,16.3133324 211.894286,16.5 C212.02762,16.6866676 212.267617,16.78 212.614286,16.78 C212.934287,16.78 213.274284,16.7200006 213.634286,16.6 L213.414286,18.7 C213.174285,18.8466674 212.860954,18.9666662 212.474286,19.06 C212.087617,19.1533338 211.707621,19.2 211.334286,19.2 C210.267614,19.2 209.494288,18.9500025 209.014286,18.45 C208.534283,17.9499975 208.294286,17.1466722 208.294286,16.04 L208.294286,4.76 L211.694286,4.76 L211.694286,15.54 Z M224.442857,14.98 L217.622857,14.98 C217.729524,15.6066698 217.959522,16.0666652 218.312857,16.36 C218.666192,16.6533348 219.136188,16.8 219.722857,16.8 C220.216193,16.8 220.619522,16.7066676 220.932857,16.52 C221.246192,16.3333324 221.45619,16.0600018 221.562857,15.7 L224.322857,16.58 C224.042856,17.4333376 223.499528,18.0833311 222.692857,18.53 C221.886186,18.9766689 220.896196,19.2 219.722857,19.2 C217.976182,19.2 216.639528,18.7466712 215.712857,17.84 C214.786186,16.9333288 214.322857,15.6533416 214.322857,14 C214.322857,12.3466584 214.776186,11.0666712 215.682857,10.16 C216.589528,9.2533288 217.876182,8.8 219.542857,8.8 C221.156199,8.8 222.392853,9.2433289 223.252857,10.13 C224.112861,11.0166711 224.542857,12.259992 224.542857,13.86 C224.542857,14.3133356 224.509524,14.6866652 224.442857,14.98 Z M217.602857,13.14 L221.362857,13.14 C221.202856,11.8333268 220.589529,11.18 219.522857,11.18 C218.442852,11.18 217.802858,11.8333268 217.602857,13.14 Z M233.631429,9.02 L233.271429,11.9 C233.138095,11.8199996 232.958096,11.7500003 232.731429,11.69 C232.504761,11.6299997 232.264763,11.6 232.011429,11.6 C231.371425,11.6 230.838097,11.8033313 230.411429,12.21 C229.98476,12.6166687 229.771429,13.1999962 229.771429,13.96 L229.771429,19 L226.371429,19 L226.371429,9 L229.371429,9 L229.511429,11.16 C229.75143,10.3999962 230.128093,9.8166687 230.641429,9.41 C231.154764,9.0033313 231.791425,8.8 232.551429,8.8 C233.004764,8.8 233.364761,8.8733326 233.631429,9.02 Z M238.45,5.92 C238.816669,6.4000024 239,7.0133296 239,7.76 C239,8.6400044 238.763336,9.4366631 238.29,10.15 C237.816664,10.8633369 237.126671,11.4133314 236.22,11.8 L234.72,10.74 C236.040007,10.2466642 236.873332,9.533338 237.22,8.6 L237.12,8.54 C236.986666,8.6866674 236.786668,8.76 236.52,8.76 C236.079998,8.76 235.690002,8.6166681 235.35,8.33 C235.009998,8.0433319 234.84,7.6266694 234.84,7.08 C234.84,6.479997 235.023332,6.0166683 235.39,5.69 C235.756669,5.3633317 236.239997,5.2 236.84,5.2 C237.54667,5.2 238.083332,5.4399976 238.45,5.92 Z M239.288571,17.44 L241.048571,15.52 C241.621908,16.4666714 242.608564,16.94 244.008571,16.94 C244.47524,16.94 244.841903,16.8766673 245.108571,16.75 C245.375239,16.6233327 245.508571,16.4533344 245.508571,16.24 C245.508571,16.0533324 245.371906,15.8900007 245.098571,15.75 C244.825237,15.6099993 244.355241,15.473334 243.688571,15.34 C242.195231,15.0466652 241.131908,14.6466692 240.498571,14.14 C239.865235,13.6333308 239.548571,12.9600042 239.548571,12.12 C239.548571,11.5466638 239.72857,11.0066692 240.088571,10.5 C240.448573,9.9933308 240.991901,9.5833349 241.718571,9.27 C242.445242,8.9566651 243.328566,8.8 244.368571,8.8 C245.515244,8.8 246.451901,8.9566651 247.178571,9.27 C247.905242,9.5833349 248.495236,10.0533302 248.948571,10.68 L247.188571,12.4 C246.86857,11.933331 246.488574,11.5933344 246.048571,11.38 C245.608569,11.1666656 245.081908,11.06 244.468571,11.06 C243.988569,11.06 243.615239,11.1333326 243.348571,11.28 C243.081903,11.4266674 242.948571,11.6066656 242.948571,11.82 C242.948571,12.020001 243.085237,12.1899993 243.358571,12.33 C243.631906,12.4700007 244.108568,12.606666 244.788571,12.74 C246.255245,12.9933346 247.311902,13.3699975 247.958571,13.87 C248.605241,14.3700025 248.928571,15.053329 248.928571,15.92 C248.928571,16.8933382 248.521909,17.6833303 247.708571,18.29 C246.895234,18.8966697 245.715246,19.2 244.168571,19.2 C241.875227,19.2 240.248576,18.6133392 239.288571,17.44 Z M265.705714,10.18 C266.439051,11.1000046 266.805714,12.3866584 266.805714,14.04 C266.805714,15.6666748 266.445718,16.9333288 265.725714,17.84 C265.005711,18.7466712 263.992388,19.2 262.685714,19.2 C261.899044,19.2 261.215717,18.9900021 260.635714,18.57 C260.055711,18.1499979 259.625716,17.5866702 259.345714,16.88 L259.245714,19 L256.265714,19 L256.265714,4.76 L259.665714,4.76 L259.665714,10.68 C259.945716,10.0933304 260.342378,9.633335 260.855714,9.3 C261.36905,8.966665 261.979044,8.8 262.685714,8.8 C263.965721,8.8 264.972377,9.2599954 265.705714,10.18 Z M262.895714,16.04 C263.222383,15.5999978 263.385714,14.9200046 263.385714,14 C263.385714,13.0799954 263.222383,12.4000022 262.895714,11.96 C262.569046,11.5199978 262.105717,11.3 261.505714,11.3 C260.919045,11.3 260.465716,11.5266644 260.145714,11.98 C259.825713,12.4333356 259.665714,13.0733292 259.665714,13.9 L259.665714,14.1 C259.665714,14.9533376 259.829046,15.5999978 260.155714,16.04 C260.482383,16.4800022 260.932378,16.7 261.505714,16.7 C262.105717,16.7 262.569046,16.4800022 262.895714,16.04 Z M272.114286,15.54 C272.114286,15.9933356 272.180952,16.3133324 272.314286,16.5 C272.44762,16.6866676 272.687617,16.78 273.034286,16.78 C273.354287,16.78 273.694284,16.7200006 274.054286,16.6 L273.834286,18.7 C273.594285,18.8466674 273.280954,18.9666662 272.894286,19.06 C272.507617,19.1533338 272.127621,19.2 271.754286,19.2 C270.687614,19.2 269.914288,18.9500025 269.434286,18.45 C268.954283,17.9499975 268.714286,17.1466722 268.714286,16.04 L268.714286,4.76 L272.114286,4.76 L272.114286,15.54 Z M285.182857,9 L285.182857,19 L282.142857,19 L282.042857,17.14 C281.416187,18.5133402 280.262866,19.2 278.582857,19.2 C277.516185,19.2 276.679527,18.9166695 276.072857,18.35 C275.466187,17.7833305 275.162857,16.8933394 275.162857,15.68 L275.162857,9 L278.562857,9 L278.562857,14.82 C278.562857,15.4733366 278.676189,15.933332 278.902857,16.2 C279.129525,16.466668 279.476188,16.6 279.942857,16.6 C280.50286,16.6 280.949522,16.4100019 281.282857,16.03 C281.616192,15.6499981 281.782857,15.0733372 281.782857,14.3 L281.782857,9 L285.182857,9 Z M297.191429,14.98 L290.371429,14.98 C290.478096,15.6066698 290.708094,16.0666652 291.061429,16.36 C291.414764,16.6533348 291.884759,16.8 292.471429,16.8 C292.964764,16.8 293.368094,16.7066676 293.681429,16.52 C293.994764,16.3333324 294.204761,16.0600018 294.311429,15.7 L297.071429,16.58 C296.791427,17.4333376 296.248099,18.0833311 295.441429,18.53 C294.634758,18.9766689 293.644768,19.2 292.471429,19.2 C290.724753,19.2 289.3881,18.7466712 288.461429,17.84 C287.534757,16.9333288 287.071429,15.6533416 287.071429,14 C287.071429,12.3466584 287.524757,11.0666712 288.431429,10.16 C289.3381,9.2533288 290.624754,8.8 292.291429,8.8 C293.90477,8.8 295.141424,9.2433289 296.001429,10.13 C296.861433,11.0166711 297.291429,12.259992 297.291429,13.86 C297.291429,14.3133356 297.258096,14.6866652 297.191429,14.98 Z M290.351429,13.14 L294.111429,13.14 C293.951428,11.8333268 293.338101,11.18 292.271429,11.18 C291.191423,11.18 290.55143,11.8333268 290.351429,13.14 Z M174.04,30.89 C174.853337,31.6166703 175.26,32.5933272 175.26,33.82 C175.26,35.0466728 174.853337,36.0233297 174.04,36.75 C173.226663,37.4766703 172.15334,37.84 170.82,37.84 L167.76,37.84 L167.76,43 L166.16,43 L166.16,29.8 L170.82,29.8 C172.15334,29.8 173.226663,30.1633297 174.04,30.89 Z M172.85,35.71 C173.336669,35.2899979 173.58,34.6600042 173.58,33.82 C173.58,32.9799958 173.336669,32.3500021 172.85,31.93 C172.363331,31.5099979 171.606672,31.3 170.58,31.3 L167.76,31.3 L167.76,36.34 L170.58,36.34 C171.606672,36.34 172.363331,36.1300021 172.85,35.71 Z M183.808571,33 L183.488571,34.56 C183.16857,34.3866658 182.748574,34.3 182.228571,34.3 C181.801903,34.3 181.38524,34.4233321 180.978571,34.67 C180.571903,34.9166679 180.238573,35.2899975 179.978571,35.79 C179.71857,36.2900025 179.588571,36.8933298 179.588571,37.6 L179.588571,43 L177.988571,43 L177.988571,33 L179.288571,33 L179.508571,34.64 C180.068574,33.4133272 181.13523,32.8 182.708571,32.8 C183.188574,32.8 183.555237,32.866666 183.808571,33 Z M186.007143,30.75 C185.787142,30.5299989 185.677143,30.2400018 185.677143,29.88 C185.677143,29.5199982 185.787142,29.2300011 186.007143,29.01 C186.227144,28.7899989 186.517141,28.68 186.877143,28.68 C187.237145,28.68 187.527142,28.7899989 187.747143,29.01 C187.967144,29.2300011 188.077143,29.5199982 188.077143,29.88 C188.077143,30.2400018 187.967144,30.5299989 187.747143,30.75 C187.527142,30.9700011 187.237145,31.08 186.877143,31.08 C186.517141,31.08 186.227144,30.9700011 186.007143,30.75 Z M187.677143,43 L186.077143,43 L186.077143,33 L187.677143,33 L187.677143,43 Z M204.815714,33.21 C205.395717,33.4833347 205.865712,33.9066638 206.225714,34.48 C206.585716,35.0533362 206.765714,35.7599958 206.765714,36.6 L206.765714,43 L205.165714,43 L205.165714,36.76 C205.165714,35.893329 204.94905,35.2500021 204.515714,34.83 C204.082379,34.4099979 203.512384,34.2 202.805714,34.2 C202.272378,34.2 201.782383,34.3299987 201.335714,34.59 C200.889045,34.8500013 200.529049,35.2299975 200.255714,35.73 C199.98238,36.2300025 199.845714,36.8266632 199.845714,37.52 L199.845714,43 L198.245714,43 L198.245714,36.76 C198.245714,35.893329 198.02905,35.2500021 197.595714,34.83 C197.162379,34.4099979 196.592384,34.2 195.885714,34.2 C195.405712,34.2 194.93905,34.3233321 194.485714,34.57 C194.032379,34.8166679 193.659049,35.1999974 193.365714,35.72 C193.072379,36.2400026 192.925714,36.8866628 192.925714,37.66 L192.925714,43 L191.325714,43 L191.325714,33 L192.725714,33 L192.825714,34.56 C193.172383,33.9733304 193.629045,33.5333348 194.195714,33.24 C194.762384,32.9466652 195.372378,32.8 196.025714,32.8 C196.759051,32.8 197.435711,32.966665 198.055714,33.3 C198.675717,33.633335 199.145713,34.1199968 199.465714,34.76 C199.759049,34.1199968 200.239044,33.633335 200.905714,33.3 C201.572384,32.966665 202.252377,32.8 202.945714,32.8 C203.612384,32.8 204.235711,32.9366653 204.815714,33.21 Z M219.314286,41.74 L219.214286,43 C218.840951,43.133334 218.440955,43.2 218.014286,43.2 C217.494283,43.2 217.084287,43.0866678 216.784286,42.86 C216.484284,42.6333322 216.294286,42.253336 216.214286,41.72 C215.907618,42.186669 215.457622,42.5499987 214.864286,42.81 C214.270949,43.0700013 213.647622,43.2 212.994286,43.2 C212.007614,43.2 211.194289,42.9700023 210.554286,42.51 C209.914283,42.0499977 209.594286,41.386671 209.594286,40.52 C209.594286,39.7599962 209.927616,39.1033361 210.594286,38.55 C211.260956,37.9966639 212.227613,37.6133344 213.494286,37.4 L216.154286,36.96 L216.154286,36.4 C216.154286,35.73333 215.947621,35.200002 215.534286,34.8 C215.12095,34.399998 214.547623,34.2 213.814286,34.2 C213.147616,34.2 212.570955,34.3599984 212.084286,34.68 C211.597617,35.0000016 211.220954,35.4733302 210.954286,36.1 L209.774286,35.24 C210.040954,34.4933296 210.537615,33.9000022 211.264286,33.46 C211.990956,33.0199978 212.840948,32.8 213.814286,32.8 C215.000958,32.8 215.954282,33.0866638 216.674286,33.66 C217.394289,34.2333362 217.754286,35.0799944 217.754286,36.2 L217.754286,41.12 C217.754286,41.3600012 217.814285,41.5399994 217.934286,41.66 C218.054286,41.7800006 218.247618,41.84 218.514286,41.84 C218.780954,41.84 219.047618,41.806667 219.314286,41.74 Z M215.244286,41.2 C215.850955,40.799998 216.154286,40.2800032 216.154286,39.64 L216.154286,38.26 L213.914286,38.68 C213.020948,38.8400008 212.354288,39.0699985 211.914286,39.37 C211.474284,39.6700015 211.254286,40.053331 211.254286,40.52 C211.254286,40.9333354 211.414284,41.2499989 211.734286,41.47 C212.054287,41.6900011 212.50095,41.8 213.074286,41.8 C213.91429,41.8 214.637616,41.600002 215.244286,41.2 Z M227.382857,33 L227.062857,34.56 C226.742856,34.3866658 226.32286,34.3 225.802857,34.3 C225.376188,34.3 224.959526,34.4233321 224.552857,34.67 C224.146188,34.9166679 223.812858,35.2899975 223.552857,35.79 C223.292856,36.2900025 223.162857,36.8933298 223.162857,37.6 L223.162857,43 L221.562857,43 L221.562857,33 L222.862857,33 L223.082857,34.64 C223.64286,33.4133272 224.709516,32.8 226.282857,32.8 C226.76286,32.8 227.129523,32.866666 227.382857,33 Z M233.451429,44.68 C233.06476,45.6400048 232.631431,46.3166647 232.151429,46.71 C231.671426,47.1033353 231.051432,47.3 230.291429,47.3 C229.784759,47.3 229.36143,47.233334 229.021429,47.1 C228.681427,46.966666 228.37143,46.7533348 228.091429,46.46 L228.651429,45.1 C229.038097,45.633336 229.578092,45.9 230.271429,45.9 C230.658097,45.9 231.001427,45.7833345 231.301429,45.55 C231.60143,45.3166655 231.864761,44.8933364 232.091429,44.28 L232.611429,42.98 L228.431429,33 L230.251429,33 L232.751429,39.52 L233.371429,41.3 L234.091429,39.32 L236.431429,33 L238.151429,33 L233.451429,44.68 Z M255.528571,41.74 L255.428571,43 C255.055236,43.133334 254.65524,43.2 254.228571,43.2 C253.708569,43.2 253.298573,43.0866678 252.998571,42.86 C252.69857,42.6333322 252.508572,42.253336 252.428571,41.72 C252.121903,42.186669 251.671908,42.5499987 251.078571,42.81 C250.485235,43.0700013 249.861908,43.2 249.208571,43.2 C248.2219,43.2 247.408575,42.9700023 246.768571,42.51 C246.128568,42.0499977 245.808571,41.386671 245.808571,40.52 C245.808571,39.7599962 246.141901,39.1033361 246.808571,38.55 C247.475241,37.9966639 248.441898,37.6133344 249.708571,37.4 L252.368571,36.96 L252.368571,36.4 C252.368571,35.73333 252.161907,35.200002 251.748571,34.8 C251.335236,34.399998 250.761908,34.2 250.028571,34.2 C249.361901,34.2 248.785241,34.3599984 248.298571,34.68 C247.811902,35.0000016 247.435239,35.4733302 247.168571,36.1 L245.988571,35.24 C246.255239,34.4933296 246.751901,33.9000022 247.478571,33.46 C248.205242,33.0199978 249.055233,32.8 250.028571,32.8 C251.215244,32.8 252.168568,33.0866638 252.888571,33.66 C253.608575,34.2333362 253.968571,35.0799944 253.968571,36.2 L253.968571,41.12 C253.968571,41.3600012 254.028571,41.5399994 254.148571,41.66 C254.268572,41.7800006 254.461903,41.84 254.728571,41.84 C254.995239,41.84 255.261903,41.806667 255.528571,41.74 Z M251.458571,41.2 C252.065241,40.799998 252.368571,40.2800032 252.368571,39.64 L252.368571,38.26 L250.128571,38.68 C249.235234,38.8400008 248.568574,39.0699985 248.128571,39.37 C247.688569,39.6700015 247.468571,40.053331 247.468571,40.52 C247.468571,40.9333354 247.62857,41.2499989 247.948571,41.47 C248.268573,41.6900011 248.715235,41.8 249.288571,41.8 C250.128576,41.8 250.851902,41.600002 251.458571,41.2 Z M266.027143,34.19 C266.847147,35.1166713 267.257143,36.3866586 267.257143,38 C267.257143,39.6133414 266.847147,40.8833287 266.027143,41.81 C265.207139,42.7366713 264.09715,43.2 262.697143,43.2 C261.963806,43.2 261.307146,43.0400016 260.727143,42.72 C260.14714,42.3999984 259.697144,41.973336 259.377143,41.44 L259.377143,47.2 L257.777143,47.2 L257.777143,33 L259.177143,33 L259.277143,34.74 C259.570478,34.1533304 260.020473,33.6833351 260.627143,33.33 C261.233813,32.9766649 261.923806,32.8 262.697143,32.8 C264.09715,32.8 265.207139,33.2633287 266.027143,34.19 Z M264.817143,40.77 C265.377146,40.0833299 265.657143,39.1600058 265.657143,38 C265.657143,36.8399942 265.377146,35.9166701 264.817143,35.23 C264.25714,34.5433299 263.490481,34.2 262.517143,34.2 C261.557138,34.2 260.793812,34.53333 260.227143,35.2 C259.660473,35.86667 259.377143,36.7599944 259.377143,37.88 L259.377143,38.12 C259.377143,39.2400056 259.660473,40.13333 260.227143,40.8 C260.793812,41.46667 261.557138,41.8 262.517143,41.8 C263.490481,41.8 264.25714,41.4566701 264.817143,40.77 Z M278.555714,34.19 C279.375718,35.1166713 279.785714,36.3866586 279.785714,38 C279.785714,39.6133414 279.375718,40.8833287 278.555714,41.81 C277.73571,42.7366713 276.625721,43.2 275.225714,43.2 C274.492377,43.2 273.835717,43.0400016 273.255714,42.72 C272.675711,42.3999984 272.225716,41.973336 271.905714,41.44 L271.905714,47.2 L270.305714,47.2 L270.305714,33 L271.705714,33 L271.805714,34.74 C272.099049,34.1533304 272.549045,33.6833351 273.155714,33.33 C273.762384,32.9766649 274.452377,32.8 275.225714,32.8 C276.625721,32.8 277.73571,33.2633287 278.555714,34.19 Z M277.345714,40.77 C277.905717,40.0833299 278.185714,39.1600058 278.185714,38 C278.185714,36.8399942 277.905717,35.9166701 277.345714,35.23 C276.785712,34.5433299 276.019053,34.2 275.045714,34.2 C274.08571,34.2 273.322384,34.53333 272.755714,35.2 C272.189045,35.86667 271.905714,36.7599944 271.905714,37.88 L271.905714,38.12 C271.905714,39.2400056 272.189045,40.13333 272.755714,40.8 C273.322384,41.46667 274.08571,41.8 275.045714,41.8 C276.019053,41.8 276.785712,41.4566701 277.345714,40.77 Z M296.332857,33.49 C297.019527,33.9500023 297.556189,34.6066624 297.942857,35.46 L296.422857,36.18 C295.996188,34.8599934 295.109531,34.2 293.762857,34.2 C292.762852,34.2 291.979527,34.5366633 291.412857,35.21 C290.846188,35.8833367 290.562857,36.8133274 290.562857,38 C290.562857,39.1866726 290.846188,40.1166633 291.412857,40.79 C291.979527,41.4633367 292.762852,41.8 293.762857,41.8 C294.536194,41.8 295.159521,41.6233351 295.632857,41.27 C296.106193,40.9166649 296.41619,40.40667 296.562857,39.74 L298.042857,40.26 C297.696189,41.193338 297.162861,41.9166641 296.442857,42.43 C295.722854,42.9433359 294.842862,43.2 293.802857,43.2 C292.296183,43.2 291.112861,42.7400046 290.252857,41.82 C289.392853,40.8999954 288.962857,39.6266748 288.962857,38 C288.962857,36.3733252 289.392853,35.1000046 290.252857,34.18 C291.112861,33.2599954 292.296183,32.8 293.802857,32.8 C294.802862,32.8 295.646187,33.0299977 296.332857,33.49 Z M308.561429,34.18 C309.421433,35.1000046 309.851429,36.3733252 309.851429,38 C309.851429,39.6266748 309.421433,40.8999954 308.561429,41.82 C307.701424,42.7400046 306.518103,43.2 305.011429,43.2 C303.504754,43.2 302.321433,42.7400046 301.461429,41.82 C300.601424,40.8999954 300.171429,39.6266748 300.171429,38 C300.171429,36.3733252 300.601424,35.1000046 301.461429,34.18 C302.321433,33.2599954 303.504754,32.8 305.011429,32.8 C306.518103,32.8 307.701424,33.2599954 308.561429,34.18 Z M302.631429,35.2 C302.058092,35.8800034 301.771429,36.8133274 301.771429,38 C301.771429,39.1866726 302.058092,40.1199966 302.631429,40.8 C303.204765,41.4800034 303.99809,41.82 305.011429,41.82 C306.024767,41.82 306.818092,41.4800034 307.391429,40.8 C307.964765,40.1199966 308.251429,39.1866726 308.251429,38 C308.251429,36.8133274 307.964765,35.8800034 307.391429,35.2 C306.818092,34.5199966 306.024767,34.18 305.011429,34.18 C303.99809,34.18 303.204765,34.5199966 302.631429,35.2 Z M314.4,40.32 C314.4,40.8266692 314.476666,41.1766657 314.63,41.37 C314.783334,41.5633343 315.066665,41.66 315.48,41.66 C315.760001,41.66 316.003332,41.6400002 316.21,41.6 C316.416668,41.5599998 316.659999,41.4866672 316.94,41.38 L316.68,42.92 C316.239998,43.1066676 315.746669,43.2 315.2,43.2 C314.386663,43.2 313.783335,42.9800022 313.39,42.54 C312.996665,42.0999978 312.8,41.4266712 312.8,40.52 L312.8,28.4 L314.4,28.4 L314.4,40.32 Z M326.698571,34.18 C327.558576,35.1000046 327.988571,36.3733252 327.988571,38 C327.988571,39.6266748 327.558576,40.8999954 326.698571,41.82 C325.838567,42.7400046 324.655246,43.2 323.148571,43.2 C321.641897,43.2 320.458576,42.7400046 319.598571,41.82 C318.738567,40.8999954 318.308571,39.6266748 318.308571,38 C318.308571,36.3733252 318.738567,35.1000046 319.598571,34.18 C320.458576,33.2599954 321.641897,32.8 323.148571,32.8 C324.655246,32.8 325.838567,33.2599954 326.698571,34.18 Z M320.768571,35.2 C320.195235,35.8800034 319.908571,36.8133274 319.908571,38 C319.908571,39.1866726 320.195235,40.1199966 320.768571,40.8 C321.341908,41.4800034 322.135233,41.82 323.148571,41.82 C324.16191,41.82 324.955235,41.4800034 325.528571,40.8 C326.101908,40.1199966 326.388571,39.1866726 326.388571,38 C326.388571,36.8133274 326.101908,35.8800034 325.528571,35.2 C324.955235,34.5199966 324.16191,34.18 323.148571,34.18 C322.135233,34.18 321.341908,34.5199966 320.768571,35.2 Z M339.677143,33 L339.677143,43 L338.277143,43 L338.177143,41.48 C337.510473,42.6266724 336.317152,43.2 334.597143,43.2 C333.517138,43.2 332.633813,42.900003 331.947143,42.3 C331.260473,41.699997 330.917143,40.7800062 330.917143,39.54 L330.917143,33 L332.517143,33 L332.517143,39.12 C332.517143,40.0933382 332.717141,40.7833313 333.117143,41.19 C333.517145,41.5966687 334.103806,41.8 334.877143,41.8 C335.797148,41.8 336.560473,41.5200028 337.167143,40.96 C337.773813,40.3999972 338.077143,39.5600056 338.077143,38.44 L338.077143,33 L339.677143,33 Z M349.145714,33 L348.825714,34.56 C348.505713,34.3866658 348.085717,34.3 347.565714,34.3 C347.139046,34.3 346.722383,34.4233321 346.315714,34.67 C345.909046,34.9166679 345.575716,35.2899975 345.315714,35.79 C345.055713,36.2900025 344.925714,36.8933298 344.925714,37.6 L344.925714,43 L343.325714,43 L343.325714,33 L344.625714,33 L344.845714,34.64 C345.405717,33.4133272 346.472373,32.8 348.045714,32.8 C348.525717,32.8 348.89238,32.866666 349.145714,33 Z M173.7,82.66 L173.12,86.04 L175.5,86.04 L175.5,87.26 L172.92,87.26 L172.3,91 L170.94,91 L171.56,87.26 L168.24,87.26 L167.62,91 L166.26,91 L166.88,87.26 L164.4,87.26 L164.4,86.04 L167.08,86.04 L167.66,82.66 L165.28,82.66 L165.28,81.44 L167.86,81.44 L168.46,77.8 L169.82,77.8 L169.22,81.44 L172.54,81.44 L173.14,77.8 L174.5,77.8 L173.9,81.44 L176.38,81.44 L176.38,82.66 L173.7,82.66 Z M172.34,82.66 L169.02,82.66 L168.44,86.04 L171.76,86.04 L172.34,82.66 Z M187.988571,87.54 L185.648571,87.54 L185.648571,91 L184.048571,91 L184.048571,87.54 L177.608571,87.54 L177.608571,86.36 L183.628571,77.8 L185.648571,77.8 L185.648571,86.16 L187.988571,86.16 L187.988571,87.54 Z M179.308571,86.16 L184.048571,86.16 L184.048571,81.22 L184.128571,79.1 L184.088571,79.1 C183.755236,79.7800034 183.315241,80.5133294 182.768571,81.3 L179.308571,86.16 Z M197.587143,78.46 C198.353813,79.0333362 198.933808,79.8299949 199.327143,80.85 C199.720478,81.8700051 199.917143,83.0533266 199.917143,84.4 C199.917143,86.6133444 199.483814,88.2999942 198.617143,89.46 C197.750472,90.6200058 196.490484,91.2 194.837143,91.2 C193.65047,91.2 192.687147,90.9533358 191.947143,90.46 C191.207139,89.9666642 190.643811,89.220005 190.257143,88.22 L191.837143,87.38 C192.077144,88.1666706 192.407141,88.7499981 192.827143,89.13 C193.247145,89.5100019 193.910472,89.7 194.817143,89.7 C196.137149,89.7 197.073807,89.200005 197.627143,88.2 C198.180479,87.199995 198.457143,85.7533428 198.457143,83.86 L198.457143,83.68 L198.377143,83.68 C198.190475,84.5600044 197.747146,85.1933314 197.047143,85.58 C196.347139,85.9666686 195.563814,86.16 194.697143,86.16 C193.363803,86.16 192.293814,85.7733372 191.487143,85 C190.680472,84.2266628 190.277143,83.1866732 190.277143,81.88 C190.277143,80.5733268 190.687139,79.5333372 191.507143,78.76 C192.327147,77.9866628 193.430469,77.6 194.817143,77.6 C195.897148,77.6 196.820472,77.8866638 197.587143,78.46 Z M192.717143,79.87 C192.210474,80.3566691 191.957143,81.033329 191.957143,81.9 C191.957143,82.7400042 192.210474,83.4033309 192.717143,83.89 C193.223812,84.3766691 193.930472,84.62 194.837143,84.62 C195.69048,84.62 196.383807,84.3666692 196.917143,83.86 C197.450479,83.3533308 197.717143,82.700004 197.717143,81.9 C197.717143,81.0733292 197.453812,80.4066692 196.927143,79.9 C196.400474,79.3933308 195.703814,79.14 194.837143,79.14 C193.930472,79.14 193.223812,79.3833309 192.717143,79.87 Z M209.975714,78.46 C210.742385,79.0333362 211.322379,79.8299949 211.715714,80.85 C212.10905,81.8700051 212.305714,83.0533266 212.305714,84.4 C212.305714,86.6133444 211.872385,88.2999942 211.005714,89.46 C210.139043,90.6200058 208.879056,91.2 207.225714,91.2 C206.039042,91.2 205.075718,90.9533358 204.335714,90.46 C203.595711,89.9666642 203.032383,89.220005 202.645714,88.22 L204.225714,87.38 C204.465715,88.1666706 204.795712,88.7499981 205.215714,89.13 C205.635716,89.5100019 206.299043,89.7 207.205714,89.7 C208.525721,89.7 209.462378,89.200005 210.015714,88.2 C210.56905,87.199995 210.845714,85.7533428 210.845714,83.86 L210.845714,83.68 L210.765714,83.68 C210.579047,84.5600044 210.135718,85.1933314 209.435714,85.58 C208.735711,85.9666686 207.952385,86.16 207.085714,86.16 C205.752374,86.16 204.682385,85.7733372 203.875714,85 C203.069044,84.2266628 202.665714,83.1866732 202.665714,81.88 C202.665714,80.5733268 203.07571,79.5333372 203.895714,78.76 C204.715718,77.9866628 205.819041,77.6 207.205714,77.6 C208.28572,77.6 209.209044,77.8866638 209.975714,78.46 Z M205.105714,79.87 C204.599045,80.3566691 204.345714,81.033329 204.345714,81.9 C204.345714,82.7400042 204.599045,83.4033309 205.105714,83.89 C205.612383,84.3766691 206.319043,84.62 207.225714,84.62 C208.079052,84.62 208.772378,84.3666692 209.305714,83.86 C209.83905,83.3533308 210.105714,82.700004 210.105714,81.9 C210.105714,81.0733292 209.842384,80.4066692 209.315714,79.9 C208.789045,79.3933308 208.092385,79.14 207.225714,79.14 C206.319043,79.14 205.612383,79.3833309 205.105714,79.87 Z M216.214286,89.46 C215.374282,88.2999942 214.954286,86.6133444 214.954286,84.4 C214.954286,82.1866556 215.374282,80.5000058 216.214286,79.34 C217.05429,78.1799942 218.274278,77.6 219.874286,77.6 C221.474294,77.6 222.694282,78.1799942 223.534286,79.34 C224.37429,80.5000058 224.794286,82.1866556 224.794286,84.4 C224.794286,86.6133444 224.37429,88.2999942 223.534286,89.46 C222.694282,90.6200058 221.474294,91.2 219.874286,91.2 C218.274278,91.2 217.05429,90.6200058 216.214286,89.46 Z M222.294286,88.39 C222.854289,87.4766621 223.134286,86.1466754 223.134286,84.4 C223.134286,82.6533246 222.854289,81.3233379 222.294286,80.41 C221.734283,79.4966621 220.927624,79.04 219.874286,79.04 C218.820947,79.04 218.014289,79.4966621 217.454286,80.41 C216.894283,81.3233379 216.614286,82.6533246 216.614286,84.4 C216.614286,86.1466754 216.894283,87.4766621 217.454286,88.39 C218.014289,89.3033379 218.820947,89.76 219.874286,89.76 C220.927624,89.76 221.734283,89.3033379 222.294286,88.39 Z M237.742857,89.5 L237.742857,91 L228.182857,91 L228.182857,77.8 L237.442857,77.8 L237.442857,79.3 L229.782857,79.3 L229.782857,83.56 L235.742857,83.56 L235.742857,85.06 L229.782857,85.06 L229.782857,89.5 L237.742857,89.5 Z M240.191429,89.7 C242.018104,88.3533266 243.41809,87.2433377 244.391429,86.37 C245.364767,85.4966623 246.061426,84.7033369 246.481429,83.99 C246.901431,83.2766631 247.111429,82.5266706 247.111429,81.74 C247.111429,80.9533294 246.858098,80.3166691 246.351429,79.83 C245.844759,79.3433309 245.164766,79.1 244.311429,79.1 C243.418091,79.1 242.694765,79.3933304 242.141429,79.98 C241.588092,80.5666696 241.264762,81.359995 241.171429,82.36 L239.771429,81.52 C239.944763,80.3333274 240.428091,79.3833369 241.221429,78.67 C242.014766,77.9566631 243.064755,77.6 244.371429,77.6 C245.251433,77.6 246.028092,77.7733316 246.701429,78.12 C247.374765,78.4666684 247.891427,78.9533302 248.251429,79.58 C248.61143,80.2066698 248.791429,80.9266626 248.791429,81.74 C248.791429,82.5933376 248.588097,83.4133294 248.181429,84.2 C247.77476,84.9866706 247.111433,85.813329 246.191429,86.68 C245.271424,87.546671 244.031436,88.4999948 242.471429,89.54 L242.471429,89.56 C243.351433,89.5199998 244.011426,89.5 244.451429,89.5 L249.071429,89.5 L249.071429,91 L240.191429,91 L240.191429,89.7 Z"/>
      <circle cx="50" cy="50" r="50" fill="#4990E2"/>
      <g transform="translate(0 205)">
        <path fill="#272727" d="M177.3,11.86 L177.3,19 L174.9,19 L174.8,17.44 C174.039996,18.6133392 172.780009,19.2 171.02,19.2 C169.819994,19.2 168.756671,18.9366693 167.83,18.41 C166.903329,17.8833307 166.180003,17.1100051 165.66,16.09 C165.139997,15.0699949 164.88,13.8466738 164.88,12.42 C164.88,11.0066596 165.146664,9.7900051 165.68,8.77 C166.213336,7.7499949 166.973328,6.9666694 167.96,6.42 C168.946672,5.8733306 170.113327,5.6 171.46,5.6 C172.966674,5.6 174.179995,5.866664 175.1,6.4 C176.020005,6.933336 176.746664,7.7933274 177.28,8.98 L174.1,10.24 C173.939999,9.5866634 173.640002,9.1000016 173.2,8.78 C172.759998,8.4599984 172.213337,8.3 171.56,8.3 C170.546662,8.3 169.770003,8.6466632 169.23,9.34 C168.689997,10.0333368 168.42,11.0533266 168.42,12.4 C168.42,15.1733472 169.499989,16.56 171.66,16.56 C172.473337,16.56 173.129998,16.3733352 173.63,16 C174.130002,15.6266648 174.38,15.0866702 174.38,14.38 L174.38,14.18 L171.1,14.18 L171.1,11.86 L177.3,11.86 Z M182.968571,15.54 C182.968571,15.9933356 183.035237,16.3133324 183.168571,16.5 C183.301905,16.6866676 183.541903,16.78 183.888571,16.78 C184.208573,16.78 184.54857,16.7200006 184.908571,16.6 L184.688571,18.7 C184.44857,18.8466674 184.13524,18.9666662 183.748571,19.06 C183.361903,19.1533338 182.981907,19.2 182.608571,19.2 C181.541899,19.2 180.768574,18.9500025 180.288571,18.45 C179.808569,17.9499975 179.568571,17.1466722 179.568571,16.04 L179.568571,4.76 L182.968571,4.76 L182.968571,15.54 Z M194.767143,10.17 C195.693814,11.0833379 196.157143,12.3599918 196.157143,14 C196.157143,15.6400082 195.693814,16.9166621 194.767143,17.83 C193.840472,18.7433379 192.543818,19.2 190.877143,19.2 C189.210468,19.2 187.913814,18.7433379 186.987143,17.83 C186.060472,16.9166621 185.597143,15.6400082 185.597143,14 C185.597143,12.3599918 186.060472,11.0833379 186.987143,10.17 C187.913814,9.2566621 189.210468,8.8 190.877143,8.8 C192.543818,8.8 193.840472,9.2566621 194.767143,10.17 Z M189.457143,11.88 C189.150475,12.3200022 188.997143,13.0266618 188.997143,14 C188.997143,14.9733382 189.150475,15.6799978 189.457143,16.12 C189.763811,16.5600022 190.23714,16.78 190.877143,16.78 C191.517146,16.78 191.990475,16.5600022 192.297143,16.12 C192.603811,15.6799978 192.757143,14.9733382 192.757143,14 C192.757143,13.0266618 192.603811,12.3200022 192.297143,11.88 C191.990475,11.4399978 191.517146,11.22 190.877143,11.22 C190.23714,11.22 189.763811,11.4399978 189.457143,11.88 Z M214.565714,9 L211.545714,19 L207.465714,19 L205.665714,12.58 L203.885714,19 L199.825714,19 L196.785714,9 L200.365714,9 L202.045714,16.54 L204.005714,9 L207.365714,9 L209.305714,16.54 L211.005714,9 L214.565714,9 Z M216.104286,7.45 C215.790951,7.1899987 215.634286,6.7800028 215.634286,6.22 C215.634286,5.6466638 215.790951,5.2300013 216.104286,4.97 C216.417621,4.7099987 216.920949,4.58 217.614286,4.58 C218.307623,4.58 218.810951,4.7099987 219.124286,4.97 C219.437621,5.2300013 219.594286,5.6466638 219.594286,6.22 C219.594286,6.7800028 219.437621,7.1899987 219.124286,7.45 C218.810951,7.7100013 218.307623,7.84 217.614286,7.84 C216.920949,7.84 216.417621,7.7100013 216.104286,7.45 Z M219.314286,19 L215.914286,19 L215.914286,9 L219.314286,9 L219.314286,19 Z M230.742857,9.72 C231.369527,10.3333364 231.682857,11.206661 231.682857,12.34 L231.682857,19 L228.282857,19 L228.282857,13.28 C228.282857,12.5999966 228.159525,12.1166681 227.912857,11.83 C227.666189,11.5433319 227.316193,11.4 226.862857,11.4 C226.329521,11.4 225.896192,11.5899981 225.562857,11.97 C225.229522,12.3500019 225.062857,12.9333294 225.062857,13.72 L225.062857,19 L221.662857,19 L221.662857,9 L224.702857,9 L224.802857,10.92 C225.122859,10.2133298 225.576188,9.6833351 226.162857,9.33 C226.749527,8.9766649 227.436187,8.8 228.222857,8.8 C229.276196,8.8 230.116187,9.1066636 230.742857,9.72 Z M243.021429,17.54 C243.654765,18.0466692 243.971429,18.7933284 243.971429,19.78 C243.971429,20.913339 243.4681,21.7833303 242.461429,22.39 C241.454757,22.9966697 240.084771,23.3 238.351429,23.3 C236.604753,23.3 235.314766,23.0933354 234.481429,22.68 C233.648091,22.2666646 233.231429,21.6866704 233.231429,20.94 C233.231429,20.4999978 233.38476,20.113335 233.691429,19.78 C233.998097,19.446665 234.464759,19.2066674 235.091429,19.06 C234.064757,18.6199978 233.551429,17.9266714 233.551429,16.98 C233.551429,16.513331 233.698094,16.1000018 233.991429,15.74 C234.284763,15.3799982 234.684759,15.1133342 235.191429,14.94 C234.09809,14.3533304 233.551429,13.4400062 233.551429,12.2 C233.551429,11.1199946 233.978091,10.2833363 234.831429,9.69 C235.684766,9.0966637 236.884754,8.8 238.431429,8.8 C239.151432,8.8 239.818092,8.8733326 240.431429,9.02 C240.564763,8.219996 240.86476,7.5666692 241.331429,7.06 C241.798098,6.5533308 242.444758,6.3 243.271429,6.3 L243.591429,6.32 L243.971429,8.58 C243.704761,8.5533332 243.518096,8.54 243.411429,8.54 C242.958093,8.54 242.58143,8.6199992 242.281429,8.78 C241.981427,8.9400008 241.764763,9.1599986 241.631429,9.44 C242.751434,10.0266696 243.311429,10.9466604 243.311429,12.2 C243.311429,13.2800054 242.884766,14.1133304 242.031429,14.7 C241.178091,15.2866696 239.978103,15.58 238.431429,15.58 C237.711425,15.58 237.071431,15.5200006 236.511429,15.4 C236.098093,15.5066672 235.891429,15.7399982 235.891429,16.1 C235.891429,16.5533356 236.238092,16.78 236.931429,16.78 L240.331429,16.78 C241.491434,16.78 242.388092,17.0333308 243.021429,17.54 Z M237.361429,11.14 C237.088094,11.406668 236.951429,11.7599978 236.951429,12.2 C236.951429,12.6400022 237.088094,12.9899987 237.361429,13.25 C237.634763,13.5100013 237.991426,13.64 238.431429,13.64 C238.871431,13.64 239.228094,13.5100013 239.501429,13.25 C239.774763,12.9899987 239.911429,12.6400022 239.911429,12.2 C239.911429,11.7599978 239.774763,11.406668 239.501429,11.14 C239.228094,10.873332 238.871431,10.74 238.431429,10.74 C237.991426,10.74 237.634763,10.873332 237.361429,11.14 Z M240.601429,20.83 C241.061431,20.6499991 241.291429,20.4133348 241.291429,20.12 C241.291429,19.9066656 241.198096,19.7466672 241.011429,19.64 C240.824761,19.5333328 240.511431,19.48 240.071429,19.48 L237.331429,19.48 C236.784759,19.48 236.394763,19.5366661 236.161429,19.65 C235.928094,19.7633339 235.811429,19.9399988 235.811429,20.18 C235.811429,20.7933364 236.738086,21.1 238.591429,21.1 C239.471433,21.1 240.141426,21.0100009 240.601429,20.83 Z M259.918571,17.54 C260.551908,18.0466692 260.868571,18.7933284 260.868571,19.78 C260.868571,20.913339 260.365243,21.7833303 259.358571,22.39 C258.3519,22.9966697 256.981913,23.3 255.248571,23.3 C253.501896,23.3 252.211909,23.0933354 251.378571,22.68 C250.545234,22.2666646 250.128571,21.6866704 250.128571,20.94 C250.128571,20.4999978 250.281903,20.113335 250.588571,19.78 C250.89524,19.446665 251.361902,19.2066674 251.988571,19.06 C250.9619,18.6199978 250.448571,17.9266714 250.448571,16.98 C250.448571,16.513331 250.595237,16.1000018 250.888571,15.74 C251.181906,15.3799982 251.581902,15.1133342 252.088571,14.94 C250.995233,14.3533304 250.448571,13.4400062 250.448571,12.2 C250.448571,11.1199946 250.875234,10.2833363 251.728571,9.69 C252.581909,9.0966637 253.781897,8.8 255.328571,8.8 C256.048575,8.8 256.715235,8.8733326 257.328571,9.02 C257.461905,8.219996 257.761902,7.5666692 258.228571,7.06 C258.69524,6.5533308 259.341901,6.3 260.168571,6.3 L260.488571,6.32 L260.868571,8.58 C260.601903,8.5533332 260.415239,8.54 260.308571,8.54 C259.855236,8.54 259.478573,8.6199992 259.178571,8.78 C258.87857,8.9400008 258.661905,9.1599986 258.528571,9.44 C259.648577,10.0266696 260.208571,10.9466604 260.208571,12.2 C260.208571,13.2800054 259.781909,14.1133304 258.928571,14.7 C258.075234,15.2866696 256.875246,15.58 255.328571,15.58 C254.608568,15.58 253.968574,15.5200006 253.408571,15.4 C252.995236,15.5066672 252.788571,15.7399982 252.788571,16.1 C252.788571,16.5533356 253.135235,16.78 253.828571,16.78 L257.228571,16.78 C258.388577,16.78 259.285235,17.0333308 259.918571,17.54 Z M254.258571,11.14 C253.985237,11.406668 253.848571,11.7599978 253.848571,12.2 C253.848571,12.6400022 253.985237,12.9899987 254.258571,13.25 C254.531906,13.5100013 254.888569,13.64 255.328571,13.64 C255.768574,13.64 256.125237,13.5100013 256.398571,13.25 C256.671906,12.9899987 256.808571,12.6400022 256.808571,12.2 C256.808571,11.7599978 256.671906,11.406668 256.398571,11.14 C256.125237,10.873332 255.768574,10.74 255.328571,10.74 C254.888569,10.74 254.531906,10.873332 254.258571,11.14 Z M257.498571,20.83 C257.958574,20.6499991 258.188571,20.4133348 258.188571,20.12 C258.188571,19.9066656 258.095239,19.7466672 257.908571,19.64 C257.721904,19.5333328 257.408574,19.48 256.968571,19.48 L254.228571,19.48 C253.681902,19.48 253.291906,19.5366661 253.058571,19.65 C252.825237,19.7633339 252.708571,19.9399988 252.708571,20.18 C252.708571,20.7933364 253.635229,21.1 255.488571,21.1 C256.368576,21.1 257.038569,21.0100009 257.498571,20.83 Z M269.397143,9.02 L269.037143,11.9 C268.903809,11.8199996 268.723811,11.7500003 268.497143,11.69 C268.270475,11.6299997 268.030477,11.6 267.777143,11.6 C267.13714,11.6 266.603812,11.8033313 266.177143,12.21 C265.750474,12.6166687 265.537143,13.1999962 265.537143,13.96 L265.537143,19 L262.137143,19 L262.137143,9 L265.137143,9 L265.277143,11.16 C265.517144,10.3999962 265.893807,9.8166687 266.407143,9.41 C266.920479,9.0033313 267.557139,8.8 268.317143,8.8 C268.770478,8.8 269.130475,8.8733326 269.397143,9.02 Z M280.185714,14.98 L273.365714,14.98 C273.472382,15.6066698 273.702379,16.0666652 274.055714,16.36 C274.409049,16.6533348 274.879045,16.8 275.465714,16.8 C275.95905,16.8 276.362379,16.7066676 276.675714,16.52 C276.989049,16.3333324 277.199047,16.0600018 277.305714,15.7 L280.065714,16.58 C279.785713,17.4333376 279.242385,18.0833311 278.435714,18.53 C277.629044,18.9766689 276.639054,19.2 275.465714,19.2 C273.719039,19.2 272.382386,18.7466712 271.455714,17.84 C270.529043,16.9333288 270.065714,15.6533416 270.065714,14 C270.065714,12.3466584 270.519043,11.0666712 271.425714,10.16 C272.332386,9.2533288 273.619039,8.8 275.285714,8.8 C276.899056,8.8 278.13571,9.2433289 278.995714,10.13 C279.855719,11.0166711 280.285714,12.259992 280.285714,13.86 C280.285714,14.3133356 280.252381,14.6866652 280.185714,14.98 Z M273.345714,13.14 L277.105714,13.14 C276.945714,11.8333268 276.332386,11.18 275.265714,11.18 C274.185709,11.18 273.545715,11.8333268 273.345714,13.14 Z M291.754286,14.98 L284.934286,14.98 C285.040953,15.6066698 285.270951,16.0666652 285.624286,16.36 C285.977621,16.6533348 286.447616,16.8 287.034286,16.8 C287.527622,16.8 287.930951,16.7066676 288.244286,16.52 C288.557621,16.3333324 288.767619,16.0600018 288.874286,15.7 L291.634286,16.58 C291.354284,17.4333376 290.810956,18.0833311 290.004286,18.53 C289.197615,18.9766689 288.207625,19.2 287.034286,19.2 C285.28761,19.2 283.950957,18.7466712 283.024286,17.84 C282.097614,16.9333288 281.634286,15.6533416 281.634286,14 C281.634286,12.3466584 282.087615,11.0666712 282.994286,10.16 C283.900957,9.2533288 285.187611,8.8 286.854286,8.8 C288.467627,8.8 289.704281,9.2433289 290.564286,10.13 C291.42429,11.0166711 291.854286,12.259992 291.854286,13.86 C291.854286,14.3133356 291.820953,14.6866652 291.754286,14.98 Z M284.914286,13.14 L288.674286,13.14 C288.514285,11.8333268 287.900958,11.18 286.834286,11.18 C285.75428,11.18 285.114287,11.8333268 284.914286,13.14 Z M302.762857,9.72 C303.389527,10.3333364 303.702857,11.206661 303.702857,12.34 L303.702857,19 L300.302857,19 L300.302857,13.28 C300.302857,12.5999966 300.179525,12.1166681 299.932857,11.83 C299.686189,11.5433319 299.336193,11.4 298.882857,11.4 C298.349521,11.4 297.916192,11.5899981 297.582857,11.97 C297.249522,12.3500019 297.082857,12.9333294 297.082857,13.72 L297.082857,19 L293.682857,19 L293.682857,9 L296.722857,9 L296.822857,10.92 C297.142859,10.2133298 297.596188,9.6833351 298.182857,9.33 C298.769527,8.9766649 299.456187,8.8 300.242857,8.8 C301.296196,8.8 302.136187,9.1066636 302.762857,9.72 Z M173.58,39.34 L167.6,39.34 L166.2,43 L164.52,43 L169.66,29.8 L171.56,29.8 L176.68,43 L174.98,43 L173.58,39.34 Z M173,37.84 L171.22,33.16 L170.6,31.32 L170.56,31.32 L169.98,33.1 L168.18,37.84 L173,37.84 Z M185.558571,33.49 C186.245242,33.9500023 186.781903,34.6066624 187.168571,35.46 L185.648571,36.18 C185.221903,34.8599934 184.335245,34.2 182.988571,34.2 C181.988566,34.2 181.205241,34.5366633 180.638571,35.21 C180.071902,35.8833367 179.788571,36.8133274 179.788571,38 C179.788571,39.1866726 180.071902,40.1166633 180.638571,40.79 C181.205241,41.4633367 181.988566,41.8 182.988571,41.8 C183.761909,41.8 184.385236,41.6233351 184.858571,41.27 C185.331907,40.9166649 185.641904,40.40667 185.788571,39.74 L187.268571,40.26 C186.921903,41.193338 186.388575,41.9166641 185.668571,42.43 C184.948568,42.9433359 184.068577,43.2 183.028571,43.2 C181.521897,43.2 180.338576,42.7400046 179.478571,41.82 C178.618567,40.8999954 178.188571,39.6266748 178.188571,38 C178.188571,36.3733252 178.618567,35.1000046 179.478571,34.18 C180.338576,33.2599954 181.521897,32.8 183.028571,32.8 C184.028576,32.8 184.871901,33.0299977 185.558571,33.49 Z M196.767143,33.49 C197.453813,33.9500023 197.990474,34.6066624 198.377143,35.46 L196.857143,36.18 C196.430474,34.8599934 195.543816,34.2 194.197143,34.2 C193.197138,34.2 192.413812,34.5366633 191.847143,35.21 C191.280473,35.8833367 190.997143,36.8133274 190.997143,38 C190.997143,39.1866726 191.280473,40.1166633 191.847143,40.79 C192.413812,41.4633367 193.197138,41.8 194.197143,41.8 C194.97048,41.8 195.593807,41.6233351 196.067143,41.27 C196.540479,40.9166649 196.850475,40.40667 196.997143,39.74 L198.477143,40.26 C198.130474,41.193338 197.597146,41.9166641 196.877143,42.43 C196.157139,42.9433359 195.277148,43.2 194.237143,43.2 C192.730469,43.2 191.547147,42.7400046 190.687143,41.82 C189.827139,40.8999954 189.397143,39.6266748 189.397143,38 C189.397143,36.3733252 189.827139,35.1000046 190.687143,34.18 C191.547147,33.2599954 192.730469,32.8 194.237143,32.8 C195.237148,32.8 196.080473,33.0299977 196.767143,33.49 Z M209.725714,38.6 L202.185714,38.6 C202.279048,39.6133384 202.615711,40.3999972 203.195714,40.96 C203.775717,41.5200028 204.52571,41.8 205.445714,41.8 C206.179051,41.8 206.789045,41.6733346 207.275714,41.42 C207.762383,41.1666654 208.09238,40.8000024 208.265714,40.32 L209.605714,41.02 C209.205712,41.7266702 208.672384,42.2666648 208.005714,42.64 C207.339044,43.0133352 206.485719,43.2 205.445714,43.2 C203.93904,43.2 202.755719,42.7400046 201.895714,41.82 C201.03571,40.8999954 200.605714,39.6266748 200.605714,38 C200.605714,36.3733252 201.01571,35.1000046 201.835714,34.18 C202.655718,33.2599954 203.81904,32.8 205.325714,32.8 C206.259052,32.8 207.065711,33.0066646 207.745714,33.42 C208.425718,33.8333354 208.939046,34.3933298 209.285714,35.1 C209.632383,35.8066702 209.805714,36.5999956 209.805714,37.48 C209.805714,37.8533352 209.779048,38.2266648 209.725714,38.6 Z M203.195714,34.98 C202.655712,35.5000026 202.325715,36.2333286 202.205714,37.18 L208.265714,37.18 C208.159047,36.246662 207.852383,35.5166693 207.345714,34.99 C206.839045,34.4633307 206.165718,34.2 205.325714,34.2 C204.44571,34.2 203.735717,34.4599974 203.195714,34.98 Z M220.434286,33.78 C221.167623,34.4333366 221.534286,35.3733272 221.534286,36.6 L221.534286,43 L219.934286,43 L219.934286,37.16 C219.934286,36.1199948 219.710955,35.366669 219.264286,34.9 C218.817617,34.433331 218.220956,34.2 217.474286,34.2 C216.94095,34.2 216.440955,34.3166655 215.974286,34.55 C215.507617,34.7833345 215.124287,35.1633307 214.824286,35.69 C214.524284,36.2166693 214.374286,36.879996 214.374286,37.68 L214.374286,43 L212.774286,43 L212.774286,33 L214.174286,33 L214.274286,34.56 C214.607621,33.959997 215.067616,33.5166681 215.654286,33.23 C216.240955,32.9433319 216.900949,32.8 217.634286,32.8 C218.767625,32.8 219.700949,33.1266634 220.434286,33.78 Z M231.062857,42.3 C230.396187,42.900003 229.536196,43.2 228.482857,43.2 C227.66952,43.2 227.006193,42.9800022 226.492857,42.54 C225.979521,42.0999978 225.716191,41.4266712 225.702857,40.52 L225.702857,34.38 L223.702857,34.38 L223.702857,33 L225.702857,33 L225.702857,30.6 L227.302857,30.16 L227.302857,33 L231.002857,33 L231.002857,34.38 L227.302857,34.38 L227.302857,40.24 C227.302857,40.7200024 227.439522,41.0833321 227.712857,41.33 C227.986192,41.5766679 228.349522,41.7 228.802857,41.7 C229.44286,41.7 230.009521,41.4533358 230.502857,40.96 L231.062857,42.3 Z M246.75,33.49 C247.43667,33.9500023 247.973331,34.6066624 248.36,35.46 L246.84,36.18 C246.413331,34.8599934 245.526673,34.2 244.18,34.2 C243.179995,34.2 242.39667,34.5366633 241.83,35.21 C241.263331,35.8833367 240.98,36.8133274 240.98,38 C240.98,39.1866726 241.263331,40.1166633 241.83,40.79 C242.39667,41.4633367 243.179995,41.8 244.18,41.8 C244.953337,41.8 245.576664,41.6233351 246.05,41.27 C246.523336,40.9166649 246.833333,40.40667 246.98,39.74 L248.46,40.26 C248.113332,41.193338 247.580004,41.9166641 246.86,42.43 C246.139996,42.9433359 245.260005,43.2 244.22,43.2 C242.713326,43.2 241.530004,42.7400046 240.67,41.82 C239.809996,40.8999954 239.38,39.6266748 239.38,38 C239.38,36.3733252 239.809996,35.1000046 240.67,34.18 C241.530004,33.2599954 242.713326,32.8 244.22,32.8 C245.220005,32.8 246.06333,33.0299977 246.75,33.49 Z M258.978571,34.18 C259.838576,35.1000046 260.268571,36.3733252 260.268571,38 C260.268571,39.6266748 259.838576,40.8999954 258.978571,41.82 C258.118567,42.7400046 256.935246,43.2 255.428571,43.2 C253.921897,43.2 252.738576,42.7400046 251.878571,41.82 C251.018567,40.8999954 250.588571,39.6266748 250.588571,38 C250.588571,36.3733252 251.018567,35.1000046 251.878571,34.18 C252.738576,33.2599954 253.921897,32.8 255.428571,32.8 C256.935246,32.8 258.118567,33.2599954 258.978571,34.18 Z M253.048571,35.2 C252.475235,35.8800034 252.188571,36.8133274 252.188571,38 C252.188571,39.1866726 252.475235,40.1199966 253.048571,40.8 C253.621908,41.4800034 254.415233,41.82 255.428571,41.82 C256.44191,41.82 257.235235,41.4800034 257.808571,40.8 C258.381908,40.1199966 258.668571,39.1866726 258.668571,38 C258.668571,36.8133274 258.381908,35.8800034 257.808571,35.2 C257.235235,34.5199966 256.44191,34.18 255.428571,34.18 C254.415233,34.18 253.621908,34.5199966 253.048571,35.2 Z M264.817143,40.32 C264.817143,40.8266692 264.893809,41.1766657 265.047143,41.37 C265.200477,41.5633343 265.483807,41.66 265.897143,41.66 C266.177144,41.66 266.420475,41.6400002 266.627143,41.6 C266.833811,41.5599998 267.077141,41.4866672 267.357143,41.38 L267.097143,42.92 C266.657141,43.1066676 266.163812,43.2 265.617143,43.2 C264.803805,43.2 264.200478,42.9800022 263.807143,42.54 C263.413808,42.0999978 263.217143,41.4266712 263.217143,40.52 L263.217143,28.4 L264.817143,28.4 L264.817143,40.32 Z M277.115714,34.18 C277.975719,35.1000046 278.405714,36.3733252 278.405714,38 C278.405714,39.6266748 277.975719,40.8999954 277.115714,41.82 C276.25571,42.7400046 275.072389,43.2 273.565714,43.2 C272.05904,43.2 270.875719,42.7400046 270.015714,41.82 C269.15571,40.8999954 268.725714,39.6266748 268.725714,38 C268.725714,36.3733252 269.15571,35.1000046 270.015714,34.18 C270.875719,33.2599954 272.05904,32.8 273.565714,32.8 C275.072389,32.8 276.25571,33.2599954 277.115714,34.18 Z M271.185714,35.2 C270.612378,35.8800034 270.325714,36.8133274 270.325714,38 C270.325714,39.1866726 270.612378,40.1199966 271.185714,40.8 C271.759051,41.4800034 272.552376,41.82 273.565714,41.82 C274.579053,41.82 275.372378,41.4800034 275.945714,40.8 C276.519051,40.1199966 276.805714,39.1866726 276.805714,38 C276.805714,36.8133274 276.519051,35.8800034 275.945714,35.2 C275.372378,34.5199966 274.579053,34.18 273.565714,34.18 C272.552376,34.18 271.759051,34.5199966 271.185714,35.2 Z M290.094286,33 L290.094286,43 L288.694286,43 L288.594286,41.48 C287.927616,42.6266724 286.734294,43.2 285.014286,43.2 C283.93428,43.2 283.050956,42.900003 282.364286,42.3 C281.677616,41.699997 281.334286,40.7800062 281.334286,39.54 L281.334286,33 L282.934286,33 L282.934286,39.12 C282.934286,40.0933382 283.134284,40.7833313 283.534286,41.19 C283.934288,41.5966687 284.520949,41.8 285.294286,41.8 C286.21429,41.8 286.977616,41.5200028 287.584286,40.96 C288.190955,40.3999972 288.494286,39.5600056 288.494286,38.44 L288.494286,33 L290.094286,33 Z M299.562857,33 L299.242857,34.56 C298.922856,34.3866658 298.50286,34.3 297.982857,34.3 C297.556188,34.3 297.139526,34.4233321 296.732857,34.67 C296.326188,34.9166679 295.992858,35.2899975 295.732857,35.79 C295.472856,36.2900025 295.342857,36.8933298 295.342857,37.6 L295.342857,43 L293.742857,43 L293.742857,33 L295.042857,33 L295.262857,34.64 C295.82286,33.4133272 296.889516,32.8 298.462857,32.8 C298.94286,32.8 299.309523,32.866666 299.562857,33 Z M173.7,82.66 L173.12,86.04 L175.5,86.04 L175.5,87.26 L172.92,87.26 L172.3,91 L170.94,91 L171.56,87.26 L168.24,87.26 L167.62,91 L166.26,91 L166.88,87.26 L164.4,87.26 L164.4,86.04 L167.08,86.04 L167.66,82.66 L165.28,82.66 L165.28,81.44 L167.86,81.44 L168.46,77.8 L169.82,77.8 L169.22,81.44 L172.54,81.44 L173.14,77.8 L174.5,77.8 L173.9,81.44 L176.38,81.44 L176.38,82.66 L173.7,82.66 Z M172.34,82.66 L169.02,82.66 L168.44,86.04 L171.76,86.04 L172.34,82.66 Z M179.288571,89.46 C178.448567,88.2999942 178.028571,86.6133444 178.028571,84.4 C178.028571,82.1866556 178.448567,80.5000058 179.288571,79.34 C180.128576,78.1799942 181.348563,77.6 182.948571,77.6 C184.548579,77.6 185.768567,78.1799942 186.608571,79.34 C187.448576,80.5000058 187.868571,82.1866556 187.868571,84.4 C187.868571,86.6133444 187.448576,88.2999942 186.608571,89.46 C185.768567,90.6200058 184.548579,91.2 182.948571,91.2 C181.348563,91.2 180.128576,90.6200058 179.288571,89.46 Z M185.368571,88.39 C185.928574,87.4766621 186.208571,86.1466754 186.208571,84.4 C186.208571,82.6533246 185.928574,81.3233379 185.368571,80.41 C184.808569,79.4966621 184.00191,79.04 182.948571,79.04 C181.895233,79.04 181.088574,79.4966621 180.528571,80.41 C179.968569,81.3233379 179.688571,82.6533246 179.688571,84.4 C179.688571,86.1466754 179.968569,87.4766621 180.528571,88.39 C181.088574,89.3033379 181.895233,89.76 182.948571,89.76 C184.00191,89.76 184.808569,89.3033379 185.368571,88.39 Z M191.657143,89.46 C190.817139,88.2999942 190.397143,86.6133444 190.397143,84.4 C190.397143,82.1866556 190.817139,80.5000058 191.657143,79.34 C192.497147,78.1799942 193.717135,77.6 195.317143,77.6 C196.917151,77.6 198.137139,78.1799942 198.977143,79.34 C199.817147,80.5000058 200.237143,82.1866556 200.237143,84.4 C200.237143,86.6133444 199.817147,88.2999942 198.977143,89.46 C198.137139,90.6200058 196.917151,91.2 195.317143,91.2 C193.717135,91.2 192.497147,90.6200058 191.657143,89.46 Z M197.737143,88.39 C198.297146,87.4766621 198.577143,86.1466754 198.577143,84.4 C198.577143,82.6533246 198.297146,81.3233379 197.737143,80.41 C197.17714,79.4966621 196.370481,79.04 195.317143,79.04 C194.263804,79.04 193.457146,79.4966621 192.897143,80.41 C192.33714,81.3233379 192.057143,82.6533246 192.057143,84.4 C192.057143,86.1466754 192.33714,87.4766621 192.897143,88.39 C193.457146,89.3033379 194.263804,89.76 195.317143,89.76 C196.370481,89.76 197.17714,89.3033379 197.737143,88.39 Z M212.225714,90.25 C211.279043,90.8833365 210.18572,91.2 208.945714,91.2 C207.705708,91.2 206.625719,90.9233361 205.705714,90.37 C204.78571,89.8166639 204.075717,89.0300051 203.575714,88.01 C203.075712,86.9899949 202.825714,85.7866736 202.825714,84.4 C202.825714,83.0266598 203.075712,81.8266718 203.575714,80.8 C204.075717,79.7733282 204.78571,78.9833361 205.705714,78.43 C206.625719,77.8766639 207.692375,77.6 208.905714,77.6 C210.172387,77.6 211.23571,77.8599974 212.095714,78.38 C212.955719,78.9000026 213.599045,79.6666616 214.025714,80.68 L212.445714,81.42 C212.152379,80.6466628 211.725717,80.0666686 211.165714,79.68 C210.605711,79.2933314 209.892385,79.1 209.025714,79.1 C208.119043,79.1 207.325718,79.3099979 206.645714,79.73 C205.965711,80.1500021 205.439049,80.759996 205.065714,81.56 C204.692379,82.360004 204.505714,83.3066612 204.505714,84.4 C204.505714,86.0533416 204.902377,87.3499953 205.695714,88.29 C206.489052,89.2300047 207.572374,89.7 208.945714,89.7 C209.839052,89.7 210.612378,89.4733356 211.265714,89.02 C211.919051,88.5666644 212.385713,87.9000044 212.665714,87.02 L214.265714,87.62 C213.852379,88.7400056 213.172386,89.6166635 212.225714,90.25 Z M224.694286,87.34 L218.714286,87.34 L217.314286,91 L215.634286,91 L220.774286,77.8 L222.674286,77.8 L227.794286,91 L226.094286,91 L224.694286,87.34 Z M224.114286,85.84 L222.334286,81.16 L221.714286,79.32 L221.674286,79.32 L221.094286,81.1 L219.294286,85.84 L224.114286,85.84 Z M237.822857,87.34 L231.842857,87.34 L230.442857,91 L228.762857,91 L233.902857,77.8 L235.802857,77.8 L240.922857,91 L239.222857,91 L237.822857,87.34 Z M237.242857,85.84 L235.462857,81.16 L234.842857,79.32 L234.802857,79.32 L234.222857,81.1 L232.422857,85.84 L237.242857,85.84 Z M245.131429,79.3 L245.131429,83.56 L251.091429,83.56 L251.091429,85.06 L245.131429,85.06 L245.131429,91 L243.531429,91 L243.531429,77.8 L252.771429,77.8 L252.771429,79.3 L245.131429,79.3 Z"/>
        <circle cx="50" cy="50" r="50" fill="#00CAAF"/>
      </g>
      <g transform="translate(0 410)">
        <path fill="#272727" d="M177.38,5.8 L177.38,19 L173.94,19 L173.94,13.68 L168.9,13.68 L168.9,19 L165.46,19 L165.46,5.8 L168.9,5.8 L168.9,11.02 L173.94,11.02 L173.94,5.8 L177.38,5.8 Z M180.178571,7.45 C179.865237,7.1899987 179.708571,6.7800028 179.708571,6.22 C179.708571,5.6466638 179.865237,5.2300013 180.178571,4.97 C180.491906,4.7099987 180.995235,4.58 181.688571,4.58 C182.381908,4.58 182.885237,4.7099987 183.198571,4.97 C183.511906,5.2300013 183.668571,5.6466638 183.668571,6.22 C183.668571,6.7800028 183.511906,7.1899987 183.198571,7.45 C182.885237,7.7100013 182.381908,7.84 181.688571,7.84 C180.995235,7.84 180.491906,7.7100013 180.178571,7.45 Z M183.388571,19 L179.988571,19 L179.988571,9 L183.388571,9 L183.388571,19 Z M194.767143,17.54 C195.400479,18.0466692 195.717143,18.7933284 195.717143,19.78 C195.717143,20.913339 195.213815,21.7833303 194.207143,22.39 C193.200471,22.9966697 191.830485,23.3 190.097143,23.3 C188.350467,23.3 187.06048,23.0933354 186.227143,22.68 C185.393805,22.2666646 184.977143,21.6866704 184.977143,20.94 C184.977143,20.4999978 185.130475,20.113335 185.437143,19.78 C185.743811,19.446665 186.210473,19.2066674 186.837143,19.06 C185.810471,18.6199978 185.297143,17.9266714 185.297143,16.98 C185.297143,16.513331 185.443808,16.1000018 185.737143,15.74 C186.030478,15.3799982 186.430474,15.1133342 186.937143,14.94 C185.843804,14.3533304 185.297143,13.4400062 185.297143,12.2 C185.297143,11.1199946 185.723805,10.2833363 186.577143,9.69 C187.43048,9.0966637 188.630468,8.8 190.177143,8.8 C190.897146,8.8 191.563806,8.8733326 192.177143,9.02 C192.310477,8.219996 192.610474,7.5666692 193.077143,7.06 C193.543812,6.5533308 194.190472,6.3 195.017143,6.3 L195.337143,6.32 L195.717143,8.58 C195.450475,8.5533332 195.26381,8.54 195.157143,8.54 C194.703807,8.54 194.327144,8.6199992 194.027143,8.78 C193.727141,8.9400008 193.510477,9.1599986 193.377143,9.44 C194.497148,10.0266696 195.057143,10.9466604 195.057143,12.2 C195.057143,13.2800054 194.63048,14.1133304 193.777143,14.7 C192.923805,15.2866696 191.723817,15.58 190.177143,15.58 C189.457139,15.58 188.817146,15.5200006 188.257143,15.4 C187.843807,15.5066672 187.637143,15.7399982 187.637143,16.1 C187.637143,16.5533356 187.983806,16.78 188.677143,16.78 L192.077143,16.78 C193.237149,16.78 194.133806,17.0333308 194.767143,17.54 Z M189.107143,11.14 C188.833808,11.406668 188.697143,11.7599978 188.697143,12.2 C188.697143,12.6400022 188.833808,12.9899987 189.107143,13.25 C189.380478,13.5100013 189.737141,13.64 190.177143,13.64 C190.617145,13.64 190.973808,13.5100013 191.247143,13.25 C191.520478,12.9899987 191.657143,12.6400022 191.657143,12.2 C191.657143,11.7599978 191.520478,11.406668 191.247143,11.14 C190.973808,10.873332 190.617145,10.74 190.177143,10.74 C189.737141,10.74 189.380478,10.873332 189.107143,11.14 Z M192.347143,20.83 C192.807145,20.6499991 193.037143,20.4133348 193.037143,20.12 C193.037143,19.9066656 192.94381,19.7466672 192.757143,19.64 C192.570475,19.5333328 192.257145,19.48 191.817143,19.48 L189.077143,19.48 C188.530473,19.48 188.140477,19.5366661 187.907143,19.65 C187.673808,19.7633339 187.557143,19.9399988 187.557143,20.18 C187.557143,20.7933364 188.4838,21.1 190.337143,21.1 C191.217147,21.1 191.887141,21.0100009 192.347143,20.83 Z M206.115714,17.54 C206.749051,18.0466692 207.065714,18.7933284 207.065714,19.78 C207.065714,20.913339 206.562386,21.7833303 205.555714,22.39 C204.549043,22.9966697 203.179056,23.3 201.445714,23.3 C199.699039,23.3 198.409052,23.0933354 197.575714,22.68 C196.742377,22.2666646 196.325714,21.6866704 196.325714,20.94 C196.325714,20.4999978 196.479046,20.113335 196.785714,19.78 C197.092382,19.446665 197.559044,19.2066674 198.185714,19.06 C197.159042,18.6199978 196.645714,17.9266714 196.645714,16.98 C196.645714,16.513331 196.792379,16.1000018 197.085714,15.74 C197.379049,15.3799982 197.779045,15.1133342 198.285714,14.94 C197.192375,14.3533304 196.645714,13.4400062 196.645714,12.2 C196.645714,11.1199946 197.072377,10.2833363 197.925714,9.69 C198.779052,9.0966637 199.97904,8.8 201.525714,8.8 C202.245718,8.8 202.912378,8.8733326 203.525714,9.02 C203.659048,8.219996 203.959045,7.5666692 204.425714,7.06 C204.892383,6.5533308 205.539043,6.3 206.365714,6.3 L206.685714,6.32 L207.065714,8.58 C206.799046,8.5533332 206.612381,8.54 206.505714,8.54 C206.052379,8.54 205.675716,8.6199992 205.375714,8.78 C205.075713,8.9400008 204.859048,9.1599986 204.725714,9.44 C205.84572,10.0266696 206.405714,10.9466604 206.405714,12.2 C206.405714,13.2800054 205.979052,14.1133304 205.125714,14.7 C204.272377,15.2866696 203.072389,15.58 201.525714,15.58 C200.805711,15.58 200.165717,15.5200006 199.605714,15.4 C199.192379,15.5066672 198.985714,15.7399982 198.985714,16.1 C198.985714,16.5533356 199.332377,16.78 200.025714,16.78 L203.425714,16.78 C204.58572,16.78 205.482378,17.0333308 206.115714,17.54 Z M200.455714,11.14 C200.18238,11.406668 200.045714,11.7599978 200.045714,12.2 C200.045714,12.6400022 200.18238,12.9899987 200.455714,13.25 C200.729049,13.5100013 201.085712,13.64 201.525714,13.64 C201.965716,13.64 202.32238,13.5100013 202.595714,13.25 C202.869049,12.9899987 203.005714,12.6400022 203.005714,12.2 C203.005714,11.7599978 202.869049,11.406668 202.595714,11.14 C202.32238,10.873332 201.965716,10.74 201.525714,10.74 C201.085712,10.74 200.729049,10.873332 200.455714,11.14 Z M203.695714,20.83 C204.155717,20.6499991 204.385714,20.4133348 204.385714,20.12 C204.385714,19.9066656 204.292382,19.7466672 204.105714,19.64 C203.919047,19.5333328 203.605716,19.48 203.165714,19.48 L200.425714,19.48 C199.879045,19.48 199.489049,19.5366661 199.255714,19.65 C199.02238,19.7633339 198.905714,19.9399988 198.905714,20.18 C198.905714,20.7933364 199.832372,21.1 201.685714,21.1 C202.565719,21.1 203.235712,21.0100009 203.695714,20.83 Z M211.694286,15.54 C211.694286,15.9933356 211.760952,16.3133324 211.894286,16.5 C212.02762,16.6866676 212.267617,16.78 212.614286,16.78 C212.934287,16.78 213.274284,16.7200006 213.634286,16.6 L213.414286,18.7 C213.174285,18.8466674 212.860954,18.9666662 212.474286,19.06 C212.087617,19.1533338 211.707621,19.2 211.334286,19.2 C210.267614,19.2 209.494288,18.9500025 209.014286,18.45 C208.534283,17.9499975 208.294286,17.1466722 208.294286,16.04 L208.294286,4.76 L211.694286,4.76 L211.694286,15.54 Z M224.442857,14.98 L217.622857,14.98 C217.729524,15.6066698 217.959522,16.0666652 218.312857,16.36 C218.666192,16.6533348 219.136188,16.8 219.722857,16.8 C220.216193,16.8 220.619522,16.7066676 220.932857,16.52 C221.246192,16.3333324 221.45619,16.0600018 221.562857,15.7 L224.322857,16.58 C224.042856,17.4333376 223.499528,18.0833311 222.692857,18.53 C221.886186,18.9766689 220.896196,19.2 219.722857,19.2 C217.976182,19.2 216.639528,18.7466712 215.712857,17.84 C214.786186,16.9333288 214.322857,15.6533416 214.322857,14 C214.322857,12.3466584 214.776186,11.0666712 215.682857,10.16 C216.589528,9.2533288 217.876182,8.8 219.542857,8.8 C221.156199,8.8 222.392853,9.2433289 223.252857,10.13 C224.112861,11.0166711 224.542857,12.259992 224.542857,13.86 C224.542857,14.3133356 224.509524,14.6866652 224.442857,14.98 Z M217.602857,13.14 L221.362857,13.14 C221.202856,11.8333268 220.589529,11.18 219.522857,11.18 C218.442852,11.18 217.802858,11.8333268 217.602857,13.14 Z M233.631429,9.02 L233.271429,11.9 C233.138095,11.8199996 232.958096,11.7500003 232.731429,11.69 C232.504761,11.6299997 232.264763,11.6 232.011429,11.6 C231.371425,11.6 230.838097,11.8033313 230.411429,12.21 C229.98476,12.6166687 229.771429,13.1999962 229.771429,13.96 L229.771429,19 L226.371429,19 L226.371429,9 L229.371429,9 L229.511429,11.16 C229.75143,10.3999962 230.128093,9.8166687 230.641429,9.41 C231.154764,9.0033313 231.791425,8.8 232.551429,8.8 C233.004764,8.8 233.364761,8.8733326 233.631429,9.02 Z M238.45,5.92 C238.816669,6.4000024 239,7.0133296 239,7.76 C239,8.6400044 238.763336,9.4366631 238.29,10.15 C237.816664,10.8633369 237.126671,11.4133314 236.22,11.8 L234.72,10.74 C236.040007,10.2466642 236.873332,9.533338 237.22,8.6 L237.12,8.54 C236.986666,8.6866674 236.786668,8.76 236.52,8.76 C236.079998,8.76 235.690002,8.6166681 235.35,8.33 C235.009998,8.0433319 234.84,7.6266694 234.84,7.08 C234.84,6.479997 235.023332,6.0166683 235.39,5.69 C235.756669,5.3633317 236.239997,5.2 236.84,5.2 C237.54667,5.2 238.083332,5.4399976 238.45,5.92 Z M239.288571,17.44 L241.048571,15.52 C241.621908,16.4666714 242.608564,16.94 244.008571,16.94 C244.47524,16.94 244.841903,16.8766673 245.108571,16.75 C245.375239,16.6233327 245.508571,16.4533344 245.508571,16.24 C245.508571,16.0533324 245.371906,15.8900007 245.098571,15.75 C244.825237,15.6099993 244.355241,15.473334 243.688571,15.34 C242.195231,15.0466652 241.131908,14.6466692 240.498571,14.14 C239.865235,13.6333308 239.548571,12.9600042 239.548571,12.12 C239.548571,11.5466638 239.72857,11.0066692 240.088571,10.5 C240.448573,9.9933308 240.991901,9.5833349 241.718571,9.27 C242.445242,8.9566651 243.328566,8.8 244.368571,8.8 C245.515244,8.8 246.451901,8.9566651 247.178571,9.27 C247.905242,9.5833349 248.495236,10.0533302 248.948571,10.68 L247.188571,12.4 C246.86857,11.933331 246.488574,11.5933344 246.048571,11.38 C245.608569,11.1666656 245.081908,11.06 244.468571,11.06 C243.988569,11.06 243.615239,11.1333326 243.348571,11.28 C243.081903,11.4266674 242.948571,11.6066656 242.948571,11.82 C242.948571,12.020001 243.085237,12.1899993 243.358571,12.33 C243.631906,12.4700007 244.108568,12.606666 244.788571,12.74 C246.255245,12.9933346 247.311902,13.3699975 247.958571,13.87 C248.605241,14.3700025 248.928571,15.053329 248.928571,15.92 C248.928571,16.8933382 248.521909,17.6833303 247.708571,18.29 C246.895234,18.8966697 245.715246,19.2 244.168571,19.2 C241.875227,19.2 240.248576,18.6133392 239.288571,17.44 Z M265.705714,10.18 C266.439051,11.1000046 266.805714,12.3866584 266.805714,14.04 C266.805714,15.6666748 266.445718,16.9333288 265.725714,17.84 C265.005711,18.7466712 263.992388,19.2 262.685714,19.2 C261.899044,19.2 261.215717,18.9900021 260.635714,18.57 C260.055711,18.1499979 259.625716,17.5866702 259.345714,16.88 L259.245714,19 L256.265714,19 L256.265714,4.76 L259.665714,4.76 L259.665714,10.68 C259.945716,10.0933304 260.342378,9.633335 260.855714,9.3 C261.36905,8.966665 261.979044,8.8 262.685714,8.8 C263.965721,8.8 264.972377,9.2599954 265.705714,10.18 Z M262.895714,16.04 C263.222383,15.5999978 263.385714,14.9200046 263.385714,14 C263.385714,13.0799954 263.222383,12.4000022 262.895714,11.96 C262.569046,11.5199978 262.105717,11.3 261.505714,11.3 C260.919045,11.3 260.465716,11.5266644 260.145714,11.98 C259.825713,12.4333356 259.665714,13.0733292 259.665714,13.9 L259.665714,14.1 C259.665714,14.9533376 259.829046,15.5999978 260.155714,16.04 C260.482383,16.4800022 260.932378,16.7 261.505714,16.7 C262.105717,16.7 262.569046,16.4800022 262.895714,16.04 Z M272.114286,15.54 C272.114286,15.9933356 272.180952,16.3133324 272.314286,16.5 C272.44762,16.6866676 272.687617,16.78 273.034286,16.78 C273.354287,16.78 273.694284,16.7200006 274.054286,16.6 L273.834286,18.7 C273.594285,18.8466674 273.280954,18.9666662 272.894286,19.06 C272.507617,19.1533338 272.127621,19.2 271.754286,19.2 C270.687614,19.2 269.914288,18.9500025 269.434286,18.45 C268.954283,17.9499975 268.714286,17.1466722 268.714286,16.04 L268.714286,4.76 L272.114286,4.76 L272.114286,15.54 Z M285.542857,16.98 L285.282857,18.88 C284.896189,19.0933344 284.44286,19.2 283.922857,19.2 C282.48285,19.2 281.622859,18.6866718 281.342857,17.66 C280.742854,18.6866718 279.556199,19.2 277.782857,19.2 C276.782852,19.2 276.016193,18.9866688 275.482857,18.56 C274.949521,18.1333312 274.682857,17.5133374 274.682857,16.7 C274.682857,15.8466624 274.986187,15.1566693 275.592857,14.63 C276.199527,14.1033307 277.196184,13.7000014 278.582857,13.42 L280.842857,12.98 L280.842857,12.62 C280.842857,12.1666644 280.716192,11.806668 280.462857,11.54 C280.209523,11.273332 279.862859,11.14 279.422857,11.14 C278.916188,11.14 278.502859,11.2599988 278.182857,11.5 C277.862856,11.7400012 277.656191,12.1333306 277.562857,12.68 L274.802857,11.88 C274.976191,10.9066618 275.456187,10.1500027 276.242857,9.61 C277.029528,9.0699973 278.089517,8.8 279.422857,8.8 C280.982865,8.8 282.16952,9.1199968 282.982857,9.76 C283.796195,10.4000032 284.202857,11.3599936 284.202857,12.64 L284.202857,16.28 C284.202857,16.8000026 284.442855,17.06 284.922857,17.06 C285.176192,17.06 285.382856,17.0333336 285.542857,16.98 Z M280.282857,16.61 C280.656192,16.3499987 280.842857,16.0066688 280.842857,15.58 L280.842857,14.72 L279.222857,15.1 C278.796188,15.2066672 278.492858,15.3366659 278.312857,15.49 C278.132856,15.6433341 278.042857,15.8599986 278.042857,16.14 C278.042857,16.4200014 278.129523,16.6333326 278.302857,16.78 C278.476191,16.9266674 278.716189,17 279.022857,17 C279.489526,17 279.909522,16.8700013 280.282857,16.61 Z M294.911429,9.66 C295.671432,10.2333362 296.144761,10.9799954 296.331429,11.9 L293.171429,12.94 C293.038095,11.7933276 292.524766,11.22 291.631429,11.22 C290.311422,11.22 289.651429,12.1599906 289.651429,14.04 C289.651429,15.8666758 290.311422,16.78 291.631429,16.78 C292.5781,16.78 293.131428,16.2400054 293.291429,15.16 L296.351429,16.14 C296.204761,17.0466712 295.721433,17.7833305 294.901429,18.35 C294.081425,18.9166695 292.998102,19.2 291.651429,19.2 C289.918087,19.2 288.584767,18.7466712 287.651429,17.84 C286.718091,16.9333288 286.251429,15.6533416 286.251429,14 C286.251429,12.3599918 286.714757,11.0833379 287.641429,10.17 C288.5681,9.2566621 289.858087,8.8 291.511429,8.8 C293.018103,8.8 294.151425,9.0866638 294.911429,9.66 Z M303.1,14.9 L301.48,16.7 L301.48,19 L298.08,19 L298.08,4.76 L301.48,4.76 L301.48,13.2 L305.3,9 L309.06,9 L305.38,12.92 L309.28,19 L305.52,19 L303.1,14.9 Z M174.76,42.25 C173.813329,42.8833365 172.720006,43.2 171.48,43.2 C170.239994,43.2 169.160005,42.9233361 168.24,42.37 C167.319995,41.8166639 166.610003,41.0300051 166.11,40.01 C165.609997,38.9899949 165.36,37.7866736 165.36,36.4 C165.36,35.0266598 165.609997,33.8266718 166.11,32.8 C166.610003,31.7733282 167.319995,30.9833361 168.24,30.43 C169.160005,29.8766639 170.226661,29.6 171.44,29.6 C172.706673,29.6 173.769996,29.8599974 174.63,30.38 C175.490004,30.9000026 176.133331,31.6666616 176.56,32.68 L174.98,33.42 C174.686665,32.6466628 174.260003,32.0666686 173.7,31.68 C173.139997,31.2933314 172.426671,31.1 171.56,31.1 C170.653329,31.1 169.860003,31.3099979 169.18,31.73 C168.499997,32.1500021 167.973335,32.759996 167.6,33.56 C167.226665,34.360004 167.04,35.3066612 167.04,36.4 C167.04,38.0533416 167.436663,39.3499953 168.23,40.29 C169.023337,41.2300047 170.10666,41.7 171.48,41.7 C172.373338,41.7 173.146663,41.4733356 173.8,41.02 C174.453337,40.5666644 174.919999,39.9000044 175.2,39.02 L176.8,39.62 C176.386665,40.7400056 175.706671,41.6166635 174.76,42.25 Z M187.278571,34.18 C188.138576,35.1000046 188.568571,36.3733252 188.568571,38 C188.568571,39.6266748 188.138576,40.8999954 187.278571,41.82 C186.418567,42.7400046 185.235246,43.2 183.728571,43.2 C182.221897,43.2 181.038576,42.7400046 180.178571,41.82 C179.318567,40.8999954 178.888571,39.6266748 178.888571,38 C178.888571,36.3733252 179.318567,35.1000046 180.178571,34.18 C181.038576,33.2599954 182.221897,32.8 183.728571,32.8 C185.235246,32.8 186.418567,33.2599954 187.278571,34.18 Z M181.348571,35.2 C180.775235,35.8800034 180.488571,36.8133274 180.488571,38 C180.488571,39.1866726 180.775235,40.1199966 181.348571,40.8 C181.921908,41.4800034 182.715233,41.82 183.728571,41.82 C184.74191,41.82 185.535235,41.4800034 186.108571,40.8 C186.681908,40.1199966 186.968571,39.1866726 186.968571,38 C186.968571,36.8133274 186.681908,35.8800034 186.108571,35.2 C185.535235,34.5199966 184.74191,34.18 183.728571,34.18 C182.715233,34.18 181.921908,34.5199966 181.348571,35.2 Z M205.087143,33.21 C205.667146,33.4833347 206.137141,33.9066638 206.497143,34.48 C206.857145,35.0533362 207.037143,35.7599958 207.037143,36.6 L207.037143,43 L205.437143,43 L205.437143,36.76 C205.437143,35.893329 205.220478,35.2500021 204.787143,34.83 C204.353807,34.4099979 203.783813,34.2 203.077143,34.2 C202.543807,34.2 202.053812,34.3299987 201.607143,34.59 C201.160474,34.8500013 200.800478,35.2299975 200.527143,35.73 C200.253808,36.2300025 200.117143,36.8266632 200.117143,37.52 L200.117143,43 L198.517143,43 L198.517143,36.76 C198.517143,35.893329 198.300478,35.2500021 197.867143,34.83 C197.433807,34.4099979 196.863813,34.2 196.157143,34.2 C195.67714,34.2 195.210478,34.3233321 194.757143,34.57 C194.303807,34.8166679 193.930478,35.1999974 193.637143,35.72 C193.343808,36.2400026 193.197143,36.8866628 193.197143,37.66 L193.197143,43 L191.597143,43 L191.597143,33 L192.997143,33 L193.097143,34.56 C193.443811,33.9733304 193.900473,33.5333348 194.467143,33.24 C195.033812,32.9466652 195.643806,32.8 196.297143,32.8 C197.03048,32.8 197.70714,32.966665 198.327143,33.3 C198.947146,33.633335 199.417141,34.1199968 199.737143,34.76 C200.030478,34.1199968 200.510473,33.633335 201.177143,33.3 C201.843813,32.966665 202.523806,32.8 203.217143,32.8 C203.883813,32.8 204.50714,32.9366653 205.087143,33.21 Z M218.835714,34.19 C219.655718,35.1166713 220.065714,36.3866586 220.065714,38 C220.065714,39.6133414 219.655718,40.8833287 218.835714,41.81 C218.01571,42.7366713 216.905721,43.2 215.505714,43.2 C214.772377,43.2 214.115717,43.0400016 213.535714,42.72 C212.955711,42.3999984 212.505716,41.973336 212.185714,41.44 L212.185714,47.2 L210.585714,47.2 L210.585714,33 L211.985714,33 L212.085714,34.74 C212.379049,34.1533304 212.829045,33.6833351 213.435714,33.33 C214.042384,32.9766649 214.732377,32.8 215.505714,32.8 C216.905721,32.8 218.01571,33.2633287 218.835714,34.19 Z M217.625714,40.77 C218.185717,40.0833299 218.465714,39.1600058 218.465714,38 C218.465714,36.8399942 218.185717,35.9166701 217.625714,35.23 C217.065711,34.5433299 216.299052,34.2 215.325714,34.2 C214.365709,34.2 213.602384,34.53333 213.035714,35.2 C212.469045,35.86667 212.185714,36.7599944 212.185714,37.88 L212.185714,38.12 C212.185714,39.2400056 212.469045,40.13333 213.035714,40.8 C213.602384,41.46667 214.365709,41.8 215.325714,41.8 C216.299052,41.8 217.065711,41.4566701 217.625714,40.77 Z M230.884286,34.18 C231.74429,35.1000046 232.174286,36.3733252 232.174286,38 C232.174286,39.6266748 231.74429,40.8999954 230.884286,41.82 C230.024281,42.7400046 228.84096,43.2 227.334286,43.2 C225.827612,43.2 224.64429,42.7400046 223.784286,41.82 C222.924281,40.8999954 222.494286,39.6266748 222.494286,38 C222.494286,36.3733252 222.924281,35.1000046 223.784286,34.18 C224.64429,33.2599954 225.827612,32.8 227.334286,32.8 C228.84096,32.8 230.024281,33.2599954 230.884286,34.18 Z M224.954286,35.2 C224.38095,35.8800034 224.094286,36.8133274 224.094286,38 C224.094286,39.1866726 224.38095,40.1199966 224.954286,40.8 C225.527622,41.4800034 226.320947,41.82 227.334286,41.82 C228.347624,41.82 229.14095,41.4800034 229.714286,40.8 C230.287622,40.1199966 230.574286,39.1866726 230.574286,38 C230.574286,36.8133274 230.287622,35.8800034 229.714286,35.2 C229.14095,34.5199966 228.347624,34.18 227.334286,34.18 C226.320947,34.18 225.527622,34.5199966 224.954286,35.2 Z M242.862857,33.78 C243.596194,34.4333366 243.962857,35.3733272 243.962857,36.6 L243.962857,43 L242.362857,43 L242.362857,37.16 C242.362857,36.1199948 242.139526,35.366669 241.692857,34.9 C241.246188,34.433331 240.649528,34.2 239.902857,34.2 C239.369521,34.2 238.869526,34.3166655 238.402857,34.55 C237.936188,34.7833345 237.552859,35.1633307 237.252857,35.69 C236.952856,36.2166693 236.802857,36.879996 236.802857,37.68 L236.802857,43 L235.202857,43 L235.202857,33 L236.602857,33 L236.702857,34.56 C237.036192,33.959997 237.496188,33.5166681 238.082857,33.23 C238.669527,32.9433319 239.32952,32.8 240.062857,32.8 C241.196196,32.8 242.12952,33.1266634 242.862857,33.78 Z M256.011429,38.6 L248.471429,38.6 C248.564762,39.6133384 248.901426,40.3999972 249.481429,40.96 C250.061431,41.5200028 250.811424,41.8 251.731429,41.8 C252.464766,41.8 253.074759,41.6733346 253.561429,41.42 C254.048098,41.1666654 254.378094,40.8000024 254.551429,40.32 L255.891429,41.02 C255.491427,41.7266702 254.958099,42.2666648 254.291429,42.64 C253.624759,43.0133352 252.771434,43.2 251.731429,43.2 C250.224754,43.2 249.041433,42.7400046 248.181429,41.82 C247.321424,40.8999954 246.891429,39.6266748 246.891429,38 C246.891429,36.3733252 247.301424,35.1000046 248.121429,34.18 C248.941433,33.2599954 250.104754,32.8 251.611429,32.8 C252.544767,32.8 253.351425,33.0066646 254.031429,33.42 C254.711432,33.8333354 255.22476,34.3933298 255.571429,35.1 C255.918097,35.8066702 256.091429,36.5999956 256.091429,37.48 C256.091429,37.8533352 256.064762,38.2266648 256.011429,38.6 Z M249.481429,34.98 C248.941426,35.5000026 248.611429,36.2333286 248.491429,37.18 L254.551429,37.18 C254.444761,36.246662 254.138098,35.5166693 253.631429,34.99 C253.124759,34.4633307 252.451433,34.2 251.611429,34.2 C250.731424,34.2 250.021431,34.4599974 249.481429,34.98 Z M266.72,33.78 C267.453337,34.4333366 267.82,35.3733272 267.82,36.6 L267.82,43 L266.22,43 L266.22,37.16 C266.22,36.1199948 265.996669,35.366669 265.55,34.9 C265.103331,34.433331 264.50667,34.2 263.76,34.2 C263.226664,34.2 262.726669,34.3166655 262.26,34.55 C261.793331,34.7833345 261.410002,35.1633307 261.11,35.69 C260.809999,36.2166693 260.66,36.879996 260.66,37.68 L260.66,43 L259.06,43 L259.06,33 L260.46,33 L260.56,34.56 C260.893335,33.959997 261.35333,33.5166681 261.94,33.23 C262.52667,32.9433319 263.186663,32.8 263.92,32.8 C265.053339,32.8 265.986663,33.1266634 266.72,33.78 Z M277.348571,42.3 C276.681901,42.900003 275.82191,43.2 274.768571,43.2 C273.955234,43.2 273.291907,42.9800022 272.778571,42.54 C272.265236,42.0999978 272.001905,41.4266712 271.988571,40.52 L271.988571,34.38 L269.988571,34.38 L269.988571,33 L271.988571,33 L271.988571,30.6 L273.588571,30.16 L273.588571,33 L277.288571,33 L277.288571,34.38 L273.588571,34.38 L273.588571,40.24 C273.588571,40.7200024 273.725237,41.0833321 273.998571,41.33 C274.271906,41.5766679 274.635236,41.7 275.088571,41.7 C275.728575,41.7 276.295236,41.4533358 276.788571,40.96 L277.348571,42.3 Z M280.337143,42.63 C279.563806,42.2499981 278.997145,41.6866704 278.637143,40.94 L279.937143,40.04 C280.163811,40.6266696 280.55714,41.0666652 281.117143,41.36 C281.677146,41.6533348 282.337139,41.8 283.097143,41.8 C283.883813,41.8 284.483807,41.6600014 284.897143,41.38 C285.310478,41.0999986 285.517143,40.7466688 285.517143,40.32 C285.517143,39.9333314 285.323811,39.6233345 284.937143,39.39 C284.550474,39.1566655 283.870481,38.9533342 282.897143,38.78 C281.937138,38.6066658 281.177146,38.3966679 280.617143,38.15 C280.05714,37.9033321 279.650477,37.5900019 279.397143,37.21 C279.143808,36.8299981 279.017143,36.3600028 279.017143,35.8 C279.017143,35.2533306 279.177141,34.7533356 279.497143,34.3 C279.817144,33.8466644 280.27714,33.4833347 280.877143,33.21 C281.477146,32.9366653 282.170472,32.8 282.957143,32.8 C284.023815,32.8 284.880473,32.9966647 285.527143,33.39 C286.173813,33.7833353 286.637141,34.3866626 286.917143,35.2 L285.557143,36 C285.343808,35.3599968 285.020478,34.9000014 284.587143,34.62 C284.153807,34.3399986 283.610479,34.2 282.957143,34.2 C282.303806,34.2 281.750478,34.3466652 281.297143,34.64 C280.843807,34.9333348 280.617143,35.2733314 280.617143,35.66 C280.617143,36.1000022 280.813808,36.4399988 281.207143,36.68 C281.600478,36.9200012 282.303804,37.1266658 283.317143,37.3 C284.703816,37.5266678 285.683807,37.8666644 286.257143,38.32 C286.830479,38.7733356 287.117143,39.4133292 287.117143,40.24 C287.117143,40.8133362 286.947145,41.3233311 286.607143,41.77 C286.267141,42.2166689 285.780479,42.5666654 285.147143,42.82 C284.513806,43.0733346 283.777147,43.2 282.937143,43.2 C281.977138,43.2 281.11048,43.0100019 280.337143,42.63 Z M173.7,82.66 L173.12,86.04 L175.5,86.04 L175.5,87.26 L172.92,87.26 L172.3,91 L170.94,91 L171.56,87.26 L168.24,87.26 L167.62,91 L166.26,91 L166.88,87.26 L164.4,87.26 L164.4,86.04 L167.08,86.04 L167.66,82.66 L165.28,82.66 L165.28,81.44 L167.86,81.44 L168.46,77.8 L169.82,77.8 L169.22,81.44 L172.54,81.44 L173.14,77.8 L174.5,77.8 L173.9,81.44 L176.38,81.44 L176.38,82.66 L173.7,82.66 Z M172.34,82.66 L169.02,82.66 L168.44,86.04 L171.76,86.04 L172.34,82.66 Z M184.778571,78.07 C185.398575,78.3833349 185.86857,78.7999974 186.188571,79.32 C186.508573,79.8400026 186.668571,80.4133302 186.668571,81.04 C186.668571,81.6533364 186.555239,82.2066642 186.328571,82.7 C186.101904,83.1933358 185.798573,83.5833319 185.418571,83.87 C185.03857,84.1566681 184.628574,84.3 184.188571,84.3 L184.188571,84.34 C185.028576,84.34 185.701902,84.6433303 186.208571,85.25 C186.715241,85.8566697 186.968571,86.593329 186.968571,87.46 C186.968571,88.1666702 186.778573,88.8066638 186.398571,89.38 C186.01857,89.9533362 185.475242,90.3999984 184.768571,90.72 C184.061901,91.0400016 183.248576,91.2 182.328571,91.2 C180.12856,91.2 178.608576,90.1466772 177.768571,88.04 L179.248571,87.26 C179.515239,88.0733374 179.885236,88.6833313 180.358571,89.09 C180.831907,89.4966687 181.528567,89.7 182.448571,89.7 C183.341909,89.7 184.041902,89.4766689 184.548571,89.03 C185.055241,88.5833311 185.308571,88.0066702 185.308571,87.3 C185.308571,86.4866626 185.065241,85.9166683 184.578571,85.59 C184.091902,85.2633317 183.32191,85.1 182.268571,85.1 L181.748571,85.1 L181.748571,83.6 L182.268571,83.6 C184.095247,83.6 185.008571,82.8533408 185.008571,81.36 C185.008571,80.6133296 184.798574,80.0500019 184.378571,79.67 C183.958569,79.2899981 183.355242,79.1 182.568571,79.1 C181.795234,79.1 181.178574,79.2766649 180.718571,79.63 C180.258569,79.9833351 179.941906,80.4799968 179.768571,81.12 L178.268571,80.42 C178.588573,79.553329 179.131901,78.8666692 179.898571,78.36 C180.665242,77.8533308 181.548566,77.6 182.548571,77.6 C183.415242,77.6 184.158568,77.7566651 184.778571,78.07 Z M196.367143,78.07 C196.987146,78.3833349 197.457141,78.7999974 197.777143,79.32 C198.097144,79.8400026 198.257143,80.4133302 198.257143,81.04 C198.257143,81.6533364 198.143811,82.2066642 197.917143,82.7 C197.690475,83.1933358 197.387145,83.5833319 197.007143,83.87 C196.627141,84.1566681 196.217145,84.3 195.777143,84.3 L195.777143,84.34 C196.617147,84.34 197.290474,84.6433303 197.797143,85.25 C198.303812,85.8566697 198.557143,86.593329 198.557143,87.46 C198.557143,88.1666702 198.367145,88.8066638 197.987143,89.38 C197.607141,89.9533362 197.063813,90.3999984 196.357143,90.72 C195.650473,91.0400016 194.837147,91.2 193.917143,91.2 C191.717132,91.2 190.197147,90.1466772 189.357143,88.04 L190.837143,87.26 C191.103811,88.0733374 191.473807,88.6833313 191.947143,89.09 C192.420479,89.4966687 193.117138,89.7 194.037143,89.7 C194.930481,89.7 195.630474,89.4766689 196.137143,89.03 C196.643812,88.5833311 196.897143,88.0066702 196.897143,87.3 C196.897143,86.4866626 196.653812,85.9166683 196.167143,85.59 C195.680474,85.2633317 194.910481,85.1 193.857143,85.1 L193.337143,85.1 L193.337143,83.6 L193.857143,83.6 C195.683819,83.6 196.597143,82.8533408 196.597143,81.36 C196.597143,80.6133296 196.387145,80.0500019 195.967143,79.67 C195.547141,79.2899981 194.943813,79.1 194.157143,79.1 C193.383806,79.1 192.767145,79.2766649 192.307143,79.63 C191.847141,79.9833351 191.530477,80.4799968 191.357143,81.12 L189.857143,80.42 C190.177144,79.553329 190.720472,78.8666692 191.487143,78.36 C192.253813,77.8533308 193.137138,77.6 194.137143,77.6 C195.003814,77.6 195.74714,77.7566651 196.367143,78.07 Z M207.955714,78.07 C208.575717,78.3833349 209.045713,78.7999974 209.365714,79.32 C209.685716,79.8400026 209.845714,80.4133302 209.845714,81.04 C209.845714,81.6533364 209.732382,82.2066642 209.505714,82.7 C209.279046,83.1933358 208.975716,83.5833319 208.595714,83.87 C208.215712,84.1566681 207.805716,84.3 207.365714,84.3 L207.365714,84.34 C208.205718,84.34 208.879045,84.6433303 209.385714,85.25 C209.892383,85.8566697 210.145714,86.593329 210.145714,87.46 C210.145714,88.1666702 209.955716,88.8066638 209.575714,89.38 C209.195712,89.9533362 208.652384,90.3999984 207.945714,90.72 C207.239044,91.0400016 206.425719,91.2 205.505714,91.2 C203.305703,91.2 201.785718,90.1466772 200.945714,88.04 L202.425714,87.26 C202.692382,88.0733374 203.062379,88.6833313 203.535714,89.09 C204.00905,89.4966687 204.70571,89.7 205.625714,89.7 C206.519052,89.7 207.219045,89.4766689 207.725714,89.03 C208.232383,88.5833311 208.485714,88.0066702 208.485714,87.3 C208.485714,86.4866626 208.242383,85.9166683 207.755714,85.59 C207.269045,85.2633317 206.499053,85.1 205.445714,85.1 L204.925714,85.1 L204.925714,83.6 L205.445714,83.6 C207.27239,83.6 208.185714,82.8533408 208.185714,81.36 C208.185714,80.6133296 207.975716,80.0500019 207.555714,79.67 C207.135712,79.2899981 206.532385,79.1 205.745714,79.1 C204.972377,79.1 204.355717,79.2766649 203.895714,79.63 C203.435712,79.9833351 203.119048,80.4799968 202.945714,81.12 L201.445714,80.42 C201.765716,79.553329 202.309044,78.8666692 203.075714,78.36 C203.842385,77.8533308 204.725709,77.6 205.725714,77.6 C206.592385,77.6 207.335711,77.7566651 207.955714,78.07 Z M219.544286,78.07 C220.164289,78.3833349 220.634284,78.7999974 220.954286,79.32 C221.274287,79.8400026 221.434286,80.4133302 221.434286,81.04 C221.434286,81.6533364 221.320954,82.2066642 221.094286,82.7 C220.867618,83.1933358 220.564288,83.5833319 220.184286,83.87 C219.804284,84.1566681 219.394288,84.3 218.954286,84.3 L218.954286,84.34 C219.79429,84.34 220.467617,84.6433303 220.974286,85.25 C221.480955,85.8566697 221.734286,86.593329 221.734286,87.46 C221.734286,88.1666702 221.544288,88.8066638 221.164286,89.38 C220.784284,89.9533362 220.240956,90.3999984 219.534286,90.72 C218.827616,91.0400016 218.01429,91.2 217.094286,91.2 C214.894275,91.2 213.37429,90.1466772 212.534286,88.04 L214.014286,87.26 C214.280954,88.0733374 214.65095,88.6833313 215.124286,89.09 C215.597621,89.4966687 216.294281,89.7 217.214286,89.7 C218.107624,89.7 218.807617,89.4766689 219.314286,89.03 C219.820955,88.5833311 220.074286,88.0066702 220.074286,87.3 C220.074286,86.4866626 219.830955,85.9166683 219.344286,85.59 C218.857617,85.2633317 218.087624,85.1 217.034286,85.1 L216.514286,85.1 L216.514286,83.6 L217.034286,83.6 C218.860962,83.6 219.774286,82.8533408 219.774286,81.36 C219.774286,80.6133296 219.564288,80.0500019 219.144286,79.67 C218.724284,79.2899981 218.120956,79.1 217.334286,79.1 C216.560949,79.1 215.944288,79.2766649 215.484286,79.63 C215.024283,79.9833351 214.70762,80.4799968 214.534286,81.12 L213.034286,80.42 C213.354287,79.553329 213.897615,78.8666692 214.664286,78.36 C215.430956,77.8533308 216.314281,77.6 217.314286,77.6 C218.180957,77.6 218.924283,77.7566651 219.544286,78.07 Z M231.132857,78.07 C231.75286,78.3833349 232.222856,78.7999974 232.542857,79.32 C232.862859,79.8400026 233.022857,80.4133302 233.022857,81.04 C233.022857,81.6533364 232.909525,82.2066642 232.682857,82.7 C232.456189,83.1933358 232.152859,83.5833319 231.772857,83.87 C231.392855,84.1566681 230.982859,84.3 230.542857,84.3 L230.542857,84.34 C231.382861,84.34 232.056188,84.6433303 232.562857,85.25 C233.069526,85.8566697 233.322857,86.593329 233.322857,87.46 C233.322857,88.1666702 233.132859,88.8066638 232.752857,89.38 C232.372855,89.9533362 231.829527,90.3999984 231.122857,90.72 C230.416187,91.0400016 229.602862,91.2 228.682857,91.2 C226.482846,91.2 224.962861,90.1466772 224.122857,88.04 L225.602857,87.26 C225.869525,88.0733374 226.239521,88.6833313 226.712857,89.09 C227.186193,89.4966687 227.882853,89.7 228.802857,89.7 C229.696195,89.7 230.396188,89.4766689 230.902857,89.03 C231.409526,88.5833311 231.662857,88.0066702 231.662857,87.3 C231.662857,86.4866626 231.419526,85.9166683 230.932857,85.59 C230.446188,85.2633317 229.676196,85.1 228.622857,85.1 L228.102857,85.1 L228.102857,83.6 L228.622857,83.6 C230.449533,83.6 231.362857,82.8533408 231.362857,81.36 C231.362857,80.6133296 231.152859,80.0500019 230.732857,79.67 C230.312855,79.2899981 229.709528,79.1 228.922857,79.1 C228.14952,79.1 227.532859,79.2766649 227.072857,79.63 C226.612855,79.9833351 226.296191,80.4799968 226.122857,81.12 L224.622857,80.42 C224.942859,79.553329 225.486187,78.8666692 226.252857,78.36 C227.019528,77.8533308 227.902852,77.6 228.902857,77.6 C229.769528,77.6 230.512854,77.7566651 231.132857,78.07 Z M242.721429,78.07 C243.341432,78.3833349 243.811427,78.7999974 244.131429,79.32 C244.45143,79.8400026 244.611429,80.4133302 244.611429,81.04 C244.611429,81.6533364 244.498096,82.2066642 244.271429,82.7 C244.044761,83.1933358 243.74143,83.5833319 243.361429,83.87 C242.981427,84.1566681 242.571431,84.3 242.131429,84.3 L242.131429,84.34 C242.971433,84.34 243.644759,84.6433303 244.151429,85.25 C244.658098,85.8566697 244.911429,86.593329 244.911429,87.46 C244.911429,88.1666702 244.72143,88.8066638 244.341429,89.38 C243.961427,89.9533362 243.418099,90.3999984 242.711429,90.72 C242.004758,91.0400016 241.191433,91.2 240.271429,91.2 C238.071418,91.2 236.551433,90.1466772 235.711429,88.04 L237.191429,87.26 C237.458097,88.0733374 237.828093,88.6833313 238.301429,89.09 C238.774764,89.4966687 239.471424,89.7 240.391429,89.7 C241.284766,89.7 241.984759,89.4766689 242.491429,89.03 C242.998098,88.5833311 243.251429,88.0066702 243.251429,87.3 C243.251429,86.4866626 243.008098,85.9166683 242.521429,85.59 C242.034759,85.2633317 241.264767,85.1 240.211429,85.1 L239.691429,85.1 L239.691429,83.6 L240.211429,83.6 C242.038104,83.6 242.951429,82.8533408 242.951429,81.36 C242.951429,80.6133296 242.741431,80.0500019 242.321429,79.67 C241.901426,79.2899981 241.298099,79.1 240.511429,79.1 C239.738091,79.1 239.121431,79.2766649 238.661429,79.63 C238.201426,79.9833351 237.884763,80.4799968 237.711429,81.12 L236.211429,80.42 C236.53143,79.553329 237.074758,78.8666692 237.841429,78.36 C238.608099,77.8533308 239.491424,77.6 240.491429,77.6 C241.3581,77.6 242.101425,77.7566651 242.721429,78.07 Z"/>
        <circle cx="50" cy="50" r="50" fill="#333"/>
      </g>
    </g>
  </g>
</svg>
