<?xml version="1.0" encoding="UTF-8"?>
<svg width="358px" height="668px" viewBox="0 0 358 668" version="1.1" xmlns="http://www.w3.org/2000/svg" xmlns:xlink="http://www.w3.org/1999/xlink">
    <!-- Generator: Sketch 42 (36781) - http://www.bohemiancoding.com/sketch -->
    <title>Slice 2</title>
    <desc>Created with Sketch.</desc>
    <defs></defs>
    <g id="Neighbours" stroke="none" stroke-width="1" fill="none" fill-rule="evenodd">
        <rect id="Rectangle-8" fill="#FFFFFF" x="-872" y="-92" width="1411" height="856"></rect>
        <g id="Group-6" transform="translate(-712.000000, 192.000000)">
            <g id="neighbours__whole" transform="translate(840.000000, 94.000000)">
                <g id="postman" transform="translate(0.000000, 6.989619)">
                    <g id="head" stroke="#120079" stroke-width="2">
                        <path d="M15.1365894,26.4506045 C15.1365894,26.4506045 17.237875,34.1597451 22.7951262,31.1291361" id="mouth"></path>
                        <g id="hair">
                            <g id="hat">
                                <polyline id="Path-2" points="0 9.08650519 40.7033747 9.08650519 33.9299346 14.1585295"></polyline>
                                <polyline id="Path-29" points="10.309497 9.21237684 11.2465758 4.11038857 37.2072365 0.118118487 33.99184 9.06088923"></polyline>
                            </g>
                        </g>
                        <g id="eyes" transform="translate(14.376022, 13.188874)">
                            <ellipse id="Oval" cx="1.49754675" cy="1.61926182" rx="1.49754675" ry="1.61926182"></ellipse>
                            <ellipse id="Oval" cx="9.48446277" cy="1.61926182" rx="1.49754675" ry="1.61926182"></ellipse>
                        </g>
                    </g>
                    <polygon id="shirt" fill="#120079" opacity="0.35" points="10.3139718 28.2122287 5.37007949 69.479523 34.8353529 69.4401988 32.4908781 27.8233562 22.2825403 45.824468"></polygon>
                    <polyline id="body" stroke="#120079" stroke-width="2" points="9.69548744 11.7677627 2.34521208 72.7303812 38.769732 72.7303812 33.9994668 14.0273108"></polyline>
                    <g id="legs" transform="translate(13.644315, 73.740484)" stroke="#120079" stroke-width="2">
                        <path d="M0.349854227,0.349480969 L0.349854227,20.23892" id="Path-20"></path>
                        <path d="M12.9446064,0 L12.9446064,19.8894391" id="Path-20"></path>
                    </g>
                    <g id="box" transform="translate(24.839650, 33.899654)" stroke="#120079" stroke-width="2">
                        <path d="M0,6.47842074 L1.71199283e-15,34.0165095 L32.8965559,34.0165095 C32.8965559,34.0165095 33.0363831,6.55709395 32.8965559,6.51775734 C32.7567286,6.47842074 26.3958797,2.01829244e-14 26.3958797,2.01829244e-14 L6.69211218,1.77635684e-14 L0,6.47842074 Z" id="Path-32" fill="#FFFFFF"></path>
                        <g id="Group" transform="translate(0.000000, 0.308551)">
                            <path d="M0.026791319,6.17101531 L32.8207464,6.17101531" id="Path-33"></path>
                            <path d="M16.3103337,0 L16.3103337,6.30078825" id="Path-34"></path>
                        </g>
                    </g>
                    <path d="M10.5551959,40.4785338 L38.9830084,52.7503625" id="hand" stroke="#120079" stroke-width="2"></path>
                </g>
                <g id="neighbour__2__fullbody" transform="translate(66.472303, 0.000000)">
                    <g id="head" transform="translate(2.448980, 0.000000)" stroke="#120079" stroke-width="2">
                        <g id="eyes" transform="translate(14.541427, 24.046038)">
                            <ellipse id="Oval" cx="1.45414271" cy="1.57878028" rx="1.45414271" ry="1.57878028"></ellipse>
                            <ellipse id="Oval" cx="9.2095705" cy="1.57878028" rx="1.45414271" ry="1.57878028"></ellipse>
                        </g>
                        <path d="M20.2666718,37.4982874 C20.2666718,37.4982874 26.5895962,39.0622352 27.8623297,34.0709538" id="mouth"></path>
                        <g id="hair">
                            <path d="M6.35835832,26.8464468 L3.51417822,40.9268426" id="Path-9"></path>
                            <path d="M5.46974177,18.9407613 L0.0703004136,29.9510538" id="Path-10"></path>
                            <path d="M35.7831221,20.7250916 L38.1437339,34.2992607" id="Path-11"></path>
                            <path d="M34.629913,14.3505436 L43.2658313,23.410373" id="Path-12"></path>
                            <path d="M3.95152247,6.15732055 L10.1638687,15.3018137" id="Path-13"></path>
                            <path d="M17.1094231,0.208487883 L20.2805489,12.7539114" id="Path-14"></path>
                            <path d="M39.0809654,6.23958824 L28.967473,13.2291471" id="Path-15"></path>
                        </g>
                    </g>
                    <g id="body" transform="translate(7.696793, 21.667820)">
                        <polygon id="shirt" fill="#120079" opacity="0.35" points="9.95593091 19.9513597 2.79753474 53.9636548 20.346103 54.3606418 22.1594467 45.2805013 28.2205888 53.9268274 42.3899141 54.0597806 28.1562282 13.6782166 19.0120269 31.6144123"></polygon>
                        <polyline id="Path-19" stroke="#120079" stroke-width="2" points="6.10821409 8.73141707 0.0181949952 57.4956288 45.7242697 57.4956288 26.1359105 0.338612468"></polyline>
                    </g>
                    <g id="legs" transform="translate(23.790087, 80.730104)" stroke="#120079" stroke-width="2">
                        <path d="M0.349854227,0.349480969 L0.349854227,20.23892" id="Path-20"></path>
                        <path d="M12.9446064,0 L12.9446064,19.8894391" id="Path-20"></path>
                    </g>
                    <g id="hands" transform="translate(0.000000, 45.782007)" stroke="#120079" stroke-width="2">
                        <path d="M38.3045598,1.95554533 L18.9275987,15.7699236" id="Path-25"></path>
                        <path d="M12.0713875,0.119832496 L0.0789045998,12.3214424" id="Path-27"></path>
                    </g>
                </g>
            </g>
        </g>
    </g>
</svg>