<?xml version="1.0" encoding="UTF-8"?>
<svg width="594px" height="790px" viewBox="0 0 594 790" version="1.1" xmlns="http://www.w3.org/2000/svg" xmlns:xlink="http://www.w3.org/1999/xlink">
    <!-- Generator: Sketch 42 (36781) - http://www.bohemiancoding.com/sketch -->
    <title>building__delivery_ic</title>
    <desc>Created with Sketch.</desc>
    <defs></defs>
    <g id="Neighbours" stroke="none" stroke-width="1" fill="none" fill-rule="evenodd">
        <rect id="Rectangle-8" fill="#FFFFFF" x="-761" y="-37" width="1411" height="856"></rect>
        <g id="building__delivery_ic" transform="translate(0.000000, 5.000000)">
            <g id="neighbours__whole" transform="translate(143.319767, 439.616760)">
                <g id="postman" transform="translate(0.000000, 19.186407)">
                    <g id="head" stroke="#120079" stroke-width="2">
                        <path d="M41.4925156,72.6065361 C41.4925156,72.6065361 47.2525733,93.7680185 62.4861458,85.4490396" id="mouth"></path>
                        <g id="hair">
                            <g id="hat">
                                <polyline id="Path-2" points="0 24.9423286 111.576351 24.9423286 93.0089536 38.8649639"></polyline>
                                <polyline id="Path-29" points="28.260459 25.2878445 30.8291855 11.2829587 101.992715 0.324233581 93.1786491 24.8720131"></polyline>
                            </g>
                        </g>
                        <g id="eyes" transform="translate(39.407644, 36.203273)">
                            <ellipse id="Oval" cx="4.10508474" cy="4.44485086" rx="4.10508474" ry="4.44485086"></ellipse>
                            <ellipse id="Oval" cx="25.99887" cy="4.44485086" rx="4.10508474" ry="4.44485086"></ellipse>
                        </g>
                    </g>
                    <polygon id="shirt" fill="#120079" opacity="0.35" points="28.2727255 77.4421698 14.7204962 190.720311 95.490892 190.612366 89.0642029 76.3747204 61.0810419 125.787518"></polygon>
                    <polyline id="body" stroke="#120079" stroke-width="2" points="26.5773322 32.3023426 6.42871035 199.643871 106.275837 199.643871 93.1995559 38.5047702"></polyline>
                    <g id="legs" transform="translate(37.401883, 202.416590)" stroke="#120079" stroke-width="2">
                        <path d="M0.959022646,0.95932033 L0.959022646,55.55555" id="Path-20"></path>
                        <path d="M35.4838379,0 L35.4838379,54.5962297" id="Path-20"></path>
                    </g>
                    <g id="box" transform="translate(68.090608, 93.054072)" stroke="#120079" stroke-width="2">
                        <path d="M0,17.7831735 L4.6929257e-15,93.3748388 L90.1762493,93.3748388 C90.1762493,93.3748388 90.5595446,17.9991304 90.1762493,17.891152 C89.792954,17.7831735 72.3565541,-4.30968934e-14 72.3565541,-4.30968934e-14 L18.3444607,-4.97379915e-14 L0,17.7831735 Z" id="Path-32" fill="#FFFFFF"></path>
                        <g id="Group" transform="translate(0.000000, 0.846967)">
                            <path d="M0.073440535,16.93935 L89.9684398,16.93935" id="Path-33"></path>
                            <path d="M44.7099909,0 L44.7099909,17.2955749" id="Path-34"></path>
                        </g>
                    </g>
                    <path d="M28.9339705,111.113004 L106.860472,144.799001" id="hand" stroke="#120079" stroke-width="2"></path>
                </g>
                <g id="neighbour__2__fullbody" transform="translate(182.214303, 0.000000)">
                    <g id="head" transform="translate(6.713159, 0.000000)" stroke="#120079" stroke-width="2">
                        <g id="eyes" transform="translate(39.861053, 66.006035)">
                            <ellipse id="Oval" cx="3.9861053" cy="4.33372959" rx="3.9861053" ry="4.33372959"></ellipse>
                            <ellipse id="Oval" cx="25.2453336" cy="4.33372959" rx="3.9861053" ry="4.33372959"></ellipse>
                        </g>
                        <path d="M55.5551304,102.93227 C55.5551304,102.93227 72.8875711,107.225285 76.3763963,93.5242876" id="mouth"></path>
                        <g id="hair">
                            <path d="M17.4295725,73.6931179 L9.6330878,112.343606" id="Path-9"></path>
                            <path d="M14.9936911,51.9921226 L0.192707943,82.2152201" id="Path-10"></path>
                            <path d="M98.0889231,56.8900842 L104.559847,94.1509868" id="Path-11"></path>
                            <path d="M94.9277389,39.3920398 L118.600573,64.2611436" id="Path-12"></path>
                            <path d="M10.8319387,16.9017581 L27.8612617,42.0032628" id="Path-13"></path>
                            <path d="M46.90046,0.572296299 L55.5931703,35.009307" id="Path-14"></path>
                            <path d="M107.128992,17.1275817 L79.4058222,36.3138223" id="Path-15"></path>
                        </g>
                    </g>
                    <g id="body" transform="translate(21.098498, 60.341548)">
                        <polygon id="shirt" fill="#120079" opacity="0.35" points="27.2912615 53.9025139 7.66862011 147.265784 55.7728677 148.355508 60.7436171 123.43065 77.3584584 147.164693 116.199504 147.529648 77.1820327 36.6828246 52.1158898 85.9174286"></polygon>
                        <polyline id="Path-19" stroke="#120079" stroke-width="2" points="16.7438755 23.1039295 0.0498762373 156.961003 125.339661 156.961003 71.6439251 0.0657992974"></polyline>
                    </g>
                    <g id="legs" transform="translate(65.213540, 221.602996)" stroke="#120079" stroke-width="2">
                        <path d="M0.959022646,0.95932033 L0.959022646,55.55555" id="Path-20"></path>
                        <path d="M35.4838379,0 L35.4838379,54.5962297" id="Path-20"></path>
                    </g>
                    <g id="hands" transform="translate(0.000000, 125.670963)" stroke="#120079" stroke-width="2">
                        <path d="M105.000704,5.36794436 L51.8844545,43.2882179" id="Path-25"></path>
                        <path d="M33.0901645,0.328938511 L0.216293793,33.8221857" id="Path-27"></path>
                    </g>
                </g>
            </g>
            <rect id="Rectangle-12" fill="#AB6FB2" opacity="0.200011322" transform="translate(343.190407, 386.500000) rotate(-8.000000) translate(-343.190407, -386.500000) " x="180.444767" y="19.8648045" width="325.491279" height="733.270391"></rect>
            <rect id="Rectangle-13" fill="#F5797D" opacity="0.21654212" x="0" y="543.259218" width="485.215116" height="152.008939"></rect>
            <g id="door" transform="translate(128.642442, 408.524022)" stroke-width="6" stroke="#120079">
                <polyline id="Path-31" points="0 314.820664 1.94819975e-14 0 359.379422 0 359.379422 315.344248"></polyline>
                <path d="M1.59380401,23.3195531 L360.065573,23.3195531" id="Path-35"></path>
            </g>
            <g id="building" transform="translate(23.311047, 22.455866)" stroke-width="6" stroke="#120079">
                <polyline id="Path-18" points="49.2210743 701.284877 49.2210743 171.685986 261.179724 171.685986"></polyline>
                <polyline id="Path-18" points="524.836315 702.489887 524.836315 171.522164 312.877666 171.522164 248.798906 171.522164"></polyline>
                <path d="M51.8023256,328.201117 L524.385977,328.201117" id="Line"></path>
                <path d="M52.6656977,345.47486 L525.249349,345.47486" id="Line"></path>
                <path d="M0,703.041341 L570.057016,703.041341" id="Path-24"></path>
                <polyline id="chimney" points="430.822674 171.184394 430.822674 129.553073 472.941833 129.553073 472.941833 170.680435"></polyline>
                <path d="M453.206918,120.639871 C453.097017,118.275054 450.646848,107.603037 454.574847,103.93869 C455.080245,103.467215 474.81394,93.9388546 472.150144,102.92536 C471.938671,103.638777 471.026766,104.047571 470.291607,104.160988 C466.16903,104.796994 461.98624,105.219328 457.815743,105.136787 C442.97623,104.84309 389.496361,95.2632632 418.893244,69.7770524 C425.417952,64.1203275 466.57518,61.0114947 462.802626,76.0706694 C461.650098,80.6712964 448.414843,80.0630843 447.599561,80.0142845 C434.102374,79.20639 394.021764,65.7918578 402.622386,44.9345871 C403.388591,43.0764738 404.717684,41.3303757 406.405837,40.2403571 C417.011865,33.3921827 423.921499,32.4599855 436.595521,31.4119714 C438.021926,31.2940221 453.326186,29.5492303 449.553334,36.602762 C447.737256,39.998009 442.979367,41.5337648 439.568026,41.6261076 C428.39731,41.9284918 417.164611,41.7753226 406.062412,40.5030723 C384.436612,38.024876 368.720491,28.661671 370.649199,5.23572119 C370.810979,3.27075333 372.607782,1.81368722 373.587073,0.102670244" id="smoke"></path>
                <g id="windows" transform="translate(81.156977, 233.195531)">
                    <rect id="window" x="0" y="0" width="69.0697674" height="69.0949721"></rect>
                    <rect id="window" x="84.6104651" y="0" width="69.0697674" height="69.0949721"></rect>
                    <rect id="window" x="169.22093" y="0" width="69.0697674" height="69.0949721"></rect>
                    <rect id="window" x="253.831395" y="0" width="69.0697674" height="69.0949721"></rect>
                    <rect id="window" x="338.44186" y="0" width="69.0697674" height="69.0949721"></rect>
                </g>
            </g>
            <g id="briks" transform="translate(96.697674, 196.056983)" stroke="#120079" stroke-width="6">
                <path d="M1.09603365,0.31390596 L1.09603365,32.5990881" id="Path-22"></path>
                <path d="M34.5348837,1.70530257e-13 L34.5348837,32.2851822" id="Path-22"></path>
                <path d="M82.8837209,1.70530257e-13 L82.8837209,32.2851822" id="Path-22"></path>
                <path d="M116.322571,1.70530257e-13 L116.322571,32.2851822" id="Path-22"></path>
                <path d="M164.671408,1.70530257e-13 L164.671408,32.2851822" id="Path-22"></path>
                <path d="M224.182156,33.6837989 L451.46777,33.6837989" id="Path-21"></path>
            </g>
            <g id="briks" transform="translate(72.523256, 196.056983)" stroke="#120079" stroke-width="6">
                <path d="M286.872196,0.31390596 L286.872196,32.5990881" id="Path-22"></path>
                <path d="M320.311047,1.70530257e-13 L320.311047,32.2851822" id="Path-22"></path>
                <path d="M368.659884,1.70530257e-13 L368.659884,32.2851822" id="Path-22"></path>
                <path d="M402.098734,1.70530257e-13 L402.098734,32.2851822" id="Path-22"></path>
                <path d="M450.447571,1.70530257e-13 L450.447571,32.2851822" id="Path-22"></path>
                <polyline id="Path-21" points="0.178105737 33.6837989 227.930233 33.6837989 270.235802 33.6837989"></polyline>
            </g>
            <g id="ornament" transform="translate(274.552326, 194.329609)" stroke-width="6" stroke="#120079">
                <polyline id="Path-28" points="8.63372093 34.3699239 34.3573864 8.63687151 59.9072868 34.1960955"></polyline>
                <polyline id="Path-28" points="0 34.3699239 34.3573864 0 68.4826864 34.1377528"></polyline>
            </g>
        </g>
    </g>
</svg>