<?xml version="1.0" encoding="UTF-8"?>
<svg width="3189px" height="1795px" viewBox="0 0 3189 1795" version="1.1" xmlns="http://www.w3.org/2000/svg" xmlns:xlink="http://www.w3.org/1999/xlink" style="background: #2A3053;">
    <!-- Generator: Sketch 41.2 (35397) - http://www.bohemiancoding.com/sketch -->
    <title>neighbours</title>
    <desc>Created with Sketch.</desc>
    <defs>
        <polyline id="path-1" points="6.74060986 2.00130543 9.68 0.582952386 9.68 26.3414946 -4.1658621e-14 30.8705882 -4.26325641e-14 27.6977281"></polyline>
        <mask id="mask-2" maskContentUnits="userSpaceOnUse" maskUnits="objectBoundingBox" x="0" y="0" width="9.68" height="30.2876358" fill="white">
            <use xlink:href="#path-1"></use>
        </mask>
        <polyline id="path-3" points="6.74060986 2.00130543 9.68 0.582952386 9.68 26.3414946 9.73943148e-16 30.8705882 0 27.6977281"></polyline>
        <mask id="mask-4" maskContentUnits="userSpaceOnUse" maskUnits="objectBoundingBox" x="0" y="0" width="9.68" height="30.2876358" fill="white">
            <use xlink:href="#path-3"></use>
        </mask>
        <polyline id="path-5" points="6.74060986 2.00130543 9.68 0.582952386 9.68 26.3414946 -4.1658621e-14 30.8705882 -4.26325641e-14 27.6977281"></polyline>
        <mask id="mask-6" maskContentUnits="userSpaceOnUse" maskUnits="objectBoundingBox" x="0" y="0" width="9.68" height="30.2876358" fill="white">
            <use xlink:href="#path-5"></use>
        </mask>
        <polyline id="path-7" points="6.74060986 2.00130543 9.68 0.582952386 9.68 26.3414946 9.73943148e-16 30.8705882 0 27.6977281"></polyline>
        <mask id="mask-8" maskContentUnits="userSpaceOnUse" maskUnits="objectBoundingBox" x="0" y="0" width="9.68" height="30.2876358" fill="white">
            <use xlink:href="#path-7"></use>
        </mask>
        <polyline id="path-9" points="6.74060986 2.00130543 9.68 0.582952386 9.68 26.3414946 -4.1658621e-14 30.8705882 -4.26325641e-14 27.6977281"></polyline>
        <mask id="mask-10" maskContentUnits="userSpaceOnUse" maskUnits="objectBoundingBox" x="0" y="0" width="9.68" height="30.2876358" fill="white">
            <use xlink:href="#path-9"></use>
        </mask>
        <polyline id="path-11" points="6.74060986 2.00130543 9.68 0.582952386 9.68 26.3414946 9.73943148e-16 30.8705882 0 27.6977281"></polyline>
        <mask id="mask-12" maskContentUnits="userSpaceOnUse" maskUnits="objectBoundingBox" x="0" y="0" width="9.68" height="30.2876358" fill="white">
            <use xlink:href="#path-11"></use>
        </mask>
        <polyline id="path-13" points="6.74060986 2.00130543 9.68 0.582952386 9.68 26.3414946 9.73943148e-16 30.8705882 0 27.6977281"></polyline>
        <mask id="mask-14" maskContentUnits="userSpaceOnUse" maskUnits="objectBoundingBox" x="0" y="0" width="9.68" height="30.2876358" fill="white">
            <use xlink:href="#path-13"></use>
        </mask>
        <polyline id="path-15" points="6.74060986 2.00130543 9.68 0.582952386 9.68 26.3414946 9.73943148e-16 30.8705882 0 27.6977281"></polyline>
        <mask id="mask-16" maskContentUnits="userSpaceOnUse" maskUnits="objectBoundingBox" x="0" y="0" width="9.68" height="30.2876358" fill="white">
            <use xlink:href="#path-15"></use>
        </mask>
        <polyline id="path-17" points="6.74060986 2.00130543 9.68 0.582952386 9.68 26.3414946 9.73943148e-16 30.8705882 0 27.6977281"></polyline>
        <mask id="mask-18" maskContentUnits="userSpaceOnUse" maskUnits="objectBoundingBox" x="0" y="0" width="9.68" height="30.2876358" fill="white">
            <use xlink:href="#path-17"></use>
        </mask>
        <polyline id="path-19" points="6.74060986 2.00130543 9.68 0.582952386 9.68 26.3414946 9.73943148e-16 30.8705882 0 27.6977281"></polyline>
        <mask id="mask-20" maskContentUnits="userSpaceOnUse" maskUnits="objectBoundingBox" x="0" y="0" width="9.68" height="30.2876358" fill="white">
            <use xlink:href="#path-19"></use>
        </mask>
        <polyline id="path-21" points="6.74060986 2.00130543 9.68 0.582952386 9.68 26.3414946 9.73943148e-16 30.8705882 0 27.6977281"></polyline>
        <mask id="mask-22" maskContentUnits="userSpaceOnUse" maskUnits="objectBoundingBox" x="0" y="0" width="9.68" height="30.2876358" fill="white">
            <use xlink:href="#path-21"></use>
        </mask>
        <polyline id="path-23" points="6.74060986 2.00130543 9.68 0.582952386 9.68 26.3414946 9.73943148e-16 30.8705882 0 27.6977281"></polyline>
        <mask id="mask-24" maskContentUnits="userSpaceOnUse" maskUnits="objectBoundingBox" x="0" y="0" width="9.68" height="30.2876358" fill="white">
            <use xlink:href="#path-23"></use>
        </mask>
        <polyline id="path-25" points="24.6657432 6.04897973 35.4217792 0.856684629 35.4217792 95.1533428 9.37927623e-13 111.733411 9.34363698e-13 100.118231"></polyline>
        <mask id="mask-26" maskContentUnits="userSpaceOnUse" maskUnits="objectBoundingBox" x="0" y="0" width="35.4217792" height="110.876727" fill="white">
            <use xlink:href="#path-25"></use>
        </mask>
        <polyline id="path-27" points="24.6657432 6.04897973 35.4217792 0.856684629 35.4217792 95.1533428 3.56392553e-15 111.733411 0 100.118231"></polyline>
        <mask id="mask-28" maskContentUnits="userSpaceOnUse" maskUnits="objectBoundingBox" x="0" y="0" width="35.4217792" height="110.876727" fill="white">
            <use xlink:href="#path-27"></use>
        </mask>
        <polyline id="path-29" points="24.6657432 6.04897973 35.4217792 0.856684629 35.4217792 95.1533428 9.37927623e-13 111.733411 9.34363698e-13 100.118231"></polyline>
        <mask id="mask-30" maskContentUnits="userSpaceOnUse" maskUnits="objectBoundingBox" x="0" y="0" width="35.4217792" height="110.876727" fill="white">
            <use xlink:href="#path-29"></use>
        </mask>
        <polyline id="path-31" points="24.6657432 6.04897973 35.4217792 0.856684629 35.4217792 95.1533428 3.56392553e-15 111.733411 0 100.118231"></polyline>
        <mask id="mask-32" maskContentUnits="userSpaceOnUse" maskUnits="objectBoundingBox" x="0" y="0" width="35.4217792" height="110.876727" fill="white">
            <use xlink:href="#path-31"></use>
        </mask>
        <polyline id="path-33" points="24.6657432 6.04897973 35.4217792 0.856684629 35.4217792 95.1533428 9.37927623e-13 111.733411 9.34363698e-13 100.118231"></polyline>
        <mask id="mask-34" maskContentUnits="userSpaceOnUse" maskUnits="objectBoundingBox" x="0" y="0" width="35.4217792" height="110.876727" fill="white">
            <use xlink:href="#path-33"></use>
        </mask>
        <polyline id="path-35" points="24.6657432 6.04897973 35.4217792 0.856684629 35.4217792 95.1533428 3.56392553e-15 111.733411 0 100.118231"></polyline>
        <mask id="mask-36" maskContentUnits="userSpaceOnUse" maskUnits="objectBoundingBox" x="0" y="0" width="35.4217792" height="110.876727" fill="white">
            <use xlink:href="#path-35"></use>
        </mask>
        <polyline id="path-37" points="24.6657432 6.04897973 35.4217792 0.856684629 35.4217792 95.1533428 3.56392553e-15 111.733411 0 100.118231"></polyline>
        <mask id="mask-38" maskContentUnits="userSpaceOnUse" maskUnits="objectBoundingBox" x="0" y="0" width="35.4217792" height="110.876727" fill="white">
            <use xlink:href="#path-37"></use>
        </mask>
        <polyline id="path-39" points="24.6657432 6.04897973 35.4217792 0.856684629 35.4217792 95.1533428 3.56392553e-15 111.733411 0 100.118231"></polyline>
        <mask id="mask-40" maskContentUnits="userSpaceOnUse" maskUnits="objectBoundingBox" x="0" y="0" width="35.4217792" height="110.876727" fill="white">
            <use xlink:href="#path-39"></use>
        </mask>
        <polyline id="path-41" points="24.6657432 6.04897973 35.4217792 0.856684629 35.4217792 95.1533428 3.56392553e-15 111.733411 0 100.118231"></polyline>
        <mask id="mask-42" maskContentUnits="userSpaceOnUse" maskUnits="objectBoundingBox" x="0" y="0" width="35.4217792" height="110.876727" fill="white">
            <use xlink:href="#path-41"></use>
        </mask>
        <polyline id="path-43" points="24.6657432 6.04897973 35.4217792 0.856684629 35.4217792 95.1533428 3.56392553e-15 111.733411 0 100.118231"></polyline>
        <mask id="mask-44" maskContentUnits="userSpaceOnUse" maskUnits="objectBoundingBox" x="0" y="0" width="35.4217792" height="110.876727" fill="white">
            <use xlink:href="#path-43"></use>
        </mask>
        <polyline id="path-45" points="24.6657432 6.04897973 35.4217792 0.856684629 35.4217792 95.1533428 3.56392553e-15 111.733411 0 100.118231"></polyline>
        <mask id="mask-46" maskContentUnits="userSpaceOnUse" maskUnits="objectBoundingBox" x="0" y="0" width="35.4217792" height="110.876727" fill="white">
            <use xlink:href="#path-45"></use>
        </mask>
        <polyline id="path-47" points="24.6657432 6.04897973 35.4217792 0.856684629 35.4217792 95.1533428 3.56392553e-15 111.733411 0 100.118231"></polyline>
        <mask id="mask-48" maskContentUnits="userSpaceOnUse" maskUnits="objectBoundingBox" x="0" y="0" width="35.4217792" height="110.876727" fill="white">
            <use xlink:href="#path-47"></use>
        </mask>
    </defs>
    <g id="logo" stroke="none" stroke-width="1" fill="none" fill-rule="evenodd">
        <g id="Desktop-Copy" transform="translate(-190.000000, -372.000000)">
            <g id="Group" transform="translate(888.000000, 611.000000)">
                <g id="clear-sans-thing" transform="translate(0.000000, 1017.000000)">
                    <g id="Group-5">
                        <path d="M213.060884,215 L213.060884,5.5078125 L333.095064,5.5078125 L333.095064,17.1630859 L226.078462,17.1630859 L226.078462,97.2363281 L318.412446,97.2363281 L318.412446,109.042969 L226.078462,109.042969 L226.078462,203.193359 L333.095064,203.193359 L333.095064,215 L213.060884,215 Z M440.064093,215 L369.981085,215 L369.981085,203.193359 L398.589483,203.193359 L398.589483,17.1630859 L369.981085,17.1630859 L369.981085,5.5078125 L440.064093,5.5078125 L440.064093,17.1630859 L411.607061,17.1630859 L411.607061,203.193359 L440.064093,203.193359 L440.064093,215 Z M619.083903,48.7988281 C616.157456,42.6431984 612.903094,37.3453998 609.320719,32.9052734 C605.738345,28.4651471 601.626244,24.8071433 596.984294,21.9311523 C592.342343,19.0551614 587.145455,16.936042 581.393473,15.5737305 C575.641491,14.211419 569.132767,13.5302734 561.867106,13.5302734 C549.555847,13.5302734 539.06116,15.5484824 530.382731,19.5849609 C521.704302,23.6214395 514.615343,29.6760664 509.115641,37.7490234 C503.615939,45.8219805 499.604749,55.8625702 497.08195,67.8710938 C494.559151,79.8796173 493.29777,93.8052593 493.29777,109.648438 C493.29777,125.087968 494.584378,138.862244 497.157633,150.97168 C499.730888,163.081115 503.918672,173.273071 509.72111,181.547852 C515.523548,189.822633 523.117059,196.129536 532.501872,200.46875 C541.886684,204.807964 553.390475,206.977539 567.01359,206.977539 C571.453717,206.977539 575.742411,206.725263 579.879801,206.220703 C584.017192,205.716143 588.129293,204.959315 592.216227,203.950195 C596.303162,202.941076 600.465718,201.654467 604.70402,200.090332 C608.942323,198.526197 613.331927,196.684581 617.872965,194.56543 L617.872965,126.601562 L557.174723,126.601562 L557.174723,114.794922 L630.890544,114.794922 L630.890544,202.587891 C625.03765,205.413426 619.689396,207.860504 614.845622,209.929199 C610.001847,211.997894 605.132918,213.7386 600.238688,215.151367 C595.344458,216.564135 590.172797,217.623694 584.723551,218.330078 C579.274305,219.036462 572.967402,219.389648 565.802653,219.389648 C549.253091,219.389648 535.428359,216.690294 524.328044,211.291504 C513.227728,205.892714 504.32238,198.299203 497.611735,188.510742 C490.901089,178.722282 486.133071,167.092353 483.307536,153.620605 C480.482001,140.148858 479.069254,125.289795 479.069254,109.042969 C479.069254,92.3924949 480.532456,77.3820656 483.458903,64.0112305 C486.38535,50.6403954 491.153369,39.3131975 497.763102,30.0292969 C504.372836,20.7453963 513.025907,13.605982 523.722575,8.61083984 C534.419243,3.61569768 547.537601,1.11816406 563.078044,1.11816406 C572.059208,1.11816406 580.056361,2.02635811 587.069743,3.84277344 C594.083124,5.65918877 600.314344,8.30808806 605.76359,11.7895508 C611.212836,15.2710135 616.006083,19.5849352 620.143473,24.7314453 C624.280864,29.8779554 627.964095,35.7307615 631.193278,42.2900391 L619.083903,48.7988281 Z M814.300002,215 L814.300002,112.373047 L705.769729,112.373047 L705.769729,215 L692.752151,215 L692.752151,5.5078125 L705.769729,5.5078125 L705.769729,100.566406 L814.300002,100.566406 L814.300002,5.5078125 L827.31758,5.5078125 L827.31758,215 L814.300002,215 Z M1025.86376,152.939453 C1025.86376,163.837945 1024.19874,173.197389 1020.86864,181.018066 C1017.53855,188.838744 1012.61916,195.271785 1006.11034,200.317383 C999.601518,205.362981 991.579138,209.07144 982.042957,211.442871 C972.506777,213.814302 961.48231,215 948.969227,215 L891.298328,215 L891.298328,5.5078125 L949.271961,5.5078125 C960.977749,5.5078125 970.79129,6.49168938 978.712879,8.45947266 C986.634468,10.4272559 993.017054,13.3788866 997.860828,17.3144531 C1002.7046,21.2500197 1006.16079,26.1189489 1008.22948,31.9213867 C1010.29818,37.7238246 1011.33251,44.4091418 1011.33251,51.9775391 C1011.33251,64.6924464 1008.78452,74.9600846 1003.68846,82.7807617 C998.592411,90.6014388 990.393437,96.4290173 979.091297,100.263672 C985.448751,101.17188 991.452922,102.887357 997.103992,105.410156 C1002.75506,107.932955 1007.7249,111.338683 1012.01366,115.627441 C1016.30242,119.9162 1019.68292,125.138316 1022.15526,131.293945 C1024.6276,137.449575 1025.86376,144.664672 1025.86376,152.939453 Z M996.952625,55.0048828 C996.952625,48.2437813 996.195797,42.4666581 994.682117,37.6733398 C993.168438,32.8800216 990.368173,28.9697417 986.281238,25.9423828 C982.194304,22.9150239 976.568546,20.694994 969.403797,19.2822266 C962.239048,17.8694591 952.955286,17.1630859 941.552235,17.1630859 L904.315906,17.1630859 L904.315906,97.8417969 L940.341297,97.8417969 C959.211834,97.8417969 973.364525,94.5117521 982.799793,87.8515625 C992.235062,81.1913729 996.952625,70.2425892 996.952625,55.0048828 Z M1011.63524,154.301758 C1011.63524,144.311473 1009.99545,136.364776 1006.71581,130.461426 C1003.43617,124.558076 998.920427,120.067561 993.168445,116.989746 C987.416464,113.911931 980.579781,111.91895 972.658192,111.010742 C964.736602,110.102535 956.133987,109.648438 946.850086,109.648438 L904.315906,109.648438 L904.315906,203.193359 L942.460438,203.193359 C953.964401,203.193359 964.030219,202.461759 972.658192,200.998535 C981.286164,199.535312 988.476034,196.936868 994.228016,193.203125 C999.979998,189.469382 1004.31915,184.449088 1007.24559,178.14209 C1010.17204,171.835092 1011.63524,163.888394 1011.63524,154.301758 Z M1229.55642,110.253906 C1229.55642,127.005292 1228.14367,142.116632 1225.31814,155.588379 C1222.4926,169.060126 1217.92641,180.513462 1211.61941,189.94873 C1205.31241,199.383999 1197.06298,206.649551 1186.87087,211.745605 C1176.67876,216.84166 1164.16587,219.389648 1149.33181,219.389648 C1134.59866,219.389648 1122.13622,216.816432 1111.94412,211.669922 C1101.75201,206.523412 1093.47735,199.232632 1087.1199,189.797363 C1080.76244,180.362095 1076.17102,168.908759 1073.34548,155.437012 C1070.51995,141.965265 1069.1072,126.90438 1069.1072,110.253906 C1069.1072,93.7043443 1070.51995,78.693915 1073.34548,65.222168 C1076.17102,51.7504209 1080.76244,40.2718573 1087.1199,30.7861328 C1093.47735,21.3004083 1101.75201,13.9844007 1111.94412,8.83789062 C1122.13622,3.69138052 1134.59866,1.11816406 1149.33181,1.11816406 C1164.16587,1.11816406 1176.67876,3.66615291 1186.87087,8.76220703 C1197.06298,13.8582612 1205.31241,21.1238135 1211.61941,30.559082 C1217.92641,39.9943506 1222.4926,51.4476865 1225.31814,64.9194336 C1228.14367,78.3911806 1229.55642,93.5025204 1229.55642,110.253906 Z M1215.3279,110.253906 C1215.3279,94.8143759 1214.19266,81.0905548 1211.92214,69.0820312 C1209.65162,57.0735077 1205.91794,46.9572351 1200.72097,38.7329102 C1195.524,30.5085852 1188.71255,24.2521373 1180.2864,19.9633789 C1171.86025,15.6746205 1161.54216,13.5302734 1149.33181,13.5302734 C1137.02055,13.5302734 1126.67723,15.6241653 1118.30154,19.8120117 C1109.92584,23.9998582 1103.13962,30.1806232 1097.94265,38.3544922 C1092.74568,46.5283612 1089.012,56.6446337 1086.74148,68.7036133 C1084.47096,80.7625928 1083.33572,94.612552 1083.33572,110.253906 C1083.33572,125.491613 1084.47096,139.114523 1086.74148,151.123047 C1089.012,163.13157 1092.72046,173.273071 1097.86697,181.547852 C1103.01348,189.822633 1109.7997,196.129536 1118.22585,200.46875 C1126.652,204.807964 1137.02055,206.977539 1149.33181,206.977539 C1161.54216,206.977539 1171.86025,204.833192 1180.2864,200.544434 C1188.71255,196.255675 1195.524,189.974 1200.72097,181.699219 C1205.91794,173.424438 1209.65162,163.308165 1211.92214,151.350098 C1214.19266,139.39203 1215.3279,125.693437 1215.3279,110.253906 Z M1425.07525,127.509766 C1425.07525,144.866623 1423.81387,159.422956 1421.29107,171.179199 C1418.76827,182.935443 1414.70663,192.421025 1409.10602,199.63623 C1403.5054,206.851436 1396.21462,211.997869 1387.23346,215.075684 C1378.25229,218.153498 1367.30351,219.692383 1354.38678,219.692383 C1340.36001,219.692383 1328.73008,218.052588 1319.49664,214.772949 C1310.2632,211.49331 1302.89673,206.195512 1297.39703,198.879395 C1291.89733,191.563277 1288.0375,182.052467 1285.81744,170.34668 C1283.59738,158.640892 1282.48736,144.362063 1282.48736,127.509766 L1282.48736,5.5078125 L1295.50494,5.5078125 L1295.50494,124.482422 C1295.50494,140.83016 1296.41314,154.377388 1298.22955,165.124512 C1300.04597,175.871636 1303.19942,184.398569 1307.69,190.705566 C1312.18058,197.012564 1318.18475,201.452624 1325.70269,204.025879 C1333.22064,206.599134 1342.68099,207.885742 1354.08404,207.885742 C1365.28527,207.885742 1374.61949,206.649589 1382.08697,204.177246 C1389.55446,201.704903 1395.50817,197.315298 1399.9483,191.008301 C1404.38843,184.701303 1407.51665,176.224825 1409.33307,165.578613 C1411.14948,154.932401 1412.05768,141.435629 1412.05768,125.087891 L1412.05768,5.5078125 L1425.07525,5.5078125 L1425.07525,127.509766 Z M1605.91147,215 L1552.02475,123.271484 L1500.55991,123.271484 L1500.55991,215 L1487.54233,215 L1487.54233,5.5078125 L1541.42905,5.5078125 C1552.73119,5.5078125 1562.62041,6.5421446 1571.09702,8.61083984 C1579.57362,10.6795351 1586.66258,13.9843523 1592.36411,18.5253906 C1598.06563,23.066429 1602.3291,28.9696902 1605.15463,36.2353516 C1607.98017,43.5010129 1609.39292,52.3306772 1609.39292,62.7246094 C1609.39292,71.7057741 1608.48472,79.4758787 1606.66831,86.0351562 C1604.85189,92.5944338 1602.10208,98.2201914 1598.41879,102.912598 C1594.73551,107.605004 1590.11885,111.414373 1584.5687,114.34082 C1579.01854,117.267267 1572.50981,119.487297 1565.04233,121.000977 L1622.10776,215 L1605.91147,215 Z M1595.1644,62.421875 C1595.1644,54.7525658 1594.30666,48.0672486 1592.59116,42.3657227 C1590.87565,36.6641968 1587.94925,31.9466333 1583.81186,28.2128906 C1579.67447,24.479148 1574.14962,21.7041106 1567.23715,19.8876953 C1560.32468,18.07128 1551.62116,17.1630859 1541.12631,17.1630859 L1500.55991,17.1630859 L1500.55991,111.464844 L1541.12631,111.464844 C1551.52025,111.464844 1560.17332,110.55665 1567.08579,108.740234 C1573.99826,106.923819 1579.54833,104.047871 1583.73618,100.112305 C1587.92402,96.1767381 1590.87565,91.1059881 1592.59116,84.8999023 C1594.30666,78.6938166 1595.1644,71.2012158 1595.1644,62.421875 Z M1797.34339,162.324219 C1797.34339,172.516327 1795.55223,181.219853 1791.96985,188.435059 C1788.38748,195.650264 1783.44287,201.553525 1777.13587,206.14502 C1770.82887,210.736514 1763.43718,214.091786 1754.96058,216.210938 C1746.48397,218.330089 1737.35158,219.389648 1727.56312,219.389648 C1717.2701,219.389648 1708.23861,218.330089 1700.46839,216.210938 C1692.69817,214.091786 1685.88671,211.140156 1680.03382,207.355957 C1674.18093,203.571758 1669.11018,199.056016 1664.82142,193.808594 C1660.53266,188.561172 1656.67283,182.809276 1653.24183,176.552734 L1665.65394,170.34668 C1667.47035,174.48407 1670.01834,178.722309 1673.29798,183.061523 C1676.57762,187.400738 1680.66449,191.336245 1685.55872,194.868164 C1690.45295,198.400083 1696.20485,201.301258 1702.81458,203.571777 C1709.42431,205.842297 1716.96737,206.977539 1725.44398,206.977539 C1734.52605,206.977539 1742.64934,206.044117 1749.81409,204.177246 C1756.97884,202.310375 1763.0587,199.51011 1768.05384,195.776367 C1773.04898,192.042625 1776.85835,187.400744 1779.48206,181.850586 C1782.10577,176.300428 1783.41761,169.791704 1783.41761,162.324219 C1783.41761,155.764941 1782.61033,150.088728 1780.99573,145.29541 C1779.38114,140.502092 1776.40428,136.213398 1772.06507,132.429199 C1767.72586,128.645001 1761.77214,125.239273 1754.20374,122.211914 C1746.63534,119.184555 1736.94794,116.106786 1725.14124,112.978516 C1711.3163,109.446597 1700.06479,106.015642 1691.38636,102.685547 C1682.70793,99.3554521 1675.87125,95.6217655 1670.8761,91.484375 C1665.88096,87.3469845 1662.47523,82.5285106 1660.65882,77.0288086 C1658.8424,71.5291066 1657.93421,64.8437894 1657.93421,56.9726562 C1657.93421,48.7987873 1659.27127,41.2809588 1661.94544,34.4189453 C1664.61961,27.5569318 1668.65603,21.6788982 1674.05482,16.784668 C1679.45361,11.8904378 1686.23983,8.0558407 1694.4137,5.28076172 C1702.58757,2.50568274 1712.22452,1.11816406 1723.32484,1.11816406 C1739.16801,1.11816406 1752.56388,4.37252605 1763.51282,10.8813477 C1774.46177,17.3901693 1783.56894,26.7496134 1790.8346,38.9599609 L1778.72523,46.0742188 C1776.20243,41.5331804 1773.27602,37.2697139 1769.94593,33.2836914 C1766.61583,29.2976689 1762.73078,25.841486 1758.29066,22.9150391 C1753.85053,19.9885921 1748.80501,17.6928794 1743.15394,16.027832 C1737.50287,14.3627846 1731.09505,13.5302734 1723.9303,13.5302734 C1714.84823,13.5302734 1707.0529,14.5646055 1700.54407,16.6333008 C1694.03525,18.701996 1688.66177,21.628399 1684.42347,25.4125977 C1680.18517,29.1967963 1677.08217,33.7629941 1675.11439,39.1113281 C1673.1466,44.4596622 1672.16273,50.4133787 1672.16273,56.9726562 C1672.16273,62.9264621 1672.79342,67.9215293 1674.05482,71.9580078 C1675.31622,75.9944863 1677.96511,79.5515797 1682.00159,82.6293945 C1686.03807,85.7072094 1691.78997,88.5831572 1699.25745,91.2573242 C1706.72494,93.9314912 1716.61416,96.8326667 1728.92542,99.9609375 C1740.83303,103.089208 1751.10067,106.34357 1759.72864,109.724121 C1768.35662,113.104672 1775.44558,117.14109 1780.99573,121.833496 C1786.54589,126.525902 1790.65799,132.126432 1793.33216,138.635254 C1796.00633,145.144076 1797.34339,153.040318 1797.34339,162.324219 Z" id="EIGHBOURS" fill="#FFFFFF"></path>
                        <g id="BUILDING" stroke="#FFFFFF">
                            <g id="N">
                                <polyline id="Path-5" stroke-width="13" points="0 217.965576 1.36398801e-14 0.49990108 72.4400156 30.3411895 72.4400156 245.500977 142.456257 215.605471 142.456257 3.7857315"></polyline>
                                <g id="windows_top_left" transform="translate(37.464000, 50.441176) scale(-1, 1) translate(-37.464000, -50.441176) translate(20.464000, 28.941176)" stroke-width="6">
                                    <g id="window" transform="translate(0.000000, 11.576471)">
                                        <use id="Rectangle-3" mask="url(#mask-2)" xlink:href="#path-1"></use>
                                    </g>
                                    <g id="window" transform="translate(23.232000, 0.000000)">
                                        <use id="Rectangle-3" mask="url(#mask-4)" xlink:href="#path-3"></use>
                                    </g>
                                </g>
                                <g id="windows_top_left" transform="translate(37.464000, 105.429412) scale(-1, 1) translate(-37.464000, -105.429412) translate(20.464000, 83.929412)" stroke-width="6">
                                    <g id="window" transform="translate(0.000000, 11.576471)">
                                        <use id="Rectangle-3" mask="url(#mask-6)" xlink:href="#path-5"></use>
                                    </g>
                                    <g id="window" transform="translate(23.232000, 0.000000)">
                                        <use id="Rectangle-3" mask="url(#mask-8)" xlink:href="#path-7"></use>
                                    </g>
                                </g>
                                <g id="windows_top_left" transform="translate(37.464000, 164.276471) scale(-1, 1) translate(-37.464000, -164.276471) translate(20.464000, 142.776471)" stroke-width="6">
                                    <g id="window" transform="translate(0.000000, 11.576471)">
                                        <use id="Rectangle-3" mask="url(#mask-10)" xlink:href="#path-9"></use>
                                    </g>
                                    <g id="window" transform="translate(23.232000, 0.000000)">
                                        <use id="Rectangle-3" mask="url(#mask-12)" xlink:href="#path-11"></use>
                                    </g>
                                </g>
                                <g id="windows_top_left" transform="translate(92.568000, 28.941176)" stroke-width="6">
                                    <g id="window" transform="translate(0.000000, 11.576471)">
                                        <use id="Rectangle-3" mask="url(#mask-14)" xlink:href="#path-13"></use>
                                    </g>
                                    <g id="window" transform="translate(23.232000, 0.000000)">
                                        <use id="Rectangle-3" mask="url(#mask-16)" xlink:href="#path-15"></use>
                                    </g>
                                </g>
                                <g id="windows_top_left" transform="translate(92.568000, 83.929412)" stroke-width="6">
                                    <g id="window" transform="translate(0.000000, 11.576471)">
                                        <use id="Rectangle-3" mask="url(#mask-18)" xlink:href="#path-17"></use>
                                    </g>
                                    <g id="window" transform="translate(23.232000, 0.000000)">
                                        <use id="Rectangle-3" mask="url(#mask-20)" xlink:href="#path-19"></use>
                                    </g>
                                </g>
                                <g id="windows_top_left" transform="translate(92.568000, 142.776471)" stroke-width="6">
                                    <g id="window" transform="translate(0.000000, 11.576471)">
                                        <use id="Rectangle-3" mask="url(#mask-22)" xlink:href="#path-21"></use>
                                    </g>
                                    <g id="window" transform="translate(23.232000, 0.000000)">
                                        <use id="Rectangle-3" mask="url(#mask-24)" xlink:href="#path-23"></use>
                                    </g>
                                </g>
                            </g>
                        </g>
                    </g>
                </g>
                <g id="BUILDING" transform="translate(634.000000, 0.000000)" stroke-width="20" stroke="#FFFFFF">
                    <g id="N">
                        <polyline id="Path-5" points="0 796.649195 4.99120682e-14 0.552651094 265.077917 109.795393 265.077917 897.450564 521.28658 788.009342 521.28658 12.5813919"></polyline>
                        <g id="windows_top_left" transform="translate(138.298738, 183.447619) scale(-1, 1) translate(-138.298738, -183.447619) translate(77.298738, 105.947619)">
                            <g id="window" transform="translate(0.000000, 42.379048)">
                                <use id="Rectangle-3" mask="url(#mask-26)" xlink:href="#path-25"></use>
                            </g>
                            <g id="window" transform="translate(85.012270, 0.000000)">
                                <use id="Rectangle-3" mask="url(#mask-28)" xlink:href="#path-27"></use>
                            </g>
                        </g>
                        <g id="windows_top_left" transform="translate(138.298738, 384.748096) scale(-1, 1) translate(-138.298738, -384.748096) translate(77.298738, 307.248096)">
                            <g id="window" transform="translate(0.000000, 42.379048)">
                                <use id="Rectangle-3" mask="url(#mask-30)" xlink:href="#path-29"></use>
                            </g>
                            <g id="window" transform="translate(85.012270, 0.000000)">
                                <use id="Rectangle-3" mask="url(#mask-32)" xlink:href="#path-31"></use>
                            </g>
                        </g>
                        <g id="windows_top_left" transform="translate(138.298738, 600.174923) scale(-1, 1) translate(-138.298738, -600.174923) translate(77.298738, 522.674923)">
                            <g id="window" transform="translate(0.000000, 42.379048)">
                                <use id="Rectangle-3" mask="url(#mask-34)" xlink:href="#path-33"></use>
                            </g>
                            <g id="window" transform="translate(85.012270, 0.000000)">
                                <use id="Rectangle-3" mask="url(#mask-36)" xlink:href="#path-35"></use>
                            </g>
                        </g>
                        <g id="windows_top_left" transform="translate(338.731741, 105.947619)">
                            <g id="window" transform="translate(0.000000, 42.379048)">
                                <use id="Rectangle-3" mask="url(#mask-38)" xlink:href="#path-37"></use>
                            </g>
                            <g id="window" transform="translate(85.012270, 0.000000)">
                                <use id="Rectangle-3" mask="url(#mask-40)" xlink:href="#path-39"></use>
                            </g>
                        </g>
                        <g id="windows_top_left" transform="translate(338.731741, 307.248096)">
                            <g id="window" transform="translate(0.000000, 42.379048)">
                                <use id="Rectangle-3" mask="url(#mask-42)" xlink:href="#path-41"></use>
                            </g>
                            <g id="window" transform="translate(85.012270, 0.000000)">
                                <use id="Rectangle-3" mask="url(#mask-44)" xlink:href="#path-43"></use>
                            </g>
                        </g>
                        <g id="windows_top_left" transform="translate(338.731741, 522.674923)">
                            <g id="window" transform="translate(0.000000, 42.379048)">
                                <use id="Rectangle-3" mask="url(#mask-46)" xlink:href="#path-45"></use>
                            </g>
                            <g id="window" transform="translate(85.012270, 0.000000)">
                                <use id="Rectangle-3" mask="url(#mask-48)" xlink:href="#path-47"></use>
                            </g>
                        </g>
                    </g>
                </g>
            </g>
        </g>
    </g>
</svg>